<?xml version="1.0" encoding="utf-8"?>
<!-- Generator: Adobe Illustrator 24.0.1, SVG Export Plug-In . SVG Version: 6.00 Build 0)  -->
<svg version="1.1" id="Camada_1" xmlns="http://www.w3.org/2000/svg" xmlns:xlink="http://www.w3.org/1999/xlink" x="0px" y="0px"
	 viewBox="0 0 180 180" style="enable-background:new 0 0 180 180;" xml:space="preserve">
<style type="text/css">
	.st0{fill:#FFFFFF;}
	.st1{fill:#231F20;}
	.st2{fill:#64C2C7;}
	.st3{fill:#020203;}
	.st4{fill:#7DC6B8;}
</style>
<g>
	<path class="st0" d="M141.6,22c-0.1-1.2-0.3-2.4-0.4-3.6c0.1,0,0.2-0.1,0.3-0.1c0.7,1.6,1.5,3.3,2.2,5c1,2.4,2,4.7,2.7,7.2
		c0.9,2.7,2,5.3,1.6,8.3c-0.3,2.6-2.3,5.3-4.6,6.2c-2.6,1-5.2,2.1-7.8,3.1c-2.6,1-5.2,1.9-7.7,2.9c-0.7,0.3-1.4,0.6-2.1,0.7
		c-0.3,0.1-0.8-0.1-1-0.4c-0.7-0.8-1.4-1.6-2-2.5c-0.3-0.4-0.3-1.1-0.3-1.6c0-0.6,0.3-1.1,1-1.3c3.1-1.2,6.3-2.3,9.4-3.8
		c3.3-1.6,6.6-3.4,9-6.5c0.9-1.1,1.3-2.4,0.9-3.9c-0.1-0.3,0-0.6,0-0.8C142.3,27.9,141.9,25,141.6,22 M116.8,73.6
		c-2,2.2-4.7,3.1-7.4,3.8c-0.2,0.1-0.4,0.2-0.6,0.3c0.1,0.2,0.2,0.4,0.3,0.6c0.8,0.6,1.5,1.2,2.4,1.9c-0.8,0.2-1.7,0.5-2.5,0.6
		c-0.9,0.1-1.8,0-2.8,0c1,4,1.9,8,2.9,12c0.3-0.2,0.5-0.2,0.6-0.3c3.2-2.6,6.4-5.2,9.5-7.9c1-0.8,1.9-1.7,1.8-3.2
		c-0.1-1-0.2-2-0.4-3c-0.5-2.3-1.5-4.4-2.7-6.6C117.5,72.5,117.2,73.1,116.8,73.6 M99.1,63.8c-1.4,0.4-2.9,0.8-4.3,1
		c-1.4,0.2-2.9,0.6-4-0.8c-0.5-0.6-0.8-1.3-1.1-2.1c-0.3-0.7-0.4-1.5-0.6-2.3c-0.4,0.8-0.6,1.6-0.8,2.4c-0.5,2-1.6,2.9-3.5,2.9
		c-1,0-2-0.2-2.9-0.4c-1.3-0.3-2.6-0.6-3.9-1c-1-0.3-2.1-0.6-3.1-0.9c0,0.1,0,0.1-0.1,0.2c0.1,0.1,0.2,0.2,0.3,0.3
		c0.1,0.1,0.2,0.2,0.3,0.2c3.4,2.1,6.8,3.9,10.6,5.1c2.4,0.7,4.7,0.6,6.9-0.3c2.9-1.2,5.8-2.7,8.6-4.1c0.6-0.3,1.1-0.8,1.6-1.2
		c-0.2-0.1-0.4-0.1-0.5-0.1C101.5,63.1,100.3,63.5,99.1,63.8 M57,81.8c0.1,0.7,0.4,1.5,0.8,1.9c3,2.6,6,5.1,9,7.6
		c0.6,0.5,1.3,0.9,2,1.5c1-4.1,1.9-8.1,2.9-12.1c-2.7,0.3-4,0-5.3-0.8c1.2-0.6,2.3-1.1,2.8-2.2c-1.8-0.7-3.5-1.3-5.2-2
		c-1.7-0.7-3.1-2-4-4c-0.4,0.7-0.7,1.1-0.9,1.6C57.9,76,56.7,78.7,57,81.8 M36.6,18.2c-0.4,0.8-0.7,1.6-1.1,2.4
		c-0.8,1.8-1.6,3.5-2.2,5.3c-0.8,2.2-1.5,4.5-2.3,6.7c-0.9,2.5-1.4,5-0.5,7.6c0.5,1.5,1.1,2.9,2.4,3.8c0.8,0.5,1.6,0.9,2.5,1.2
		c2.5,1.1,5,2.1,7.6,3.1c2.9,1.1,5.8,2.2,8.7,3.3c0.5,0.2,1.2,0.3,1.5,0.1c0.9-0.9,1.7-2,2.4-3.1c0.6-1,0.1-2.2-0.8-2.6
		c-4.1-1.4-8.1-3-11.9-5.2c-2.2-1.2-4.3-2.6-6-4.6c-1-1.1-1.7-2.4-1.5-4c0.2-1.7,0.3-3.4,0.6-5.1c0.3-2.5,0.7-5,1-7.5
		c0.1-0.5,0.1-1,0.1-1.4C36.8,18.2,36.7,18.2,36.6,18.2 M108.8,131.7c0.6-0.4,1.1-1.1,1.6-1.7c0.4-0.4,0.7-0.8,1.1-1.1
		c0.1,0.1,0.2,0.1,0.3,0.2c-0.2,1.7-0.3,3.5-0.5,5.2c-0.2,1.8-0.4,3.7-0.8,5.5c-0.3,1.5-0.8,3-1.1,4.5c-0.2,0.9-0.4,1.7-0.6,2.6
		c-0.2,0.7-0.3,1.4-0.4,2.1c0.1,0.1,0.2,0.1,0.2,0.2c9.7-7.3,19.8-14,31-18.7c-3-4.9-5.7-10-7.4-15.6c-2,1.4-3.9,2.7-5.9,4.2
		c0-0.5,0-0.7,0-0.8c0.5-1.5,1.1-3.1,1.4-4.6c0.5-1.9,1-3.8,1-5.7c0.2-4.4,0.2-8.9-1.2-13.2c-0.5-1.4-0.9-2.8-1.5-4.2
		c-0.1-0.1-0.5-0.3-0.6-0.2c-0.9,1.2-2.1,1.9-2,3.9c0.2,3.8,0.5,7.5-0.3,11.3c-0.4,1.9-0.4,4-0.7,6c-0.5,2.8-1,5.5-1.8,8.3
		c-0.7,2.6-1.7,5.1-2.5,7.7c-0.1,0.2-0.3,0.3-0.5,0.5c-0.1-0.3,0.1-0.5,0.1-0.7c0.3-2.1,0.6-4.2,0.7-6.4c0.2-4.3,0.5-8.7-0.3-13
		c-0.2-1.3-0.3-2.8-1.9-3.2c-0.3-0.1-0.6-0.2-0.9-0.3c-1.2-0.6-2.4-1.2-3.7-1.8c0,0.4-0.1,0.6-0.1,0.8c0.4,1.6,0.6,3.3,1.2,4.8
		c1,2.6,0.3,5.1-0.2,7.5c-0.5,2-1.3,4-2,5.9c-0.6,1.6-1.2,3.2-2.7,4.1c-1,0.7-1.8,1.4-2.3,2.6c-1.1,2.6-2.4,5.1-3.7,7.6
		c-1,1.9-2.1,3.7-4.3,4.3c-1.4,0.4-2.9,0.8-4.4,1.1c-1.6,0.3-3.2,0.7-4.7,0.6c-2.3-0.2-4.6-0.7-6.8-1.1c-2.2-0.5-3.9-1.7-4.9-3.8
		c-1.6-3.1-3.2-6.3-4.7-9.5c-0.3-0.5-0.6-0.9-1.2-1.3c-0.8-0.5-1.6-1.2-2.1-2c-1.5-2.4-2.3-5.2-3.1-7.9c-0.2-0.7-0.1-1.4-0.4-2
		c-0.5-1.2-0.8-2.5-0.6-3.8c0.4-1.8,0.8-3.6,1.3-5.4c0.2-0.8,0.3-1.6,0.4-2.4c-0.2,0-0.3-0.1-0.3,0c-1.7,0.8-3.5,1.6-5.2,2.4
		c-0.3,0.1-0.6,0.5-0.7,0.8c-0.3,1.4-0.6,2.8-0.7,4.2c-0.1,2.1-0.2,4.1-0.2,6.2c0,1.7,0,3.3,0.2,5c0.2,2.3,0.6,4.5,0.9,7
		c-0.3-0.4-0.5-0.6-0.6-0.8c-0.4-1-0.7-2.2-1.1-3.2c-1.3-2.7-1.6-5.6-2.4-8.5c-0.4-1.4-0.6-3-0.8-4.5c-0.4-2.5-0.9-5.1-1.1-7.7
		c-0.2-3.5,0.1-7,0.1-10.5c0-0.4-0.2-0.8-0.4-1.1c-0.4-0.6-1-1-1.4-1.6c-0.4-0.4-0.6-0.7-0.8,0.1c-0.3,0.8-0.7,1.6-0.9,2.5
		c-0.6,2.2-1.3,4.3-1.5,6.5c-0.3,3.9-0.6,7.8,0.3,11.7c0.4,1.6,0.8,3.3,1.3,4.9c0.2,0.9,0.6,1.7,0.9,2.5c-0.1,0.1-0.2,0.2-0.3,0.2
		c-1.9-1.3-3.8-2.6-5.8-4.1c-1.7,5.7-4.4,10.7-7.4,15.6c0.4,0.2,0.6,0.3,0.8,0.4c3.5,1.7,7,3.3,10.4,5.1c2.6,1.4,5,3,7.4,4.6
		c1.9,1.2,3.7,2.5,5.6,3.8c1.8,1.3,3.8,2.2,6.2,1.6c-0.3-1.4-0.6-2.8-0.8-4.3c-0.3-1.6-0.7-3.2-1-4.9c-0.2-1.2-0.4-2.4-0.6-3.6
		c-0.1-1.4-0.2-2.9-0.2-4.6c0.4,0.3,0.6,0.4,0.7,0.6c0.8,0.8,1.5,1.6,2.3,2.4c0.3,0.4,0.8,0.7,0.9,1.2c0.8,2.3,1.4,4.6,2.2,6.9
		c1.1,3.4,2.3,6.8,3.5,10.2c1,2.7,2,5.5,3.6,7.9c1.3,1.9,2.8,3.5,4.8,4.5c3.3,1.6,7.4,1,9.4-1.6c3.2-4,5.9-8.4,8.3-13
		c1.3-2.6,2.4-5.3,3.5-8c0.7-1.8,1.3-3.6,1.9-5.5C107.7,133.2,107.8,132.3,108.8,131.7 M30.9,32.6c0.8-2.2,1.5-4.5,2.3-6.7
		c0.7-1.8,1.5-3.6,2.2-5.3c0.4-0.8,0.7-1.6,1.1-2.4c0.1,0,0.2,0,0.3,0.1c0,0.5,0,1-0.1,1.4c-0.3,2.5-0.7,5-1,7.5
		c-0.2,1.7-0.4,3.4-0.6,5.1c-0.2,1.6,0.5,2.9,1.5,4c1.7,1.9,3.8,3.3,6,4.6c3.8,2.1,7.8,3.7,11.9,5.2c0.9,0.3,1.4,1.6,0.8,2.6
		c-0.7,1.1-1.5,2.2-2.4,3.1c-0.2,0.3-1,0.1-1.5-0.1c-2.9-1-5.8-2.1-8.7-3.3c-2.5-1-5.1-2-7.6-3.1c-0.8-0.4-1.7-0.7-2.5-1.2
		c-1.3-0.9-1.9-2.3-2.4-3.8C29.5,37.6,30,35.1,30.9,32.6 M109.7,92.5c-0.1,0.1-0.3,0.1-0.6,0.3c-1-4-1.9-8-2.9-12c1,0,1.9,0.1,2.8,0
		c0.8-0.1,1.6-0.4,2.5-0.6c-0.9-0.7-1.7-1.3-2.4-1.9c-0.2-0.1-0.2-0.4-0.3-0.6c0.2-0.1,0.4-0.2,0.6-0.3c2.7-0.7,5.4-1.5,7.4-3.8
		c0.4-0.5,0.7-1.1,1.2-1.8c1.3,2.2,2.3,4.2,2.7,6.6c0.2,1,0.3,2,0.4,3c0.1,1.5-0.8,2.4-1.8,3.2C116.1,87.2,112.9,89.8,109.7,92.5
		 M122.5,47.3c0-0.6,0.3-1.1,1-1.3c3.1-1.2,6.3-2.3,9.4-3.8c3.3-1.6,6.6-3.4,9-6.5c0.9-1.1,1.3-2.4,0.9-3.9c-0.1-0.3,0-0.6,0-0.8
		c-0.3-3-0.7-5.9-1-8.9c-0.1-1.2-0.3-2.4-0.4-3.6c0.1,0,0.2-0.1,0.3-0.1c0.7,1.6,1.5,3.3,2.2,5c1,2.4,2,4.7,2.7,7.2
		c0.9,2.7,2,5.3,1.6,8.3c-0.3,2.6-2.3,5.3-4.6,6.2c-2.6,1-5.2,2.1-7.8,3.1c-2.6,1-5.2,1.9-7.7,2.9c-0.7,0.3-1.4,0.6-2.1,0.7
		c-0.3,0.1-0.8-0.1-1-0.4c-0.7-0.8-1.4-1.6-2-2.5C122.5,48.4,122.5,47.8,122.5,47.3 M59.9,127.3c0.1,0.2,0.3,0.4,0.6,0.8
		c-0.3-2.5-0.7-4.8-0.9-7c-0.2-1.7-0.2-3.3-0.2-5c0-2.1,0-4.2,0.2-6.2c0.1-1.4,0.4-2.8,0.7-4.2c0.1-0.3,0.4-0.7,0.7-0.8
		c1.7-0.8,3.4-1.6,5.2-2.4c0,0,0.1,0,0.3,0c-0.1,0.8-0.3,1.6-0.4,2.4c-0.4,1.8-0.9,3.6-1.3,5.4c-0.3,1.3,0.1,2.5,0.6,3.8
		c0.2,0.6,0.2,1.4,0.4,2c0.8,2.8,1.6,5.5,3.1,7.9c0.5,0.8,1.3,1.4,2.1,2c0.5,0.3,0.9,0.7,1.2,1.3c1.6,3.1,3.1,6.3,4.7,9.5
		c1.1,2.1,2.8,3.4,4.9,3.8c2.3,0.5,4.5,1,6.8,1.1c1.6,0.1,3.2-0.3,4.7-0.6c1.5-0.3,2.9-0.7,4.4-1.1c2.2-0.6,3.3-2.4,4.3-4.3
		c1.3-2.5,2.6-5,3.7-7.6c0.5-1.2,1.3-1.9,2.3-2.6c1.4-0.9,2.1-2.5,2.7-4.1c0.7-2,1.6-3.9,2-5.9c0.6-2.4,1.2-4.9,0.2-7.5
		c-0.6-1.5-0.8-3.2-1.2-4.8c0-0.2,0-0.4,0.1-0.8c1.3,0.6,2.5,1.2,3.7,1.8c0.3,0.1,0.6,0.2,0.9,0.3c1.6,0.4,1.7,1.9,1.9,3.2
		c0.8,4.3,0.4,8.7,0.3,13c-0.1,2.1-0.5,4.3-0.7,6.4c0,0.2-0.2,0.4-0.1,0.7c0.2-0.2,0.4-0.3,0.5-0.5c0.9-2.6,1.8-5.1,2.5-7.7
		c0.7-2.7,1.3-5.5,1.8-8.3c0.3-2,0.3-4,0.7-6c0.8-3.8,0.5-7.6,0.3-11.3c-0.1-2,1.2-2.8,2-3.9c0-0.1,0.5,0.1,0.6,0.2
		c0.5,1.4,1,2.8,1.5,4.2c1.4,4.3,1.4,8.8,1.2,13.2c-0.1,1.9-0.6,3.8-1,5.7c-0.4,1.6-1,3.1-1.4,4.6c0,0.1,0,0.3,0,0.8
		c2-1.4,3.9-2.8,5.9-4.2c1.7,5.6,4.4,10.7,7.4,15.6c-11.2,4.7-21.3,11.4-31,18.7c-0.1-0.1-0.2-0.1-0.2-0.2c0.1-0.7,0.3-1.4,0.4-2.1
		c0.2-0.9,0.4-1.7,0.6-2.6c0.4-1.5,0.8-3,1.1-4.5c0.3-1.8,0.6-3.7,0.8-5.5c0.2-1.7,0.3-3.5,0.5-5.2c-0.1-0.1-0.2-0.1-0.3-0.2
		c-0.4,0.4-0.7,0.8-1.1,1.1c-0.5,0.6-1,1.2-1.6,1.7c-0.9,0.6-1.1,1.6-1.4,2.5c-0.6,1.8-1.1,3.7-1.9,5.5c-1.1,2.7-2.2,5.5-3.5,8
		c-2.4,4.6-5.1,8.9-8.3,13c-2.1,2.6-6.2,3.2-9.4,1.6c-2-1-3.5-2.6-4.8-4.5c-1.6-2.4-2.6-5.1-3.6-7.9c-1.2-3.4-2.3-6.8-3.5-10.2
		c-0.8-2.3-1.4-4.6-2.2-6.9c-0.2-0.4-0.6-0.8-0.9-1.2c-0.8-0.8-1.5-1.6-2.3-2.4c-0.1-0.1-0.3-0.2-0.7-0.6c0.1,1.7,0.1,3.2,0.2,4.6
		c0.1,1.2,0.3,2.4,0.6,3.6c0.3,1.6,0.7,3.3,1,4.9c0.3,1.4,0.6,2.9,0.8,4.3c-2.4,0.6-4.4-0.3-6.2-1.6c-1.8-1.3-3.7-2.6-5.6-3.8
		c-2.5-1.6-4.9-3.3-7.4-4.6c-3.4-1.8-6.9-3.4-10.4-5.1c-0.2-0.1-0.5-0.2-0.8-0.4c2.9-4.9,5.7-9.9,7.4-15.6c2,1.4,3.9,2.7,5.8,4.1
		c0.1-0.1,0.2-0.2,0.3-0.2c-0.3-0.8-0.6-1.7-0.9-2.5c-0.5-1.6-0.9-3.2-1.3-4.9c-0.8-3.9-0.6-7.8-0.3-11.7c0.2-2.2,1-4.4,1.5-6.5
		c0.2-0.8,0.6-1.6,0.9-2.5c0.2-0.8,0.5-0.5,0.8-0.1c0.5,0.6,1,1,1.4,1.6c0.2,0.3,0.4,0.7,0.4,1.1c0,3.5-0.2,7-0.1,10.5
		c0.1,2.6,0.7,5.1,1.1,7.7c0.2,1.5,0.4,3,0.8,4.5c0.8,2.8,1.1,5.8,2.4,8.5C59.2,125.1,59.5,126.3,59.9,127.3 M137.2,11.1
		c0.3,1.1,0.5,2.1,0.7,3.2c0.4,2.1,0.8,4.1,1,6.2c0.3,3.4,0.6,6.9,0.7,10.4c0,1.2-0.2,2.4-1.2,3.4c-2.3,2.3-4.9,4.1-7.9,5.3
		c-0.6,0.2-1.3,0.5-1.8,0.3c-1.9-0.6-3.7-1.4-5.5-1.9c-1.5-0.4-3-0.8-4.5-0.9c-1.5,0-3,0.4-4.5,0.6c-0.6,0.1-1.4,0.3-1.9,0
		c-2.8-1.4-5.6-2.9-8.5-4.2c-1.6-0.7-3.4-1.4-5.2-1.6c-2.5-0.3-5-0.4-7.5-0.3c-1.8,0.1-3.5,0-5.2-0.1c-4.1-0.2-8.2,0.2-12,2.1
		c-2.6,1.3-5.1,2.5-7.7,3.9c-0.8,0.4-1.5,0.6-2.4,0.3c-2.2-0.7-4.3-0.9-6.6-0.4c-2.6,0.6-5.3,1.2-7.7,2.4c-0.3,0.1-0.6,0.3-0.9,0.2
		c-0.8-0.2-1.6-0.4-2.3-0.8c-1.6-0.9-3.1-1.8-4.7-2.9c-2.2-1.5-3.8-3.5-3.5-6.5c0.2-1.6,0.2-3.3,0.3-4.9c0.1-1.4,0.2-2.9,0.4-4.3
		c0.5-3.2,1.2-6.3,1.8-9.5c0.2-0.8-0.1-1.4-0.6-1.9c-0.6-0.5-1.2-0.1-1.8,0.3c-0.3,0.2-0.5,0.4-0.7,0.7c-1.4,1.7-2.8,3.3-4,5.1
		c-2.3,3.3-4.7,6.7-6.7,10.2c-1.9,3.2-3.4,6.6-5,10c-1,2.1-1.3,4.4-0.6,6.8c0.8,3.1,2.2,5.7,4.3,8c2.4,2.6,5.2,4.4,8.4,5.7
		c0.6,0.3,1.2,0.5,1.7,0.8c-2,1.6-3.8,3.1-5.7,4.7c-0.3,0.3-0.6,0.6-0.1,1.1c1.9,2.2,4.1,4,6.6,5.5c1.8,1.1,3.8,2,5.7,2.8
		c2.4,1,4.9,1.5,7.5,1.3c0.5,0,0.9-0.2,1.6-0.3c-0.2,0.4-0.3,0.6-0.4,0.8c-1,2.1-2.2,4-3,6.2c-1,2.7-1.9,5.5-2.6,8.3
		c-0.7,3-1.2,6.1-1.7,9.1c-0.4,2.1-0.4,4.4-0.9,6.4c-0.8,2.9-1.9,5.7-2.8,8.5c-0.4,1.1-0.7,2.3-1.1,3.4c-0.6,1.6-1.3,3.1-2,4.7
		c-0.7,1.6-1.3,3.2-2,4.7c-0.6,1.3-1.3,2.6-1.9,3.9c-1.4,2.7-2.8,5.4-4.3,8.2c0.2,0.1,0.4,0.3,0.6,0.4c4.2,2.5,8.5,4.9,12.6,7.4
		c9.8,5.9,19.5,12,28.6,19.2c3.1,2.5,6.2,5,8.5,8.3c0.6,0.9,1.3,1.4,2.2,1.7c6.2,2.3,11.9,0.9,17-2.9c16.3-12.1,32.2-24.9,50.4-33.7
		c0.2-0.1,0.3-0.6,0.2-0.7c-1.5-2.8-3.1-5.6-4.5-8.5c-1.3-2.7-2.5-5.4-3.6-8.1c-1.1-2.5-2.3-4.9-3-7.6c-0.6-2.2-1.5-4.3-2.2-6.4
		c-0.5-1.5-1-3.1-1.2-4.6c-0.3-1.7-0.3-3.5-0.6-5.3c-0.5-3.2-1.1-6.4-1.8-9.6c-0.8-3.6-2.2-7.1-3.8-10.4c-0.5-1.1-1.1-2.1-1.7-3.2
		c0.3,0,0.5-0.1,0.7,0c1.8,0.6,3.7,0.3,5.4-0.2c2.3-0.6,4.5-1.5,6.6-2.6c3.2-1.6,5.9-3.8,8.4-6.4c0.5-0.5,0.5-0.9,0-1.4
		c-1.7-1.8-3.6-3.2-5.8-4.4c0.3-0.2,0.5-0.4,0.7-0.5c1.9-0.6,3.7-1.6,5.4-2.7c2.7-1.7,4.9-3.8,6.6-6.6c1.4-2.4,2.6-4.9,2.3-7.8
		c-0.2-1.7-0.6-3.4-1.3-4.9c-1.7-3.5-3.5-7-5.5-10.3c-2.4-3.9-5.1-7.7-7.7-11.4c-0.8-1.1-1.9-2.1-2.9-3.1c-0.6-0.6-1.3-0.8-2-0.2
		C137.1,9.7,137,10.4,137.2,11.1 M47.9,57c-1.6,0.3-3.3,0.4-4.9,0.8c-2.1,0.6-4,1.3-6.1,2c-0.7,0.2-1.3,0.5-1.9,0.8
		c-0.1-0.1-0.1-0.1-0.2-0.2c0.2-0.2,0.3-0.5,0.5-0.7c2.3-1.9,4.8-3.3,7.6-4.2c3.4-1.2,6.8-1.5,10.3-1.1c1.9,0.2,2.7-0.9,3.5-2.1
		c1.2-1.8,1.9-3.9,1.7-6.1c-0.1-0.7-0.3-1.3-0.5-2c-0.1-0.4-0.3-0.9-0.5-1.4c1.2-0.2,2.3-0.3,3.4-0.4c1.7-0.1,3.2,0.6,4.4,1.7
		c1.3,1.1,2.6,2.3,3.9,3.5c0.1,0.1,0.3,0.2,0.5,0.4c-0.2-1.3-0.3-2.5-0.5-3.8c-0.3-2.2,0.9-3.7,2.6-4.7c2.4-1.5,5.1-2.4,7.8-3.2
		c4.5-1.2,9.1-1.4,13.7-1c2.1,0.2,4.2,0.9,6.3,1.4c2.3,0.5,4.4,1.5,6.5,2.7c2.5,1.4,3.4,4,2.5,6.8c-0.2,0.5-0.2,1.1-0.4,2
		c0.8-0.7,1.4-1.3,2-1.9c1.4-1.1,2.8-2.3,4.3-3.3c1.3-0.8,2.8-0.8,4.3-0.4c0.5,0.1,1.1,0.2,1.7,0.3c-0.2,0.7-0.3,1.4-0.6,2.1
		c-0.9,2.7,0,5,1.3,7.2c0.1,0.1,0.1,0.2,0.2,0.3c0.8,1.5,1.9,2.1,3.7,2c4.7-0.5,9.3,0.3,13.5,2.6c1.6,0.9,3.1,2,4.7,3.1
		c0,0.1-0.1,0.3-0.1,0.4c-0.3,0-0.7,0-1-0.1c-3-1.4-6-2.5-9.2-2.9c-2.1-0.3-4.3-0.6-6.5-0.6c-2.3,0-3.3,0.3-5.4,1.4
		c-0.8-1.4-1.6-2.8-2.3-4.2c-0.8-1.4-1.5-2.8-2.2-4.2c-0.2-0.4-0.3-0.5-0.8,0c-0.6,0.7-0.5,1.3-0.2,2c0.9,2.7,1.7,5.4,1.8,8.3
		c0.1,1.4-0.4,2.2-1.4,3c-4,3.4-8.1,6.5-12.5,9.3c-2.1,1.4-4.4,1.9-6.9,1.2c-0.2-0.1-0.5-0.1-0.8-0.1c-0.1,0.1-0.1,0.2-0.2,0.2
		c0.6,0.6,1.1,1.3,1.7,1.8c0.8,0.7,1.8,1.2,2.7,1.8c1.1,0.8,1.4,2.1,1.8,3.3c0.6,1.9,1.2,3.8,1.7,5.7c0.4,1.6,0.8,3.2,1.2,4.7
		c0.4,1.8,0.9,3.6,1.3,5.4c0.2,0.8,0.3,1.5,0.4,2.3c0.5,2.4,1,4.9,1.5,7.3c0,0.2,0,0.4,0,0.7c0.1,1.1,0.2,2.2,0.3,3.3
		c0.1,1.5-0.4,2.6-1.5,3.6c-1.7,1.6-3.6,2.7-5.7,3.6c-0.1,0-0.2,0.1-0.3,0.1c-0.1,0-0.2,0-0.6,0c0.3-0.9,0.5-1.8,0.9-2.5
		c0.6-1.3,1.3-2.7,2.6-3.4c0.1,0,0.1-0.1,0.2-0.1c0.7-0.1,1.3,0,1.4-1.1c0.1-0.7,0.2-1.3,0-1.9c-0.3-0.6-1.1-1.3-2.1-1.2
		c-1.1,0.1-2.2,0.4-2.9,1.6c-1.2,2-2.6,3.8-3.8,5.7c-0.9,1.5-2.4,1.8-3.9,2.2c-1,0.3-2.1,0.5-3.1,0.7c-0.3,0.1-0.7,0.1-1,0.1
		c-1.8-0.4-3.6-0.8-5.4-1.3c-1.5-0.4-2.2-1.8-3-3.1c-1-1.6-2-3.2-3.1-4.8c-0.8-1.1-3-1.8-4.2-0.6c-0.4,0.4-0.8,1.3-0.7,1.8
		c0.1,0.7,0.1,1.7,1.4,1.8c0.7,0.1,1.4,0.9,1.9,1.6c1,1.3,1.6,2.8,1.9,4.7c-1.1-0.4-2-0.7-2.8-1.2c-1.5-1-2.9-2.1-4.3-3.3
		c-1-0.8-1-2-0.9-3.2c0.1-0.4,0.1-0.8,0.2-1.3c0.4-2.3,0.7-4.7,1.1-7c0.3-1.6,0.6-3.1,0.9-4.7c0.4-1.7,0.9-3.4,1.3-5.2
		c0.4-1.5,0.8-3.1,1.2-4.6c0.4-1.5,0.8-2.9,1.2-4.4c0.3-1,0.8-1.9,1-2.8c0.3-1.7,1.5-2.5,2.7-3.3c1.1-0.7,2.3-1.2,2.9-2.5
		c0.1-0.1,0.1-0.3,0.2-0.6c-0.9,0.2-1.6,0.3-2.4,0.4c-2.3,0.3-4.3-0.7-6.2-2c-3.4-2.4-6.7-4.9-10-7.4c-0.6-0.4-1-1-1.6-1.3
		c-2-1.3-1.5-3.3-1.3-5.2c0.1-0.8,0.4-1.7,0.6-2.5c0.4-1.3,0.6-2.7,1.1-4c0.4-1,0-1.5-0.7-2.3c-0.4,0.6-0.8,1.1-1.1,1.7
		c-1.1,2.1-2.3,4.3-3.4,6.4C57,58,56.8,58.2,56,57.9C53.4,56.8,50.7,56.4,47.9,57 M66.9,91.3c-3-2.5-6.1-5-9-7.6
		c-0.5-0.4-0.8-1.3-0.8-1.9c-0.3-3.1,0.9-5.8,2.2-8.4c0.2-0.5,0.5-0.9,0.9-1.6c0.8,2,2.2,3.2,4,4c1.7,0.7,3.4,1.3,5.2,2
		c-0.5,1.1-1.6,1.6-2.8,2.2c1.3,0.8,2.6,1,5.3,0.8c-1,4-1.9,8-2.9,12.1C68.1,92.2,67.5,91.8,66.9,91.3 M86.1,68.4
		c-3.8-1.1-7.3-3-10.6-5.1c-0.1-0.1-0.2-0.1-0.3-0.2c-0.1-0.1-0.2-0.2-0.3-0.3c0-0.1,0-0.1,0.1-0.2c1,0.3,2.1,0.7,3.1,0.9
		c1.3,0.4,2.6,0.7,3.9,1c1,0.2,1.9,0.3,2.9,0.4c1.9,0.1,3-0.9,3.5-2.9c0.2-0.8,0.4-1.6,0.8-2.4c0.2,0.8,0.4,1.6,0.6,2.3
		c0.3,0.7,0.6,1.5,1.1,2.1c1.1,1.4,2.6,1,4,0.8c1.5-0.2,2.9-0.6,4.3-1c1.2-0.3,2.4-0.7,3.6-1.1c0.1,0,0.3,0,0.5,0.1
		c-0.5,0.4-1,0.9-1.6,1.2c-2.9,1.4-5.7,2.9-8.6,4.1C90.8,69,88.5,69.1,86.1,68.4 M118.9,54c0.8,1.4,1.5,2.8,2.3,4.2
		c2.1-1.1,3.1-1.4,5.4-1.4c2.2,0,4.3,0.3,6.5,0.6c3.2,0.4,6.3,1.5,9.2,2.9c0.3,0.1,0.7,0.1,1,0.1c0-0.1,0.1-0.3,0.1-0.4
		c-1.6-1-3.1-2.2-4.7-3.1c-4.2-2.3-8.8-3.1-13.5-2.6c-1.8,0.2-2.9-0.4-3.7-2c-0.1-0.1-0.1-0.2-0.2-0.3c-1.3-2.2-2.1-4.6-1.3-7.2
		c0.2-0.7,0.4-1.4,0.6-2.1c-0.7-0.1-1.2-0.1-1.7-0.3c-1.5-0.4-3-0.4-4.3,0.4c-1.5,0.9-2.9,2.1-4.3,3.3c-0.6,0.5-1.2,1.1-2,1.9
		c0.2-0.9,0.2-1.5,0.4-2c0.9-2.8,0-5.4-2.5-6.8c-2.1-1.2-4.2-2.2-6.5-2.7c-2.1-0.5-4.2-1.2-6.3-1.4c-4.6-0.4-9.2-0.2-13.7,1
		c-2.8,0.7-5.4,1.7-7.8,3.2c-1.7,1-2.8,2.5-2.6,4.7c0.2,1.2,0.3,2.5,0.5,3.8c-0.2-0.2-0.4-0.3-0.5-0.4c-1.3-1.2-2.6-2.4-3.9-3.5
		c-1.3-1.1-2.7-1.8-4.4-1.7c-1.1,0.1-2.2,0.3-3.4,0.4c0.2,0.5,0.4,1,0.5,1.4c0.2,0.7,0.4,1.3,0.5,2c0.3,2.3-0.5,4.3-1.7,6.1
		c-0.8,1.3-1.6,2.4-3.5,2.1c-3.5-0.4-6.9-0.1-10.3,1.1c-2.8,1-5.3,2.3-7.6,4.2c-0.2,0.2-0.3,0.5-0.5,0.7c0.1,0.1,0.1,0.1,0.2,0.2
		c0.6-0.3,1.3-0.5,1.9-0.8c2-0.7,4-1.5,6.1-2c1.6-0.4,3.3-0.5,4.9-0.8c2.8-0.6,5.5-0.2,8.1,0.9c0.7,0.3,1,0.2,1.3-0.4
		c1.1-2.1,2.2-4.3,3.4-6.4c0.3-0.6,0.7-1.1,1.1-1.7c0.6,0.8,1.1,1.3,0.7,2.3c-0.5,1.3-0.8,2.6-1.1,4c-0.2,0.8-0.5,1.7-0.6,2.5
		c-0.1,1.9-0.6,3.9,1.3,5.2c0.6,0.4,1,0.9,1.6,1.3c3.3,2.5,6.6,5,10,7.4c1.8,1.3,3.9,2.2,6.2,2c0.8-0.1,1.5-0.3,2.4-0.4
		C82.1,73.9,82,74,82,74.1c-0.6,1.3-1.8,1.8-2.9,2.5c-1.2,0.8-2.4,1.6-2.7,3.3c-0.2,1-0.7,1.9-1,2.8c-0.4,1.4-0.8,2.9-1.2,4.4
		c-0.4,1.5-0.8,3.1-1.2,4.6c-0.4,1.7-0.9,3.4-1.3,5.2c-0.3,1.5-0.7,3.1-0.9,4.7c-0.4,2.3-0.7,4.7-1.1,7c-0.1,0.4-0.2,0.8-0.2,1.3
		c-0.1,1.2-0.1,2.4,0.9,3.2c1.4,1.2,2.8,2.3,4.3,3.3c0.8,0.5,1.7,0.7,2.8,1.2c-0.3-2-1-3.4-1.9-4.7c-0.5-0.7-1.2-1.5-1.9-1.6
		c-1.3-0.1-1.3-1.1-1.4-1.8c-0.1-0.6,0.3-1.4,0.7-1.8c1.2-1.2,3.4-0.5,4.2,0.6c1.1,1.5,2.1,3.2,3.1,4.8c0.8,1.2,1.5,2.6,3,3.1
		c1.8,0.5,3.6,0.9,5.4,1.3c0.3,0.1,0.7,0,1-0.1c1-0.2,2.1-0.4,3.1-0.7c1.4-0.4,2.9-0.7,3.9-2.2c1.2-1.9,2.6-3.7,3.8-5.7
		c0.7-1.2,1.7-1.6,2.9-1.6c1-0.1,1.8,0.6,2.1,1.2c0.3,0.7,0.1,1.3,0,1.9c-0.1,1.1-0.8,1-1.4,1.1c-0.1,0-0.2,0.1-0.2,0.1
		c-1.4,0.7-2,2.1-2.6,3.4c-0.4,0.8-0.6,1.6-0.9,2.5c0.3,0,0.5,0,0.6,0c0.1,0,0.2,0,0.3-0.1c2.1-0.9,4-2,5.7-3.6
		c1.1-1,1.6-2.1,1.5-3.6c-0.1-1.1-0.2-2.2-0.3-3.3c0-0.2,0-0.4,0-0.7c-0.5-2.4-1-4.9-1.5-7.3c-0.2-0.8-0.3-1.5-0.4-2.3
		c-0.4-1.8-0.9-3.6-1.3-5.4c-0.4-1.6-0.8-3.2-1.2-4.7c-0.5-1.9-1.1-3.8-1.7-5.7c-0.4-1.2-0.7-2.5-1.8-3.3c-0.9-0.6-1.8-1.1-2.7-1.8
		c-0.6-0.5-1.2-1.2-1.7-1.8c0.1-0.1,0.1-0.2,0.2-0.2c0.3,0,0.5,0,0.8,0.1c2.5,0.7,4.8,0.2,6.9-1.2c4.3-2.8,8.5-5.9,12.5-9.3
		c0.9-0.8,1.4-1.7,1.4-3c-0.1-2.9-0.9-5.6-1.8-8.3c-0.2-0.7-0.4-1.3,0.2-2c0.4-0.5,0.6-0.3,0.8,0C117.4,51.2,118.1,52.6,118.9,54"/>
	<path class="st1" d="M87.4,174c-2,0-4-0.4-6-1.1c-0.9-0.3-1.7-0.9-2.3-1.8c-2.3-3.2-5.4-5.8-8.5-8.3C62,156.1,53,150.3,42,143.7
		c-2.8-1.7-5.7-3.4-8.5-5c-1.4-0.8-2.7-1.6-4.1-2.4c-0.2-0.1-0.3-0.2-0.5-0.3c-0.1,0-0.1-0.1-0.1-0.1l-0.1,0l1.2-2.3
		c1.1-2,2.1-4,3.1-5.9l0.2-0.4c0.6-1.1,1.2-2.3,1.7-3.5c0.4-1,0.9-2,1.3-3c0.2-0.6,0.5-1.2,0.7-1.7c0.2-0.6,0.5-1.1,0.7-1.6
		c0.4-1,0.9-2,1.3-3.1c0.3-0.7,0.5-1.4,0.7-2.1c0.1-0.4,0.3-0.9,0.4-1.3c0.3-0.9,0.6-1.8,0.9-2.7c0.7-1.9,1.4-3.8,1.9-5.8
		c0.3-1.3,0.5-2.6,0.6-3.9c0.1-0.8,0.2-1.7,0.3-2.5c0.1-0.4,0.1-0.8,0.2-1.2c0.4-2.6,0.9-5.3,1.5-7.9c0.7-2.7,1.5-5.5,2.6-8.3
		c0.6-1.5,1.3-2.9,2-4.3c0.3-0.6,0.6-1.2,0.9-1.9l0.1-0.2c0.1-0.1,0.1-0.2,0.2-0.4c-0.2,0-0.3,0.1-0.4,0.1c-0.4,0.1-0.7,0.2-1,0.2
		c-2.5,0.2-5.1-0.3-7.5-1.3c-1.9-0.8-3.9-1.7-5.8-2.8c-2.5-1.5-4.7-3.4-6.6-5.5c-0.2-0.2-0.3-0.4-0.3-0.6c0-0.3,0.2-0.4,0.4-0.6
		c1.4-1.2,2.8-2.3,4.3-3.5c0.4-0.3,0.8-0.7,1.3-1c-0.1,0-0.2-0.1-0.4-0.2c-0.4-0.2-0.8-0.4-1.3-0.5c-3.4-1.4-6.1-3.3-8.4-5.7
		c-2.1-2.2-3.5-4.9-4.4-8.1c-0.6-2.3-0.4-4.6,0.6-6.8c0.2-0.5,0.5-1,0.7-1.5c1.3-2.8,2.7-5.7,4.3-8.5c1.9-3.3,4.1-6.4,6.2-9.4
		l0.5-0.7c0.9-1.3,1.9-2.5,2.9-3.7c0.4-0.5,0.8-0.9,1.1-1.4c0.2-0.3,0.5-0.5,0.8-0.7l0.1-0.1C39,9,39.6,8.6,40.3,9.1
		c0.6,0.5,0.8,1.2,0.7,2c-0.7,3.5-1.3,6.6-1.8,9.5c-0.2,1.2-0.3,2.4-0.4,3.6c0,0.2,0,0.5-0.1,0.7c-0.1,0.7-0.1,1.5-0.1,2.2
		c0,0.9-0.1,1.8-0.2,2.8c-0.2,2.6,0.9,4.7,3.4,6.4c1.4,0.9,2.9,1.9,4.6,2.9c0.7,0.4,1.6,0.6,2.3,0.8c0.2,0.1,0.6-0.1,0.9-0.2
		c2.2-1.1,4.6-1.6,6.9-2.2c0.3-0.1,0.6-0.1,0.8-0.2c2.2-0.5,4.3-0.4,6.6,0.4c0.7,0.2,1.4,0.1,2.3-0.3c2.4-1.3,4.9-2.5,7.7-3.9
		c3.4-1.7,7.3-2.3,12-2.1l0.1,0c1.7,0.1,3.4,0.2,5.1,0.1c2.6-0.1,5.1,0,7.5,0.3c1.6,0.2,3.3,0.7,5.2,1.6c1.6,0.7,3.2,1.5,4.7,2.3
		c1.2,0.6,2.5,1.3,3.8,1.9c0.4,0.2,1,0.1,1.5,0c0.1,0,0.2,0,0.4-0.1c0.5-0.1,1-0.2,1.6-0.3c1-0.2,2-0.4,2.9-0.3
		c1.5,0,3.1,0.4,4.6,0.9c1,0.3,1.9,0.6,2.8,1c0.9,0.3,1.8,0.7,2.7,1c0.5,0.2,1.2-0.1,1.7-0.3c3-1.2,5.6-2.9,7.8-5.3
		c0.8-0.9,1.3-2,1.2-3.4c-0.1-3.1-0.3-6.5-0.7-10.3c-0.2-1.6-0.5-3.2-0.8-4.8c-0.1-0.5-0.2-0.9-0.3-1.4c-0.2-1-0.4-2.1-0.7-3.2l0,0
		c-0.2-0.8-0.1-1.5,0.4-1.9c0.6-0.5,1.4-0.5,2.1,0.2c0.2,0.2,0.4,0.4,0.6,0.6c0.8,0.8,1.6,1.6,2.3,2.5l0.6,0.8
		c2.4,3.4,4.9,7,7.1,10.6c1.8,2.9,3.5,6.1,5.5,10.3c0.8,1.8,1.2,3.6,1.3,4.9c0.3,2.9-1,5.5-2.3,7.8c-1.5,2.6-3.7,4.8-6.6,6.7
		c-2,1.2-3.7,2.1-5.4,2.7c-0.1,0-0.3,0.2-0.4,0.3c0,0-0.1,0.1-0.2,0.1c2.4,1.3,4.2,2.7,5.7,4.3c0.5,0.6,0.5,1,0,1.5
		c-2.6,2.8-5.4,4.9-8.4,6.4c-2.2,1.1-4.4,2-6.6,2.6c-1.6,0.5-3.6,0.8-5.5,0.2c-0.1,0-0.2,0-0.4,0c-0.1,0-0.1,0-0.2,0
		c0.2,0.3,0.3,0.6,0.5,0.9c0.4,0.8,0.8,1.5,1.1,2.2c1.8,3.7,3,7.1,3.8,10.4c0.7,3,1.2,6,1.8,9.6c0.1,0.8,0.2,1.7,0.3,2.5
		c0.1,0.9,0.2,1.8,0.3,2.7c0.3,1.6,0.8,3.2,1.2,4.6c0.3,0.9,0.6,1.7,0.9,2.5c0.5,1.3,1,2.6,1.3,3.9c0.6,2.2,1.5,4.3,2.4,6.3
		c0.2,0.4,0.4,0.9,0.6,1.3c0.2,0.5,0.4,1,0.6,1.5c0.9,2.2,1.9,4.5,3,6.6c0.9,1.8,1.8,3.5,2.7,5.2c0.6,1.1,1.2,2.2,1.8,3.3
		c0.1,0.1,0,0.4,0,0.5c0,0.1-0.1,0.3-0.3,0.4c-15.7,7.6-29.9,18.3-43.7,28.6c-2.2,1.7-4.5,3.4-6.8,5.1C94.9,172.7,91.2,174,87.4,174
		z M28.9,135.8C28.9,135.8,29,135.8,28.9,135.8c0.2,0.2,0.4,0.3,0.5,0.3c1.4,0.8,2.7,1.6,4.1,2.4c2.8,1.6,5.7,3.3,8.5,5
		c11,6.6,20,12.4,28.6,19.2c3.2,2.5,6.2,5.1,8.6,8.3c0.6,0.9,1.3,1.4,2.2,1.7c5.8,2.1,11.5,1.2,17-2.9c2.3-1.7,4.5-3.4,6.8-5.1
		c13.7-10.3,28-21,43.7-28.7c0,0,0.1-0.1,0.2-0.3c0.1-0.2,0.1-0.3,0-0.3c-0.6-1.1-1.2-2.2-1.8-3.3c-0.9-1.7-1.9-3.4-2.7-5.2
		c-1.1-2.2-2.1-4.5-3-6.7c-0.2-0.5-0.4-1-0.6-1.5c-0.2-0.4-0.4-0.9-0.6-1.3c-0.9-2-1.8-4.1-2.4-6.3c-0.3-1.3-0.8-2.6-1.3-3.9
		c-0.3-0.8-0.6-1.7-0.9-2.6c-0.5-1.5-1-3-1.2-4.6c-0.2-0.9-0.3-1.9-0.3-2.8c-0.1-0.8-0.2-1.7-0.3-2.5c-0.6-3.6-1.1-6.6-1.8-9.6
		c-0.7-3.3-2-6.7-3.8-10.3c-0.4-0.7-0.7-1.4-1.1-2.2c-0.2-0.3-0.3-0.7-0.5-1l-0.1-0.1l0.1,0c0.1,0,0.2,0,0.3,0c0.2,0,0.3-0.1,0.5,0
		c1.9,0.6,3.8,0.3,5.4-0.2c2.2-0.6,4.4-1.5,6.6-2.6c3-1.5,5.8-3.6,8.4-6.4c0.5-0.5,0.5-0.8,0-1.3c-1.6-1.7-3.4-3-5.8-4.4l-0.1-0.1
		l0.1-0.1c0.1-0.1,0.2-0.1,0.2-0.2c0.2-0.1,0.3-0.3,0.5-0.3c1.7-0.6,3.4-1.4,5.4-2.6c2.9-1.8,5-4,6.5-6.6c1.3-2.3,2.5-4.8,2.3-7.7
		c-0.1-1.3-0.4-3.1-1.3-4.9c-2-4.3-3.7-7.5-5.5-10.3c-2.2-3.6-4.7-7.2-7.1-10.6l-0.6-0.8c-0.6-0.9-1.5-1.7-2.3-2.5
		c-0.2-0.2-0.4-0.4-0.6-0.6c-0.6-0.6-1.3-0.7-1.9-0.2c-0.4,0.4-0.6,1-0.4,1.7l0,0c0.3,1.1,0.6,2.2,0.7,3.2c0.1,0.5,0.2,0.9,0.3,1.4
		c0.3,1.6,0.6,3.2,0.8,4.8c0.4,3.9,0.6,7.3,0.7,10.4c0,1.4-0.4,2.6-1.3,3.5c-2.3,2.3-4.8,4.1-7.9,5.3c-0.6,0.2-1.3,0.5-1.8,0.3
		c-0.9-0.3-1.8-0.6-2.7-1c-0.9-0.3-1.9-0.7-2.8-1c-1.4-0.4-3-0.8-4.5-0.9c-1,0-1.9,0.2-2.9,0.3c-0.5,0.1-1,0.2-1.6,0.3
		c-0.1,0-0.2,0-0.4,0.1c-0.6,0.1-1.1,0.2-1.6,0c-1.3-0.6-2.5-1.3-3.8-1.9c-1.5-0.8-3.1-1.6-4.7-2.3c-1.9-0.9-3.6-1.4-5.1-1.6
		c-2.4-0.3-4.9-0.4-7.5-0.3c-1.7,0.1-3.4,0-5.1-0.1l-0.1,0c-4.8-0.2-8.6,0.4-12,2.1c-2.7,1.3-5.2,2.6-7.6,3.9
		c-1,0.5-1.7,0.6-2.4,0.4c-2.3-0.8-4.4-0.9-6.5-0.4c-0.3,0.1-0.6,0.1-0.8,0.2c-2.3,0.5-4.7,1.1-6.9,2.2c-0.3,0.1-0.7,0.3-1,0.2
		c-0.8-0.2-1.6-0.4-2.4-0.8c-1.7-1-3.3-1.9-4.7-2.9c-2.6-1.8-3.8-3.9-3.5-6.6c0.1-0.9,0.1-1.8,0.2-2.7c0-0.7,0.1-1.5,0.1-2.2
		c0-0.2,0-0.5,0.1-0.7c0.1-1.2,0.2-2.4,0.4-3.6c0.5-2.8,1.1-5.9,1.8-9.5c0.2-0.8,0-1.3-0.6-1.8c-0.6-0.5-1.1-0.1-1.6,0.2l-0.1,0.1
		c-0.3,0.2-0.5,0.4-0.7,0.7c-0.4,0.5-0.8,0.9-1.1,1.4c-1,1.2-2,2.4-2.9,3.7L33.2,16c-2.1,3-4.3,6.2-6.2,9.4
		c-1.6,2.7-2.9,5.6-4.2,8.4c-0.2,0.5-0.5,1-0.7,1.5c-1.1,2.2-1.3,4.4-0.6,6.7c0.9,3.2,2.3,5.8,4.3,8c2.3,2.4,5,4.3,8.4,5.7
		c0.4,0.2,0.9,0.4,1.3,0.5c0.2,0.1,0.3,0.1,0.5,0.2l0.1,0.1l-0.1,0.1c-0.5,0.4-0.9,0.8-1.4,1.1c-1.5,1.2-2.9,2.4-4.3,3.5
		c-0.2,0.2-0.3,0.3-0.4,0.5c0,0.1,0.1,0.3,0.2,0.5c1.9,2.1,4.1,3.9,6.5,5.4c1.8,1.1,3.8,2,5.7,2.8c2.4,1,4.9,1.5,7.4,1.3
		c0.3,0,0.6-0.1,1-0.2c0.2,0,0.4-0.1,0.6-0.1l0.2,0l-0.1,0.2c-0.1,0.3-0.2,0.4-0.3,0.6l-0.1,0.2c-0.3,0.6-0.6,1.3-1,1.9
		c-0.7,1.4-1.4,2.8-2,4.3c-1.1,2.8-1.9,5.6-2.6,8.3c-0.6,2.6-1.1,5.3-1.5,7.9c-0.1,0.4-0.1,0.8-0.2,1.2c-0.1,0.8-0.2,1.7-0.3,2.5
		c-0.1,1.3-0.3,2.7-0.6,3.9c-0.5,2-1.2,3.9-1.9,5.8c-0.3,0.9-0.6,1.8-0.9,2.7c-0.1,0.4-0.3,0.9-0.4,1.3c-0.2,0.7-0.4,1.4-0.7,2.1
		c-0.4,1-0.9,2.1-1.3,3.1c-0.2,0.5-0.5,1.1-0.7,1.6c-0.2,0.6-0.5,1.2-0.7,1.7c-0.4,1-0.8,2-1.3,3c-0.5,1.2-1.2,2.4-1.8,3.5l-0.2,0.4
		c-1,2-2,3.9-3.1,5.9L28.9,135.8z M88.1,163.3c-1.3,0-2.6-0.3-3.8-0.9c-1.8-0.9-3.3-2.3-4.8-4.5c-1.6-2.4-2.6-5.1-3.6-7.9
		c-1.3-3.7-2.4-7-3.5-10.2c-0.4-1.1-0.7-2.2-1-3.3c-0.4-1.2-0.8-2.4-1.2-3.7c-0.1-0.3-0.4-0.6-0.7-0.9c-0.1-0.1-0.2-0.2-0.3-0.3
		c-0.8-0.8-1.5-1.6-2.3-2.4c-0.1-0.1-0.2-0.2-0.4-0.3c-0.1,0-0.1-0.1-0.2-0.2c0,0.5,0,0.9,0.1,1.4c0,1.1,0.1,2,0.2,3
		c0.1,1.2,0.3,2.4,0.6,3.5c0.2,1,0.4,1.9,0.6,2.9c0.1,0.7,0.3,1.3,0.4,2c0.2,1.1,0.4,2.1,0.6,3.1l0.2,1.2l-0.1,0
		c-2.7,0.6-4.8-0.5-6.3-1.6c-1.7-1.2-3.5-2.5-5.6-3.8c-0.5-0.3-0.9-0.6-1.4-0.9c-2-1.3-4-2.6-6.1-3.7c-2.4-1.3-4.8-2.5-7.2-3.6
		c-1-0.5-2.1-1-3.2-1.5c-0.2-0.1-0.3-0.2-0.5-0.3c-0.1-0.1-0.2-0.1-0.3-0.2l-0.1,0l0-0.1c3.2-5.4,5.7-10.1,7.4-15.6l0-0.1l0.1,0.1
		c1.2,0.8,2.3,1.6,3.5,2.4l2.3,1.6c0.1,0,0.1-0.1,0.2-0.2c-0.1-0.3-0.2-0.5-0.3-0.8c-0.2-0.6-0.4-1.1-0.6-1.7l-0.1-0.4
		c-0.4-1.5-0.8-3-1.2-4.5c-0.4-2-0.6-4-0.6-5.9c0-2,0.1-3.9,0.3-5.8c0.1-1.6,0.6-3.3,1.1-4.8c0.2-0.6,0.3-1.1,0.5-1.7
		c0.1-0.5,0.3-0.9,0.5-1.4c0.1-0.4,0.3-0.7,0.4-1.1c0.1-0.4,0.2-0.5,0.4-0.6c0.2,0,0.4,0.1,0.6,0.4c0.2,0.2,0.4,0.5,0.6,0.7
		c0.3,0.3,0.5,0.6,0.8,0.9c0.2,0.3,0.4,0.7,0.4,1.2c0,1.2,0,2.5-0.1,3.7c0,1.3-0.1,2.6-0.1,3.9c0,0.9,0,1.9,0.1,2.8
		c0.1,1.8,0.4,3.7,0.7,5.5c0.1,0.7,0.2,1.4,0.4,2.1c0.1,0.3,0.1,0.7,0.1,1c0.2,1.1,0.3,2.3,0.6,3.4c0.3,0.9,0.5,1.9,0.7,2.8
		c0.4,1.9,0.8,3.8,1.7,5.6c0.3,0.6,0.5,1.3,0.7,2c0.1,0.4,0.3,0.8,0.4,1.2l0,0c0,0.1,0.1,0.2,0.2,0.3c0,0,0,0,0,0c0,0,0,0,0,0
		c0,0,0,0,0,0c0,0,0,0,0,0c0,0,0.1,0.1,0.1,0.1c-0.1-0.7-0.2-1.3-0.3-1.9c-0.2-1.7-0.5-3.2-0.6-4.8c-0.2-1.7-0.2-3.4-0.2-5
		c0-0.2,0-0.4,0-0.6c0-1.9,0-3.8,0.2-5.6c0.1-1.3,0.4-2.6,0.6-3.8l0.1-0.4c0.1-0.3,0.4-0.7,0.7-0.9c1.4-0.7,2.9-1.4,4.3-2l0.9-0.4
		c0.1,0,0.1,0,0.2,0c0,0,0.1,0,0.2,0l0.1,0l0,0.1c0,0.2-0.1,0.5-0.1,0.7c-0.1,0.5-0.2,1.1-0.3,1.6c-0.2,0.7-0.3,1.4-0.5,2
		c-0.3,1.1-0.5,2.2-0.8,3.3c-0.1,0.3-0.1,0.6-0.1,0.9c0,1.1,0.3,2,0.6,2.8c0.1,0.4,0.2,0.7,0.2,1.1c0,0.3,0.1,0.6,0.1,0.9l0,0.1
		c0.8,2.7,1.6,5.4,3.1,7.8c0.4,0.7,1.1,1.3,2.1,1.9c0.6,0.4,0.9,0.8,1.2,1.3c0.6,1.2,1.2,2.4,1.8,3.6c0.9,1.9,1.9,3.9,2.9,5.8
		c1,2,2.7,3.3,4.9,3.8l0.3,0.1c2.1,0.5,4.3,0.9,6.5,1.1c1.3,0.1,2.7-0.2,4.1-0.4c0.2,0,0.4-0.1,0.6-0.1c1.5-0.3,3-0.7,4.4-1.1
		c2.2-0.6,3.3-2.5,4.2-4.3l0.5-1c1.1-2.1,2.2-4.3,3.2-6.6c0.5-1.1,1.2-1.8,2.3-2.6c1.4-0.9,2.1-2.6,2.6-4.1c0.1-0.4,0.3-0.7,0.4-1.1
		c0.6-1.6,1.2-3.2,1.6-4.9l0.1-0.4c0.3-1.4,0.6-2.8,0.6-4.2c0-0.9-0.1-1.9-0.5-2.8c-0.4-1.1-0.7-2.3-0.9-3.4
		c-0.1-0.5-0.2-0.9-0.3-1.4c0,0,0-0.1,0-0.1c0-0.1,0-0.2,0-0.3c0-0.1,0-0.2,0.1-0.3l0-0.1l0.7,0.4c1.1,0.5,2.1,1,3.1,1.5
		c0.2,0.1,0.5,0.2,0.9,0.3c1.5,0.4,1.7,1.7,1.9,2.9c0,0.1,0,0.3,0.1,0.4c0.4,2.1,0.5,4.1,0.5,6.2c0,1.6-0.1,3.2-0.1,4.8
		c0,0.7-0.1,1.3-0.1,2c-0.1,1.5-0.3,3.1-0.5,4.5c-0.1,0.6-0.2,1.2-0.2,1.8c0,0.1,0,0.1-0.1,0.2c0,0.1-0.1,0.2-0.1,0.3c0,0,0,0,0,0
		c0,0,0,0,0.1,0c0.1-0.1,0.2-0.2,0.3-0.3c0.2-0.7,0.5-1.3,0.7-2c0.6-1.9,1.3-3.8,1.8-5.7c0.8-3,1.4-6,1.8-8.2
		c0.2-0.9,0.2-1.8,0.3-2.7c0.1-1.1,0.2-2.2,0.4-3.3c0.4-1.8,0.5-3.6,0.5-5.4c0-1.4-0.1-2.8-0.1-4.2c0-0.6-0.1-1.1-0.1-1.7
		c0-0.1,0-0.1,0-0.2c0-1.4,0.7-2.2,1.4-3c0.2-0.3,0.5-0.5,0.7-0.8c0-0.1,0.1-0.1,0.2,0c0.1,0,0.5,0.1,0.5,0.3
		c0.6,1.5,1.1,3.1,1.5,4.2c1,3.1,1.3,6.2,1.3,9.5c0,1.2,0,2.5-0.1,3.8c-0.1,1.7-0.5,3.4-0.9,5.1c-0.1,0.2-0.1,0.4-0.2,0.6
		c-0.3,1-0.6,2.1-0.9,3.1c-0.2,0.5-0.3,1-0.5,1.6c0,0,0,0.1,0,0.1c0,0,0,0.1,0,0.2c0,0.1,0,0.2,0,0.3l1.2-0.9c1.5-1.1,3-2.1,4.6-3.2
		l0.1-0.1l0,0.1c1.9,6.2,5,11.6,7.4,15.6l0.1,0.1l-0.1,0c-12.1,5.1-22.4,12.3-31,18.7l0,0l0,0c-0.1,0-0.1-0.1-0.2-0.1l-0.1-0.1
		l0-0.1c0-0.2,0.1-0.4,0.1-0.5c0.1-0.5,0.2-1,0.3-1.5c0.2-0.9,0.4-1.8,0.6-2.6c0.1-0.5,0.3-1,0.4-1.5c0.3-1,0.6-2,0.7-3.1
		c0.4-1.9,0.6-3.8,0.8-5.5c0.1-1.2,0.3-2.5,0.4-3.7c0-0.5,0.1-1,0.1-1.4l-0.1,0c0,0-0.1-0.1-0.1-0.1c-0.1,0.1-0.3,0.3-0.4,0.4
		c-0.2,0.2-0.4,0.5-0.6,0.7c-0.2,0.2-0.3,0.4-0.5,0.5c-0.4,0.4-0.7,0.8-1.2,1.1l0,0c0,0,0,0,0,0c-0.8,0.5-1,1.2-1.2,2
		c0,0,0,0.1,0,0.1c0,0.1-0.1,0.2-0.1,0.3l-0.1,0.4c-0.5,1.7-1.1,3.4-1.7,5.1l-0.3,0.7c-1,2.4-2,5-3.2,7.3c-2.5,4.8-5.3,9.2-8.3,13
		C92.4,162.4,90.3,163.3,88.1,163.3z M66.2,128.5l0.1,0.1c0.1,0.1,0.3,0.2,0.4,0.3c0.2,0.1,0.3,0.2,0.4,0.3c0.7,0.8,1.5,1.6,2.3,2.4
		c0.1,0.1,0.2,0.2,0.3,0.3c0.3,0.3,0.6,0.6,0.7,0.9c0.4,1.2,0.8,2.5,1.2,3.7c0.3,1.1,0.7,2.2,1,3.3c1.1,3.2,2.2,6.5,3.5,10.2
		c1,2.8,2,5.5,3.6,7.9c1.5,2.2,3,3.6,4.7,4.4c3.3,1.6,7.3,0.9,9.3-1.6c3-3.8,5.8-8.1,8.3-12.9c1.2-2.3,2.2-4.8,3.2-7.3l0.3-0.7
		c0.7-1.7,1.2-3.4,1.7-5.1l0.1-0.4c0-0.1,0.1-0.2,0.1-0.3c0.3-0.9,0.5-1.7,1.4-2.3c0,0,0,0,0,0c0.4-0.3,0.8-0.7,1.1-1.1c0,0,0,0,0,0
		c0.2-0.2,0.3-0.4,0.5-0.5c0.2-0.2,0.4-0.4,0.6-0.7c0.1-0.2,0.3-0.3,0.4-0.5l0,0l0.1,0c0.1,0,0.1,0.1,0.2,0.1l0.2,0.1l0,0.1
		c0,0.5-0.1,1-0.1,1.5c-0.1,1.2-0.2,2.5-0.4,3.7c-0.2,1.7-0.4,3.6-0.8,5.5c-0.2,1-0.5,2.1-0.7,3.1c-0.1,0.5-0.3,1-0.4,1.4
		c-0.2,0.8-0.4,1.7-0.6,2.6c-0.1,0.5-0.2,1-0.3,1.5c0,0.2-0.1,0.3-0.1,0.5c0,0,0.1,0.1,0.1,0.1c8.5-6.4,18.8-13.6,30.9-18.6
		c-2.4-4-5.4-9.3-7.3-15.4c-1.6,1.1-3,2.1-4.5,3.2l-1.5,1V119c0-0.2,0-0.3,0-0.4c0-0.1,0-0.1,0-0.2c0-0.1,0-0.1,0-0.2
		c0.2-0.5,0.3-1,0.5-1.6c0.3-1,0.7-2,0.9-3.1c0.1-0.2,0.1-0.4,0.2-0.6c0.4-1.7,0.8-3.4,0.9-5.1c0-1.3,0.1-2.5,0.1-3.7
		c0-3.3-0.3-6.4-1.3-9.5c-0.4-1.2-0.9-2.7-1.5-4.2c0-0.1-0.4-0.2-0.5-0.2c-0.2,0.3-0.4,0.5-0.7,0.8c-0.7,0.8-1.4,1.5-1.4,2.9
		c0,0.1,0,0.1,0,0.2c0,0.6,0.1,1.1,0.1,1.7c0.1,1.4,0.1,2.8,0.1,4.2c0,1.8-0.1,3.7-0.5,5.5c-0.2,1.1-0.3,2.2-0.4,3.3
		c-0.1,0.9-0.1,1.8-0.3,2.7c-0.4,2.3-1,5.3-1.8,8.3c-0.5,1.9-1.2,3.9-1.8,5.7c-0.2,0.7-0.5,1.3-0.7,2c-0.1,0.1-0.2,0.3-0.3,0.4
		c-0.1,0-0.1,0.1-0.2,0.1l-0.1,0.1l0-0.2c0-0.1,0-0.1,0-0.2c0-0.2,0-0.3,0.1-0.4c0-0.1,0-0.1,0-0.2c0.1-0.6,0.2-1.2,0.2-1.8
		c0.2-1.5,0.4-3,0.5-4.5c0-0.7,0.1-1.3,0.1-2c0.1-1.6,0.1-3.2,0.1-4.8c0-2.1-0.1-4.1-0.5-6.2c0-0.1,0-0.3-0.1-0.4
		c-0.2-1.2-0.4-2.3-1.8-2.7c-0.4-0.1-0.7-0.2-0.9-0.3c-1-0.5-2-1-3.1-1.5l-0.5-0.3c0,0.1,0,0.2,0,0.2c0,0.1,0,0.2,0,0.3
		c0,0,0,0.1,0,0.1c0.1,0.5,0.2,0.9,0.3,1.4c0.2,1.1,0.5,2.3,0.9,3.4c0.4,1,0.5,1.9,0.5,2.9c0,1.4-0.3,2.8-0.6,4.2l-0.1,0.4
		c-0.4,1.7-1,3.3-1.6,4.9c-0.1,0.3-0.3,0.7-0.4,1c-0.6,1.5-1.2,3.2-2.7,4.2c-1.1,0.7-1.8,1.4-2.2,2.5c-1,2.2-2.1,4.4-3.2,6.6l-0.5,1
		c-0.9,1.8-2,3.7-4.3,4.4c-1.4,0.4-2.9,0.8-4.4,1.1c-0.2,0-0.4,0.1-0.6,0.1c-1.4,0.3-2.8,0.5-4.1,0.4c-2.2-0.2-4.4-0.6-6.6-1.1
		l-0.3-0.1c-2.2-0.5-3.9-1.8-5-3.9c-1-1.9-2-3.9-2.9-5.8c-0.6-1.2-1.2-2.4-1.8-3.6c-0.2-0.5-0.6-0.9-1.1-1.2c-1-0.7-1.7-1.3-2.1-2
		c-1.5-2.4-2.3-5.2-3.1-7.9l0-0.1c-0.1-0.3-0.1-0.6-0.2-0.9c0-0.4-0.1-0.8-0.2-1.1c-0.3-0.8-0.7-1.8-0.7-2.9c0-0.3,0-0.6,0.1-1
		c0.2-1.1,0.5-2.2,0.8-3.3c0.2-0.7,0.3-1.3,0.5-2c0.1-0.5,0.2-1.1,0.3-1.6c0-0.2,0.1-0.4,0.1-0.7c0,0-0.1,0-0.1,0c0,0-0.1,0-0.1,0
		l-0.9,0.4c-1.4,0.6-2.9,1.3-4.3,2c-0.3,0.1-0.6,0.5-0.6,0.8l-0.1,0.4c-0.3,1.2-0.5,2.5-0.6,3.8c-0.1,1.8-0.2,3.7-0.2,5.6
		c0,0.2,0,0.4,0,0.6c0,1.6,0,3.3,0.2,5c0.2,1.6,0.4,3.1,0.6,4.8c0.1,0.7,0.2,1.5,0.3,2.2l0,0.3l-0.2-0.3c-0.1-0.2-0.2-0.3-0.3-0.4
		c-0.1-0.2-0.3-0.3-0.3-0.5c-0.1-0.2-0.1-0.4-0.2-0.6c0,0,0,0,0,0c0,0,0,0,0,0c0,0,0,0,0,0c0-0.1,0-0.1-0.1-0.2c0,0,0,0,0,0
		c0,0,0,0,0,0c0,0,0,0,0,0c0,0,0,0,0,0c0,0,0,0,0,0c0,0,0,0,0,0c0,0,0,0,0,0c0-0.1,0-0.2-0.1-0.2c-0.2-0.7-0.4-1.3-0.7-2
		c-0.9-1.8-1.3-3.8-1.7-5.7c-0.2-0.9-0.4-1.9-0.7-2.8c-0.3-1.1-0.5-2.3-0.6-3.5c0-0.3-0.1-0.7-0.1-1c-0.1-0.7-0.2-1.4-0.3-2.1
		c-0.3-1.8-0.6-3.7-0.7-5.5c0-0.9-0.1-1.9-0.1-2.8c0-1.3,0-2.6,0.1-3.9c0-1.2,0.1-2.4,0.1-3.7c0-0.4-0.2-0.8-0.4-1.1
		c-0.2-0.3-0.5-0.6-0.8-0.9c-0.2-0.2-0.4-0.5-0.6-0.7c-0.1-0.2-0.3-0.4-0.4-0.4c0,0-0.1,0.1-0.2,0.4c-0.1,0.4-0.3,0.8-0.4,1.1
		c-0.2,0.4-0.4,0.9-0.5,1.3c-0.1,0.6-0.3,1.1-0.5,1.7c-0.5,1.6-0.9,3.2-1.1,4.8c-0.2,1.9-0.3,3.8-0.3,5.8c0,2,0.1,3.9,0.6,5.9
		c0.3,1.5,0.8,3,1.2,4.5l0.1,0.4c0.2,0.6,0.4,1.2,0.6,1.7c0.1,0.3,0.2,0.5,0.3,0.8l0,0.1l0,0c-0.1,0.1-0.2,0.2-0.3,0.2l0,0l-2.4-1.7
		c-1.1-0.8-2.2-1.5-3.4-2.4c-1.6,5.4-4.1,10.1-7.3,15.4c0.1,0.1,0.2,0.1,0.3,0.1c0.2,0.1,0.3,0.2,0.5,0.3c1.1,0.5,2.1,1,3.2,1.5
		c2.4,1.1,4.9,2.3,7.2,3.6c2.1,1.1,4.1,2.4,6.1,3.7c0.5,0.3,0.9,0.6,1.4,0.9c2,1.3,3.9,2.6,5.6,3.8c2.1,1.6,4,2.1,6.1,1.6l-0.2-1
		c-0.2-1-0.4-2.1-0.6-3.1c-0.1-0.7-0.3-1.3-0.4-2c-0.2-0.9-0.4-1.9-0.6-2.9c-0.2-1.1-0.4-2.3-0.6-3.6c-0.1-1-0.1-2-0.2-3
		c0-0.5,0-1-0.1-1.6L66.2,128.5z M125.5,90.2C125.5,90.2,125.5,90.2,125.5,90.2C125.5,90.2,125.5,90.2,125.5,90.2z M77.7,117.7
		l-0.1-0.1c-0.4-0.1-0.7-0.3-1-0.4c-0.7-0.2-1.3-0.5-1.8-0.8c-1.6-1.1-3.2-2.3-4.3-3.3c-0.8-0.6-1-1.5-1-2.4c0-0.3,0-0.6,0.1-0.9
		c0-0.2,0.1-0.5,0.1-0.7c0-0.2,0.1-0.4,0.1-0.5c0.1-0.8,0.2-1.6,0.4-2.4c0.2-1.5,0.5-3.1,0.7-4.6c0.3-1.6,0.6-3.2,0.9-4.7
		c0.3-1.2,0.6-2.5,0.9-3.7c0.1-0.5,0.3-1,0.4-1.5l0.3-1.3c0.3-1.1,0.6-2.2,0.9-3.3l0.1-0.5c0.3-1.3,0.7-2.6,1.1-3.9
		c0.1-0.4,0.3-0.8,0.4-1.2c0.2-0.5,0.4-1.1,0.5-1.6c0.3-1.6,1.5-2.5,2.8-3.4c0.2-0.2,0.5-0.3,0.7-0.4c0.9-0.5,1.7-1,2.1-2
		c0-0.1,0.1-0.2,0.1-0.3l0-0.1c-0.2,0-0.5,0.1-0.7,0.1c-0.5,0.1-1,0.2-1.5,0.3c-2,0.2-4-0.4-6.2-2c-2.6-1.8-5.2-3.8-7.7-5.7
		c-0.8-0.6-1.6-1.2-2.4-1.8c-0.2-0.2-0.5-0.4-0.7-0.6c-0.3-0.3-0.6-0.5-0.9-0.7c-1.2-0.8-1.5-1.9-1.5-3.1c0-0.5,0-0.9,0.1-1.4
		c0-0.2,0-0.5,0.1-0.7c0-0.6,0.2-1.3,0.4-1.9c0.1-0.2,0.1-0.4,0.2-0.6c0.1-0.3,0.2-0.7,0.3-1c0.2-1,0.5-2,0.9-2.9
		c0.1-0.2,0.1-0.5,0.1-0.7c0-0.5-0.3-0.9-0.7-1.4c-0.1,0.1-0.2,0.3-0.3,0.4c-0.3,0.4-0.5,0.8-0.7,1.2c-0.8,1.5-1.6,3.1-2.4,4.6
		c-0.3,0.6-0.6,1.2-0.9,1.8c-0.3,0.6-0.6,0.8-1.4,0.4c-2.7-1.1-5.4-1.4-8.1-0.9c-0.5,0.1-1.1,0.2-1.6,0.3c0,0,0,0,0,0c0,0,0,0,0,0
		c0,0-0.1,0-0.1,0c-0.1,0-0.1,0-0.2,0c0,0-0.1,0-0.1,0c-0.9,0.1-1.9,0.3-2.8,0.5c-1.5,0.4-3,0.9-4.4,1.4c-0.5,0.2-1.1,0.4-1.6,0.6
		c-0.5,0.2-0.9,0.3-1.3,0.5c-0.2,0.1-0.4,0.2-0.6,0.2l-0.1,0l0,0c0,0-0.1-0.1-0.1-0.1s-0.1-0.1-0.1-0.1l0,0l0-0.1
		c0.1-0.1,0.1-0.2,0.1-0.2c0.1-0.2,0.2-0.4,0.4-0.5c2.2-1.8,4.7-3.2,7.6-4.2c3.3-1.2,6.8-1.5,10.4-1.1c1.8,0.2,2.6-0.8,3.4-2.1
		c1.1-1.8,1.7-3.5,1.7-5.2c0-0.3,0-0.6-0.1-0.9c-0.1-0.5-0.2-1.1-0.4-1.6c0-0.1-0.1-0.2-0.1-0.4c-0.1-0.3-0.2-0.6-0.3-0.9
		c-0.1-0.2-0.1-0.3-0.2-0.5l0-0.1l0.1,0c0.4,0,0.7-0.1,1.1-0.1c0.8-0.1,1.5-0.2,2.3-0.3c1.6-0.1,3,0.4,4.5,1.7
		c0.9,0.7,1.7,1.5,2.5,2.2c0.5,0.4,0.9,0.8,1.4,1.2c0.1,0.1,0.2,0.2,0.3,0.2c0,0,0,0,0.1,0c-0.2-1.2-0.3-2.4-0.4-3.6
		c0-0.2,0-0.5,0-0.7c0-1.7,0.9-3.1,2.6-4.1c2.2-1.3,4.7-2.3,7.9-3.2c4.2-1.1,8.7-1.5,13.7-1c1.5,0.1,3,0.5,4.4,0.9
		c0.6,0.2,1.3,0.3,1.9,0.5c2.6,0.6,4.8,1.8,6.5,2.7C108,40.3,109,42,109,44c0,0.7-0.1,1.4-0.3,2.1c-0.1,0.4-0.2,0.7-0.3,1.2
		c0,0.2-0.1,0.4-0.1,0.6c0.2-0.2,0.4-0.4,0.5-0.5c0.5-0.4,0.8-0.8,1.3-1.2c0.3-0.2,0.6-0.5,0.9-0.7c1.1-0.9,2.2-1.8,3.4-2.5
		c1.2-0.7,2.7-0.9,4.4-0.5c0.3,0.1,0.7,0.1,1.1,0.2c0.2,0,0.4,0.1,0.6,0.1l0.1,0l0,0.1c-0.1,0.2-0.1,0.4-0.2,0.7
		c-0.1,0.5-0.2,1-0.4,1.4c-0.2,0.7-0.3,1.5-0.3,2.1c0,2,0.8,3.6,1.6,5c0,0,0.1,0.1,0.1,0.1c0,0.1,0.1,0.1,0.1,0.2
		c0.8,1.5,1.9,2.1,3.7,1.9c4.9-0.5,9.4,0.4,13.6,2.7c1.1,0.6,2.2,1.4,3.2,2.1c0.5,0.3,1,0.7,1.5,1l0,0l0,0.1c0,0.1,0,0.1,0,0.2
		c0,0.1,0,0.1,0,0.2l0,0.1l-0.1,0c-0.1,0-0.2,0-0.3,0c-0.2,0-0.5,0-0.7-0.1c-3.4-1.6-6.3-2.5-9.2-2.9l-0.7-0.1
		c-1.9-0.3-3.8-0.5-5.8-0.5c-2.3,0-3.2,0.3-5.4,1.4l-0.1,0l0-0.1c-0.2-0.4-0.5-0.9-0.8-1.4c-0.5-0.9-1-1.9-1.6-2.8
		c-0.3-0.6-0.6-1.2-0.9-1.7c0,0,0,0,0,0c0-0.1-0.1-0.1-0.1-0.2c0,0,0,0,0,0c0-0.1-0.1-0.1-0.1-0.2c-0.3-0.7-0.7-1.3-1.1-2
		c-0.1-0.2-0.2-0.3-0.2-0.3c-0.1,0-0.2,0.1-0.4,0.3c-0.3,0.3-0.4,0.6-0.4,1c0,0.3,0.1,0.6,0.2,0.9c0.9,2.6,1.7,5.4,1.8,8.4
		c0,0.1,0,0.1,0,0.2c0,1.2-0.4,2.1-1.4,2.9c-3.7,3.2-7.8,6.3-12.5,9.3c-2.3,1.5-4.6,1.9-7,1.2c-0.2,0-0.3-0.1-0.5-0.1
		c-0.1,0-0.1,0-0.2,0c0,0,0,0.1-0.1,0.1c0,0,0,0-0.1,0.1c0.2,0.2,0.3,0.4,0.5,0.5c0.4,0.4,0.8,0.9,1.2,1.2c0.5,0.4,1.1,0.7,1.6,1.1
		c0.4,0.2,0.7,0.5,1.1,0.7c1,0.7,1.3,1.7,1.6,2.8c0.1,0.2,0.1,0.4,0.2,0.6c0.6,1.9,1.2,3.8,1.7,5.7c0.3,1.1,0.6,2.2,0.8,3.3
		c0.1,0.5,0.2,1,0.4,1.5c0.1,0.6,0.3,1.2,0.5,1.8c0.3,1.2,0.6,2.4,0.9,3.6c0.1,0.5,0.2,0.9,0.3,1.4c0.1,0.3,0.1,0.6,0.2,0.9
		c0.2,1,0.4,1.9,0.6,2.9c0.3,1.5,0.6,2.9,0.9,4.4c0,0.1,0,0.3,0,0.4c0,0.1,0,0.2,0,0.3c0,0.4,0.1,0.8,0.1,1.2
		c0.1,0.7,0.1,1.4,0.2,2.1c0,0.2,0,0.3,0,0.4c0,1.2-0.5,2.3-1.5,3.2c-1.6,1.5-3.5,2.6-5.8,3.6c-0.1,0-0.3,0.1-0.4,0.1
		c-0.1,0-0.2,0-0.3,0c-0.1,0-0.2,0-0.3,0l-0.1,0l0-0.1c0.1-0.3,0.2-0.6,0.3-0.9c0.2-0.6,0.4-1.2,0.6-1.7c0.6-1.4,1.3-2.7,2.7-3.5
		c0,0,0,0,0.1-0.1c0.1,0,0.1-0.1,0.2-0.1c0.1,0,0.2,0,0.2,0c0.6,0,1.1-0.1,1.1-1c0-0.2,0-0.3,0.1-0.5c0-0.2,0.1-0.5,0.1-0.7
		c0-0.2,0-0.5-0.1-0.8c-0.3-0.6-1-1.2-2-1.1c-1,0.1-2.1,0.3-2.8,1.6c-0.7,1.2-1.5,2.3-2.3,3.5c-0.5,0.7-1,1.5-1.5,2.3
		c-0.9,1.4-2.3,1.8-3.7,2.2l-0.2,0c-0.8,0.2-1.7,0.4-2.5,0.6c-0.2,0-0.4,0.1-0.6,0.1c-0.3,0.1-0.7,0.1-1,0.1l-0.4-0.1
		c-1.6-0.4-3.3-0.8-5-1.2c-1.3-0.4-2.1-1.5-2.7-2.6c-0.1-0.2-0.2-0.3-0.3-0.5c-0.3-0.4-0.6-0.9-0.9-1.3c-0.7-1.1-1.5-2.3-2.3-3.4
		c-0.5-0.6-1.4-1.1-2.3-1.2c-0.5,0-1.2,0-1.8,0.6c-0.4,0.4-0.7,1-0.7,1.6c0,0.1,0,0.1,0,0.2c0,0.1,0,0.1,0,0.2
		c0.1,0.7,0.2,1.5,1.3,1.6c0.7,0.1,1.4,0.9,2,1.6c1,1.3,1.6,2.8,2,4.8L77.7,117.7z M69.6,110.8c0,0.8,0.2,1.6,0.9,2.2
		c1.2,1,2.7,2.2,4.3,3.3c0.5,0.3,1.1,0.6,1.8,0.8c0.3,0.1,0.6,0.2,0.9,0.3c-0.3-1.8-0.9-3.3-1.9-4.5c-0.5-0.6-1.2-1.5-1.9-1.5
		c-1.2-0.1-1.4-1-1.5-1.7c0-0.1,0-0.2,0-0.2c0-0.1,0-0.1,0-0.2c0-0.6,0.4-1.3,0.7-1.7c0.6-0.6,1.4-0.7,1.9-0.7
		c0.9,0.1,1.9,0.6,2.4,1.3c0.8,1.1,1.6,2.3,2.3,3.4c0.3,0.4,0.6,0.9,0.9,1.3c0.1,0.2,0.2,0.3,0.3,0.5c0.7,1.1,1.4,2.2,2.6,2.5
		c1.6,0.5,3.3,0.8,5,1.2l0.4,0.1c0.3,0.1,0.6,0,0.9-0.1c0.2,0,0.4-0.1,0.6-0.1c0.8-0.2,1.7-0.3,2.5-0.6l0.2,0
		c1.4-0.4,2.7-0.7,3.6-2.1c0.5-0.8,1-1.5,1.5-2.3c0.8-1.1,1.6-2.3,2.3-3.4c0.8-1.3,1.9-1.6,2.9-1.7c1.1-0.1,1.9,0.6,2.2,1.3
		c0.1,0.3,0.2,0.5,0.2,0.8c0,0.2,0,0.5-0.1,0.7c0,0.1,0,0.3-0.1,0.5c-0.1,1-0.7,1.1-1.3,1.1c-0.1,0-0.2,0-0.2,0c0,0-0.1,0-0.1,0.1
		c0,0-0.1,0.1-0.1,0.1c-1.3,0.7-2,2-2.6,3.4c-0.2,0.5-0.4,1.1-0.6,1.7c-0.1,0.2-0.2,0.5-0.2,0.8c0.1,0,0.1,0,0.2,0
		c0.1,0,0.2,0,0.3,0c0.1,0,0.2,0,0.3-0.1c2.2-0.9,4.1-2.1,5.7-3.6c1-0.9,1.5-1.9,1.5-3.1c0-0.1,0-0.3,0-0.4
		c-0.1-0.7-0.1-1.4-0.2-2.1c0-0.4-0.1-0.8-0.1-1.2c0-0.1,0-0.2,0-0.3c0-0.1,0-0.3,0-0.4c-0.3-1.5-0.6-2.9-0.9-4.4
		c-0.2-1-0.4-1.9-0.6-2.9c-0.1-0.3-0.1-0.6-0.2-0.9c-0.1-0.5-0.2-0.9-0.3-1.4c-0.3-1.2-0.6-2.4-0.9-3.6c-0.2-0.6-0.3-1.2-0.5-1.8
		c-0.1-0.5-0.2-1-0.4-1.5c-0.3-1.1-0.5-2.2-0.8-3.3c-0.5-1.9-1.1-3.8-1.7-5.7c-0.1-0.2-0.1-0.4-0.2-0.6c-0.3-1-0.7-2.1-1.6-2.7
		c-0.4-0.2-0.7-0.5-1.1-0.7c-0.5-0.3-1.1-0.7-1.6-1.1c-0.5-0.4-0.8-0.8-1.2-1.2c-0.2-0.2-0.3-0.4-0.5-0.6l0-0.1l0-0.1
		c0,0,0.1-0.1,0.1-0.1c0,0,0.1-0.1,0.1-0.1l0,0l0,0c0.1,0,0.2,0,0.2,0c0.2,0,0.4,0,0.6,0.1c2.3,0.7,4.6,0.3,6.8-1.2
		c4.7-3.1,8.8-6.1,12.5-9.3c1-0.8,1.4-1.6,1.4-2.8c0-0.1,0-0.1,0-0.2c-0.1-2.9-0.9-5.7-1.8-8.3c-0.1-0.4-0.2-0.7-0.2-1
		c0-0.4,0.1-0.7,0.5-1.1c0.2-0.2,0.4-0.3,0.5-0.3c0.2,0,0.3,0.2,0.4,0.4c0.4,0.7,0.7,1.4,1.1,2c0.4,0.7,0.8,1.4,1.1,2.2l0,0
		c0.4,0.8,0.9,1.6,1.3,2.3c0,0,0,0,0,0c0,0,0,0,0,0c0.1,0.1,0.1,0.2,0.2,0.3c0,0,0,0.1,0,0.1c0.2,0.4,0.5,0.9,0.7,1.3
		c2.1-1.1,3.1-1.3,5.4-1.4c1.9,0,3.9,0.3,5.8,0.5l0.7,0.1c2.9,0.4,5.8,1.3,9.2,2.9c0.2,0.1,0.4,0.1,0.7,0.1c0.1,0,0.2,0,0.3,0
		c0,0,0-0.1,0-0.1c0,0,0-0.1,0-0.1c-0.5-0.3-1-0.6-1.4-1c-1-0.7-2.1-1.5-3.2-2.1c-4.1-2.3-8.6-3.1-13.5-2.6c-1.8,0.2-3-0.4-3.8-2
		c0-0.1-0.1-0.1-0.1-0.2c0,0-0.1-0.1-0.1-0.1c-0.8-1.4-1.6-3.1-1.6-5.1c0-0.7,0.1-1.4,0.4-2.2c0.2-0.5,0.3-0.9,0.4-1.4
		c0-0.2,0.1-0.4,0.1-0.6c-0.2,0-0.4-0.1-0.5-0.1c-0.4-0.1-0.8-0.1-1.1-0.2c-1.7-0.4-3.1-0.3-4.2,0.4c-1.2,0.7-2.3,1.7-3.4,2.5
		c-0.3,0.2-0.6,0.5-0.9,0.7c-0.4,0.3-0.8,0.7-1.3,1.2c-0.2,0.2-0.5,0.5-0.7,0.7l-0.2,0.2l0-0.3c0.1-0.3,0.1-0.6,0.1-0.8
		c0.1-0.5,0.1-0.9,0.3-1.2c0.2-0.7,0.3-1.4,0.3-2c0-1.9-1-3.6-2.8-4.7c-1.7-1-4-2.2-6.5-2.7c-0.7-0.1-1.3-0.3-2-0.5
		c-1.4-0.4-2.9-0.7-4.4-0.9c-5-0.5-9.4-0.1-13.6,1c-3.2,0.9-5.7,1.9-7.8,3.2c-1.7,1-2.6,2.3-2.6,4c0,0.2,0,0.4,0,0.7
		c0.2,1.2,0.3,2.5,0.5,3.8l0,0.2l-0.2-0.1c-0.1-0.1-0.1-0.1-0.2-0.1c-0.1-0.1-0.2-0.2-0.3-0.3c-0.5-0.4-0.9-0.8-1.4-1.2
		c-0.8-0.7-1.7-1.5-2.5-2.2c-1.4-1.2-2.9-1.8-4.4-1.7c-0.7,0.1-1.5,0.2-2.3,0.3c-0.3,0-0.6,0.1-1,0.1c0,0.1,0.1,0.3,0.1,0.4
		c0.1,0.3,0.2,0.6,0.3,0.9c0,0.1,0.1,0.2,0.1,0.4c0.1,0.5,0.3,1.1,0.4,1.6c0,0.3,0.1,0.6,0.1,0.9c0,1.7-0.6,3.5-1.7,5.3
		c-0.8,1.3-1.7,2.4-3.6,2.2c-3.5-0.4-7-0.1-10.3,1.1c-2.9,1-5.4,2.4-7.6,4.2c-0.1,0.1-0.2,0.3-0.4,0.5c0,0.1-0.1,0.1-0.1,0.2
		c0,0,0,0,0,0c0,0,0,0,0,0c0.2-0.1,0.4-0.1,0.5-0.2c0.4-0.2,0.9-0.4,1.3-0.5c0.5-0.2,1.1-0.4,1.6-0.6c1.4-0.5,2.9-1,4.4-1.5
		c0.9-0.2,1.9-0.4,2.8-0.5c0.7-0.1,1.4-0.2,2.1-0.3c1.6-0.3,3.2-0.4,4.8-0.1c0,0,0,0,0,0c0,0,0,0,0,0c1.1,0.2,2.2,0.5,3.3,1
		c0.7,0.3,0.9,0.2,1.2-0.4c0.3-0.6,0.6-1.2,0.9-1.8c0.8-1.5,1.6-3.1,2.4-4.6c0.2-0.4,0.5-0.8,0.7-1.2c0.1-0.2,0.2-0.4,0.4-0.5
		l0.1-0.1l0.1,0.1c0.5,0.6,0.8,1.1,0.8,1.6c0,0.2,0,0.5-0.2,0.7c-0.4,0.9-0.6,1.9-0.9,2.9c-0.1,0.3-0.2,0.7-0.3,1
		c-0.1,0.2-0.1,0.4-0.2,0.6c-0.2,0.6-0.4,1.2-0.4,1.8c0,0.2,0,0.5-0.1,0.7c0,0.5-0.1,0.9-0.1,1.4c0,1.1,0.3,2.2,1.4,3
		c0.3,0.2,0.6,0.5,0.9,0.7c0.2,0.2,0.5,0.4,0.7,0.6c0.8,0.6,1.6,1.2,2.4,1.8c2.5,1.9,5.1,3.8,7.7,5.7c2.2,1.6,4.2,2.2,6.1,1.9
		c0.5-0.1,1-0.2,1.5-0.2c0.3-0.1,0.6-0.1,0.9-0.2l0.1,0l-0.2,0.4c-0.1,0.1-0.1,0.2-0.1,0.3c-0.5,1.1-1.3,1.6-2.2,2.1
		c-0.2,0.1-0.5,0.3-0.7,0.4c-1.3,0.8-2.4,1.7-2.7,3.2c-0.1,0.6-0.3,1.1-0.5,1.7c-0.1,0.4-0.3,0.8-0.4,1.2c-0.4,1.3-0.7,2.6-1,3.9
		l-0.1,0.5c-0.3,1.1-0.6,2.2-0.9,3.3l-0.3,1.3c-0.1,0.5-0.3,1-0.4,1.5c-0.3,1.2-0.6,2.5-0.9,3.7c-0.3,1.5-0.6,3.1-0.9,4.7
		c-0.3,1.5-0.5,3.1-0.7,4.6c-0.1,0.8-0.2,1.6-0.4,2.4c0,0.2-0.1,0.4-0.1,0.5c0,0.2-0.1,0.5-0.1,0.7
		C69.6,110.1,69.6,110.4,69.6,110.8z M69,92.9l-0.1-0.1c-0.3-0.2-0.5-0.4-0.7-0.5c-0.5-0.3-0.9-0.6-1.3-1c-0.5-0.5-1.1-0.9-1.6-1.4
		c-2.4-2-5-4.1-7.4-6.2c-0.5-0.4-0.8-1.3-0.9-2c0-0.3,0-0.6,0-1c0-2.5,0.9-4.7,1.9-6.8c0.1-0.3,0.2-0.5,0.4-0.8
		c0.1-0.3,0.3-0.6,0.5-1c0.1-0.2,0.2-0.4,0.4-0.6l0.1-0.1l0.1,0.2c0.8,1.8,2.1,3.1,3.9,3.9c1.2,0.5,2.3,0.9,3.6,1.4
		c0.5,0.2,1.1,0.4,1.6,0.6l0.1,0l0,0.1c-0.4,1-1.3,1.5-2.3,2c-0.1,0.1-0.2,0.1-0.4,0.2c1.3,0.7,2.6,0.9,5.1,0.7l0.1,0l0,0.1
		c-1,4-1.9,8-2.9,12.1L69,92.9z M57.8,83.6c0,0,0.1,0.1,0.1,0.1c2.4,2.1,4.9,4.2,7.4,6.2c0.5,0.5,1.1,0.9,1.6,1.4
		c0.4,0.3,0.8,0.6,1.3,1c0.2,0.1,0.4,0.3,0.6,0.5c1-4.1,1.9-7.9,2.8-11.9c-2.5,0.2-3.9,0-5.2-0.8l-0.1-0.1l0.1-0.1
		c0.2-0.1,0.3-0.2,0.5-0.3c0.9-0.5,1.8-1,2.2-1.8c-0.5-0.2-1-0.4-1.5-0.6c-1.2-0.5-2.4-0.9-3.6-1.4c-1.9-0.8-3.2-2.1-4-3.9
		c-0.1,0.2-0.2,0.3-0.3,0.5c-0.2,0.3-0.4,0.6-0.5,1c-1.1,2.2-2.2,4.7-2.2,7.5c0,0.3,0,0.6,0,0.9c0,0.1,0,0.2,0,0.2
		C57.2,82.6,57.5,83.2,57.8,83.6z M109.1,92.9l0-0.1c-1-4-1.9-8-2.9-12l0-0.1h0.1c0.3,0,0.6,0,0.9,0c0.6,0,1.3,0,1.9,0
		c0.6-0.1,1.1-0.2,1.7-0.4c0.2-0.1,0.4-0.1,0.6-0.2c-0.2-0.2-0.4-0.3-0.6-0.5c-0.6-0.5-1.1-0.9-1.7-1.3c-0.1-0.1-0.2-0.3-0.3-0.4
		c0-0.1-0.1-0.1-0.1-0.2l0-0.1l0.1,0c0.1,0,0.1-0.1,0.2-0.1c0.1-0.1,0.3-0.1,0.4-0.2c2.6-0.6,5.3-1.5,7.4-3.7l0,0
		c0.3-0.3,0.5-0.6,0.7-1c0,0,0-0.1,0.1-0.1c0.1-0.2,0.3-0.4,0.4-0.7l0.1-0.1l0.1,0.1c1.1,1.8,2.3,4.1,2.8,6.6
		c0.2,0.9,0.2,1.8,0.3,2.7l0,0.4c0,0.1,0,0.2,0,0.3c0,1.4-1,2.3-1.9,3c-3.5,2.9-6.9,5.7-9.5,7.9l0,0c-0.1,0.1-0.2,0.1-0.3,0.2
		c0,0,0,0,0,0C109.4,92.7,109.3,92.8,109.1,92.9L109.1,92.9z M106.4,80.8c0.9,3.9,1.9,7.8,2.8,11.8c0.1,0,0.1-0.1,0.2-0.1
		c0.1-0.1,0.2-0.1,0.3-0.1c2-1.7,4.6-3.8,7.3-6c0,0,0,0,0,0c0,0,0,0,0.1,0c0,0,0,0,0,0c0,0,0,0,0.1,0c0,0,0,0,0,0
		c0,0,0.1-0.1,0.1-0.1c0.1-0.1,0.2-0.2,0.3-0.3c0,0,0,0,0.1-0.1c0,0,0,0,0.1,0c0,0,0,0,0,0c0,0,0,0,0.1-0.1c0,0,0.1-0.1,0.1-0.1
		c0,0,0,0,0,0c0,0,0,0,0,0c0,0,0,0,0,0c0,0,0,0,0,0c0,0,0.1-0.1,0.1-0.1c0,0,0,0,0.1,0c0,0,0,0,0,0c0,0,0,0,0.1-0.1
		c0.3-0.2,0.5-0.4,0.8-0.6c1-0.8,1.8-1.6,1.8-2.8c0-0.1,0-0.2,0-0.3l0-0.4c-0.1-0.9-0.1-1.8-0.3-2.7c-0.5-2.4-1.6-4.6-2.7-6.4
		c-0.1,0.2-0.2,0.4-0.3,0.5c-0.3,0.4-0.5,0.8-0.8,1.1l0,0c-2.1,2.3-4.8,3.1-7.5,3.8c-0.1,0-0.3,0.1-0.4,0.2c0,0-0.1,0-0.1,0.1
		c0,0,0,0.1,0.1,0.1c0.1,0.1,0.1,0.3,0.2,0.4c0.5,0.4,1.1,0.9,1.7,1.3c0.2,0.2,0.5,0.4,0.8,0.6l0.1,0.1l-0.2,0
		c-0.3,0.1-0.5,0.1-0.8,0.2c-0.6,0.2-1.2,0.3-1.7,0.4c-0.6,0.1-1.2,0.1-1.9,0C106.9,80.8,106.6,80.8,106.4,80.8z M89.2,69
		c-1,0-2.1-0.2-3.1-0.5l0,0c-1-0.3-1.9-0.6-2.9-1c-2.9-1.2-5.5-2.7-7.8-4.1c-0.1-0.1-0.2-0.1-0.3-0.2c-0.1-0.1-0.2-0.2-0.3-0.2
		l-0.1-0.1l0-0.1c0,0,0-0.1,0-0.1c0,0,0-0.1,0-0.1l0-0.1l0.1,0c0.3,0.1,0.6,0.2,0.9,0.3c0.7,0.2,1.5,0.5,2.2,0.7
		c1.2,0.3,2.6,0.7,3.9,1c1.1,0.2,2,0.3,2.9,0.4c1.8,0.1,3-0.9,3.4-2.8c0.2-0.7,0.4-1.5,0.8-2.4l0.1-0.2l0.1,0.2
		c0.1,0.2,0.1,0.5,0.2,0.7c0.1,0.5,0.3,1.1,0.5,1.6c0.3,0.7,0.6,1.4,1,2c0.9,1.2,2.2,1,3.5,0.8c0.2,0,0.3,0,0.5-0.1
		c1.2-0.1,2.4-0.5,3.5-0.8c0.3-0.1,0.5-0.2,0.8-0.2c0,0,0,0,0.1,0c0.7-0.2,1.3-0.4,2-0.6c0,0,0,0,0,0c0.1,0,0.1,0,0.2-0.1
		c0,0,0.1,0,0.1,0c0.4-0.1,0.8-0.3,1.2-0.4c0.2-0.1,0.4,0,0.6,0.1l0.1,0.1l-0.1,0.1c-0.2,0.1-0.3,0.3-0.5,0.4
		c-0.4,0.3-0.7,0.6-1.1,0.8c-0.6,0.3-1.3,0.6-1.9,0.9c-2.2,1.1-4.5,2.3-6.8,3.2C91.7,68.7,90.5,69,89.2,69z M86.1,68.4
		c1.5,0.4,3,0.6,4.5,0.4c0.8-0.1,1.6-0.3,2.3-0.6c2.3-0.9,4.6-2.1,6.7-3.2c0.6-0.3,1.3-0.6,1.9-0.9c0.4-0.2,0.8-0.5,1.1-0.8
		c0.1-0.1,0.3-0.2,0.4-0.3c-0.2-0.1-0.3-0.1-0.4,0c-0.4,0.1-0.8,0.3-1.2,0.4c-0.8,0.2-1.5,0.5-2.3,0.7l0,0c-0.3,0.1-0.5,0.1-0.8,0.2
		c0,0,0,0,0,0c0,0,0,0,0,0c-1.1,0.3-2.3,0.6-3.5,0.8c-0.1,0-0.3,0-0.5,0.1c-1.2,0.2-2.6,0.4-3.6-0.9c-0.5-0.6-0.8-1.4-1.1-2.1
		c-0.2-0.5-0.3-1.1-0.5-1.6c0-0.2-0.1-0.3-0.1-0.5c-0.3,0.8-0.5,1.5-0.7,2.2c-0.5,2-1.7,3-3.6,3c-0.9,0-1.8-0.1-2.9-0.4
		c-1.3-0.3-2.6-0.6-3.9-1c-0.7-0.2-1.5-0.4-2.2-0.7c-0.3-0.1-0.6-0.2-0.8-0.3c0,0,0,0,0,0c0,0,0,0,0,0.1l0,0
		c0.1,0.1,0.2,0.2,0.3,0.2c0.1,0.1,0.2,0.2,0.3,0.2C78.4,65.1,82,67.2,86.1,68.4z M52.5,51.9c-0.3,0-0.7-0.1-1-0.2
		c-3.2-1.1-6-2.2-8.7-3.3c-2.5-1-5-2-7.6-3.1c-0.8-0.3-1.7-0.7-2.5-1.2c-1.4-0.9-2-2.4-2.5-3.8c-0.3-1-0.5-1.9-0.5-2.9
		c0-1.7,0.5-3.4,1-4.8c0.2-0.7,0.5-1.3,0.7-2c0,0,0,0,0,0c0,0,0,0,0-0.1c0,0,0,0,0-0.1c0.1-0.2,0.1-0.4,0.2-0.6c0,0,0,0,0-0.1
		c0,0,0,0,0-0.1c0-0.1,0-0.1,0.1-0.2c0.4-1.2,0.8-2.4,1.3-3.6c0.5-1.3,1.1-2.6,1.6-3.8c0.2-0.5,0.4-1,0.6-1.5
		c0.3-0.6,0.6-1.3,0.9-1.9l0.3-0.6l0.4,0.1l0,0.1c0,0.1,0,0.3,0,0.5c0,0.3,0,0.7-0.1,1c-0.1,1-0.3,2.1-0.4,3.1
		c-0.2,1.4-0.4,2.9-0.6,4.3c-0.1,1-0.2,2-0.3,3c-0.1,0.7-0.1,1.4-0.2,2.1c0,0.2,0,0.3,0,0.5c0,1.5,0.8,2.5,1.5,3.4
		c1.8,2,4,3.4,5.9,4.5c4,2.3,8.2,3.9,11.8,5.2c0.5,0.2,0.8,0.6,1,1.1c0.1,0.2,0.1,0.4,0.1,0.6c0,0.3-0.1,0.7-0.3,1
		c-0.6,1.1-1.4,2.1-2.4,3.1C53,51.8,52.8,51.9,52.5,51.9z M30.3,39.7c0,0.2,0.1,0.3,0.1,0.5c0.5,1.4,1.1,2.9,2.4,3.7
		c0.8,0.5,1.6,0.9,2.4,1.2c2.5,1.1,5,2.1,7.6,3.1c2.7,1,5.5,2.1,8.7,3.3c0.5,0.2,1.2,0.3,1.4,0.1c1-1,1.8-2.1,2.4-3.1
		c0.2-0.3,0.2-0.6,0.2-0.9c0-0.2,0-0.4-0.1-0.6c-0.2-0.5-0.5-0.8-0.9-1c-3.6-1.3-7.8-2.9-11.9-5.2c-1.9-1.1-4.2-2.5-6-4.6
		c-0.8-0.9-1.6-2-1.6-3.5c0-0.2,0-0.3,0-0.5c0.1-0.7,0.2-1.4,0.2-2.1c0.1-1,0.2-2,0.3-3c0.2-1.5,0.4-2.9,0.6-4.4
		c0.1-1,0.3-2.1,0.4-3.1c0-0.3,0.1-0.7,0.1-1c0-0.1,0-0.3,0-0.4l-0.2,0l-0.2,0.5c-0.3,0.6-0.6,1.3-0.9,1.9c-0.2,0.5-0.4,1-0.6,1.5
		c-0.5,1.2-1.1,2.5-1.6,3.8c-0.5,1.2-0.9,2.4-1.3,3.6c-0.3,1-0.7,2-1.1,3l0,0c-0.1,0.3-0.2,0.5-0.3,0.8
		C30.1,35.3,29.7,37.5,30.3,39.7z M125.7,51.8c-0.3,0-0.7-0.2-1-0.4c-0.6-0.7-1.4-1.5-2-2.5c-0.3-0.4-0.3-1.1-0.3-1.6c0,0,0,0,0,0
		c0-0.7,0.3-1.1,1-1.4c0.6-0.2,1.1-0.4,1.7-0.6c2.5-1,5.2-1.9,7.7-3.2c3.2-1.6,6.6-3.4,8.9-6.5c0.7-0.9,1-1.8,1-2.7
		c0-0.4-0.1-0.8-0.2-1.1c0-0.1,0-0.2,0-0.3c0-0.1,0-0.1,0-0.2c0-0.1,0-0.1,0-0.2c0-0.1,0-0.1,0-0.2c-0.3-2.8-0.7-5.7-1-8.9l0,0
		c-0.1-0.6-0.2-1.3-0.2-1.9c0-0.1,0-0.1,0-0.2c0,0,0-0.1,0-0.1c-0.1-0.5-0.1-0.9-0.2-1.4l0-0.1l0.5-0.1l0,0.1c0.2,0.5,0.5,1,0.7,1.6
		c0.5,1.1,1,2.3,1.5,3.4l0.3,0.6c0.9,2.1,1.8,4.3,2.5,6.6c0.1,0.4,0.3,0.8,0.4,1.1c0.6,1.9,1.3,3.9,1.3,6c0,0.4,0,0.8-0.1,1.2
		c-0.3,2.6-2.4,5.4-4.7,6.3c-1.5,0.6-3,1.2-4.4,1.8c-1.1,0.5-2.2,0.9-3.4,1.4c-1.9,0.7-3.9,1.5-5.7,2.2c-0.7,0.2-1.3,0.5-2,0.7
		c-0.2,0.1-0.3,0.1-0.5,0.2c-0.5,0.2-1,0.4-1.6,0.5C125.8,51.8,125.8,51.8,125.7,51.8z M122.6,47.3c0,0.5,0,1.2,0.3,1.5
		c0.6,1,1.4,1.9,2,2.5c0.2,0.2,0.7,0.4,1,0.3c0.5-0.1,1.1-0.3,1.6-0.5c0.2-0.1,0.3-0.1,0.5-0.2c0.7-0.2,1.3-0.5,2-0.7
		c1.9-0.7,3.8-1.4,5.7-2.2c1.1-0.4,2.3-0.9,3.4-1.4c1.4-0.6,2.9-1.2,4.4-1.8c2.2-0.8,4.2-3.5,4.6-6.1c0-0.4,0.1-0.8,0.1-1.2
		c0-2.1-0.7-4-1.3-5.9c-0.1-0.4-0.3-0.8-0.4-1.2c-0.7-2.2-1.6-4.4-2.5-6.6l-0.3-0.6c-0.5-1.1-1-2.3-1.5-3.4c-0.2-0.5-0.5-1-0.7-1.5
		l-0.2,0.1c0.1,0.4,0.1,0.9,0.2,1.3c0.1,0.7,0.2,1.5,0.3,2.2l0,0c0.4,3,0.7,5.8,1,8.4c0,0.2,0,0.3,0.1,0.5c0,0.1,0,0.1,0,0.2
		c0,0.1,0,0.1,0,0.2c0,0.1,0,0.1,0,0.2c0,0.1,0,0.2,0,0.3c0.1,0.4,0.2,0.8,0.2,1.2c0,0.9-0.4,1.8-1.1,2.8c-2.4,3.2-5.8,5-9,6.5
		c-2.5,1.2-5.1,2.2-7.7,3.2c-0.6,0.2-1.1,0.4-1.7,0.6C122.8,46.3,122.6,46.6,122.6,47.3C122.6,47.3,122.6,47.3,122.6,47.3
		L122.6,47.3z"/>
	<path class="st0" d="M141.6,22c-0.1-1.2-0.3-2.4-0.4-3.6c0.1,0,0.2-0.1,0.3-0.1c0.7,1.6,1.5,3.3,2.2,5c1,2.4,2,4.7,2.7,7.2
		c0.9,2.7,2,5.3,1.6,8.3c-0.3,2.6-2.3,5.3-4.6,6.2c-2.6,1-5.2,2.1-7.8,3.1c-2.6,1-5.2,1.9-7.7,2.9c-0.7,0.3-1.4,0.6-2.1,0.7
		c-0.3,0.1-0.8-0.1-1-0.4c-0.7-0.8-1.4-1.6-2-2.5c-0.3-0.4-0.3-1.1-0.3-1.6c0-0.6,0.3-1.1,1-1.3c3.1-1.2,6.3-2.3,9.4-3.8
		c3.3-1.6,6.6-3.4,9-6.5c0.9-1.1,1.3-2.4,0.9-3.9c-0.1-0.3,0-0.6,0-0.8C142.3,27.9,141.9,25,141.6,22"/>
	<path class="st1" d="M125.7,51.9c-0.4,0-0.8-0.2-1-0.4c-0.6-0.7-1.4-1.5-2-2.5c-0.3-0.4-0.3-1.1-0.3-1.7c0-0.7,0.3-1.2,1.1-1.5
		c0.6-0.2,1.1-0.4,1.7-0.6c2.5-1,5.2-1.9,7.7-3.1c3.2-1.6,6.5-3.4,8.9-6.5c1-1.3,1.2-2.5,0.8-3.7c-0.1-0.2-0.1-0.4,0-0.6
		c0-0.1,0-0.2,0-0.3c-0.3-3-0.7-5.9-1-8.9c-0.1-0.7-0.2-1.5-0.3-2.2l-0.2-1.5l0.6-0.2l0.1,0.1c0.2,0.5,0.5,1,0.7,1.5
		c0.5,1.1,1,2.3,1.5,3.4l0.2,0.6c0.9,2.1,1.8,4.4,2.5,6.6c0.1,0.4,0.3,0.8,0.4,1.1c0.8,2.3,1.6,4.6,1.2,7.2
		c-0.3,2.7-2.4,5.4-4.7,6.3c-1.5,0.6-3,1.2-4.4,1.8c-1.1,0.5-2.2,0.9-3.4,1.4c-1.9,0.7-3.9,1.5-5.8,2.2c-0.7,0.2-1.3,0.5-2,0.7
		c-0.2,0.1-0.3,0.1-0.5,0.2c-0.5,0.2-1.1,0.4-1.6,0.5C125.8,51.9,125.8,51.9,125.7,51.9 M141.7,22c0.4,3,0.7,5.9,1,8.9
		c0,0.1,0,0.3,0,0.4c0,0.2,0,0.3,0,0.4c0.4,1.4,0.2,2.7-0.9,4.1c-2.4,3.2-5.8,5-9,6.6c-2.5,1.2-5.1,2.2-7.7,3.2
		c-0.6,0.2-1.1,0.4-1.7,0.6c-0.6,0.2-0.9,0.6-0.9,1.2c0,0.5,0,1.1,0.3,1.5c0.6,1,1.4,1.8,2,2.5c0.2,0.2,0.6,0.4,0.9,0.3
		c0.5-0.1,1-0.3,1.6-0.5c0.2-0.1,0.3-0.1,0.5-0.2c0.7-0.2,1.3-0.5,2-0.7c1.9-0.7,3.8-1.4,5.8-2.2c1.1-0.4,2.3-0.9,3.4-1.4
		c1.4-0.6,2.9-1.2,4.4-1.8c2.2-0.8,4.2-3.5,4.5-6c0.3-2.5-0.5-4.8-1.2-7.1c-0.1-0.4-0.3-0.8-0.4-1.2c-0.7-2.2-1.6-4.4-2.5-6.6
		l-0.2-0.6c-0.5-1.1-1-2.3-1.5-3.4c-0.2-0.5-0.4-0.9-0.7-1.4l-0.1,0l0.1,1.2C141.6,20.5,141.6,21.3,141.7,22"/>
	<path class="st2" d="M118,71.8c1.3,2.2,2.3,4.2,2.7,6.6c0.2,1,0.3,2,0.4,3c0.1,1.5-0.8,2.4-1.8,3.2c-3.2,2.6-6.4,5.2-9.5,7.9
		c-0.1,0.1-0.3,0.1-0.6,0.3c-1-4-1.9-8-2.9-12c1,0,1.9,0.1,2.8,0c0.8-0.1,1.6-0.4,2.5-0.6c-0.9-0.7-1.7-1.3-2.4-1.9
		c-0.2-0.1-0.2-0.4-0.3-0.6c0.2-0.1,0.4-0.2,0.6-0.3c2.7-0.7,5.4-1.5,7.4-3.8C117.2,73.1,117.5,72.5,118,71.8"/>
	<path class="st3" d="M102.7,62.7c0.1,0,0.3,0,0.5,0.1c-0.5,0.4-1,0.9-1.6,1.2c-2.9,1.4-5.7,2.9-8.6,4.1c-2.2,0.9-4.5,1-6.9,0.3
		c-3.8-1.1-7.3-3-10.6-5.1c-0.1-0.1-0.2-0.1-0.3-0.2c-0.1-0.1-0.2-0.2-0.3-0.3c0-0.1,0-0.1,0.1-0.2c1,0.3,2.1,0.7,3.1,0.9
		c1.3,0.4,2.6,0.7,3.9,1c1,0.2,1.9,0.3,2.9,0.4c1.9,0.1,3-0.9,3.5-2.9c0.2-0.8,0.4-1.6,0.8-2.4c0.2,0.8,0.4,1.6,0.6,2.3
		c0.3,0.7,0.6,1.5,1.1,2.1c1.1,1.4,2.6,1,4,0.8c1.5-0.2,2.9-0.6,4.3-1C100.3,63.5,101.5,63.1,102.7,62.7"/>
	<path class="st2" d="M59.2,73.3c0.2-0.5,0.5-0.9,0.9-1.6c0.8,2,2.2,3.2,4,4c1.7,0.7,3.4,1.3,5.2,2c-0.5,1.1-1.6,1.6-2.8,2.2
		c1.3,0.8,2.6,1,5.3,0.8c-1,4-1.9,8-2.9,12.1c-0.8-0.6-1.4-1-2-1.5c-3-2.5-6.1-5-9-7.6c-0.5-0.4-0.8-1.3-0.8-1.9
		C56.7,78.7,57.9,76,59.2,73.3"/>
	<path class="st0" d="M36.9,18.2c0,0.5,0,1-0.1,1.4c-0.3,2.5-0.7,5-1,7.5c-0.2,1.7-0.4,3.4-0.6,5.1c-0.2,1.6,0.5,2.9,1.5,4
		c1.7,1.9,3.8,3.3,6,4.6c3.8,2.1,7.8,3.7,11.9,5.2c0.9,0.3,1.4,1.6,0.8,2.6c-0.7,1.1-1.5,2.2-2.4,3.1c-0.2,0.3-1,0.1-1.5-0.1
		c-2.9-1-5.8-2.1-8.7-3.3c-2.5-1-5.1-2-7.6-3.1c-0.8-0.4-1.7-0.7-2.5-1.2c-1.3-0.9-1.9-2.3-2.4-3.8c-0.9-2.6-0.4-5.1,0.5-7.6
		c0.8-2.2,1.5-4.5,2.3-6.7c0.7-1.8,1.5-3.6,2.2-5.3c0.4-0.8,0.7-1.6,1.1-2.4C36.7,18.2,36.8,18.2,36.9,18.2"/>
	<path class="st1" d="M52.5,52c-0.4,0-0.8-0.1-1.1-0.2c-3.2-1.1-6-2.2-8.7-3.3c-2.5-1-5-2-7.6-3.1c-0.8-0.3-1.7-0.7-2.5-1.2
		c-1.4-0.9-2-2.5-2.5-3.9c-1-2.8-0.3-5.5,0.5-7.7c0.4-1,0.7-2,1.1-3c0.4-1.2,0.8-2.4,1.3-3.6c0.5-1.3,1.1-2.6,1.6-3.8
		c0.2-0.5,0.4-1,0.6-1.5c0.3-0.6,0.6-1.3,0.8-1.9l0.3-0.7l0.6,0.1l0,0.1c0,0.1,0,0.3,0,0.4c0,0.3,0,0.7-0.1,1
		c-0.1,1-0.3,2.1-0.4,3.1c-0.2,1.4-0.4,2.9-0.6,4.4c-0.1,1-0.2,2-0.3,3c-0.1,0.7-0.1,1.4-0.2,2.1c-0.2,1.7,0.6,2.9,1.5,3.9
		c1.8,2,4,3.4,5.9,4.5c4,2.3,8.2,3.9,11.8,5.2c0.5,0.2,0.9,0.6,1.1,1.1c0.2,0.6,0.1,1.2-0.2,1.7c-0.6,1.1-1.4,2.1-2.4,3.1
		C53,51.9,52.8,52,52.5,52 M36.7,18.4l-0.2,0.4c-0.3,0.6-0.6,1.3-0.8,1.9c-0.2,0.5-0.4,1-0.6,1.5c-0.5,1.2-1.1,2.5-1.6,3.8
		c-0.5,1.2-0.9,2.4-1.3,3.6c-0.3,1-0.7,2-1.1,3c-0.8,2.2-1.5,4.8-0.5,7.5c0.5,1.4,1.1,2.8,2.4,3.7c0.8,0.5,1.6,0.9,2.4,1.2
		c2.5,1.1,5,2.1,7.6,3.1c2.7,1,5.5,2.1,8.7,3.3c0.6,0.2,1.2,0.2,1.3,0.1c1-1,1.8-2,2.4-3.1c0.3-0.4,0.3-0.9,0.1-1.4
		c-0.2-0.4-0.5-0.8-0.9-0.9c-3.6-1.3-7.9-2.9-11.9-5.2c-2-1.1-4.2-2.5-6-4.6c-0.9-1-1.8-2.3-1.6-4.1c0.1-0.7,0.2-1.4,0.2-2.1
		c0.1-1,0.2-2,0.3-3c0.2-1.5,0.4-2.9,0.6-4.4c0.1-1,0.3-2.1,0.4-3.1c0-0.3,0.1-0.7,0.1-1C36.7,18.6,36.7,18.5,36.7,18.4L36.7,18.4z"
		/>
	<path class="st2" d="M107.4,134.2c-0.6,1.8-1.1,3.7-1.9,5.5c-1.1,2.7-2.2,5.5-3.5,8c-2.4,4.6-5.1,8.9-8.3,13
		c-2.1,2.6-6.2,3.2-9.4,1.6c-2-1-3.5-2.6-4.8-4.5c-1.6-2.4-2.6-5.1-3.6-7.9c-1.2-3.4-2.3-6.8-3.5-10.2c-0.8-2.3-1.4-4.6-2.2-6.9
		c-0.2-0.4-0.6-0.8-0.9-1.2c-0.8-0.8-1.5-1.6-2.3-2.4c-0.1-0.1-0.3-0.2-0.7-0.6c0.1,1.7,0.1,3.2,0.2,4.6c0.1,1.2,0.3,2.4,0.6,3.6
		c0.3,1.6,0.7,3.3,1,4.9c0.3,1.4,0.6,2.9,0.8,4.3c-2.4,0.6-4.4-0.3-6.2-1.6c-1.8-1.3-3.7-2.6-5.6-3.8c-2.5-1.6-4.9-3.3-7.4-4.6
		c-3.4-1.8-6.9-3.4-10.4-5.1c-0.2-0.1-0.5-0.2-0.8-0.4c2.9-4.9,5.7-9.9,7.4-15.6c2,1.4,3.9,2.7,5.8,4.1c0.1-0.1,0.2-0.2,0.3-0.2
		c-0.3-0.8-0.6-1.7-0.9-2.5c-0.5-1.6-0.9-3.2-1.3-4.9c-0.8-3.9-0.6-7.8-0.3-11.7c0.2-2.2,1-4.4,1.5-6.5c0.2-0.8,0.6-1.6,0.9-2.5
		c0.2-0.8,0.5-0.5,0.8-0.1c0.5,0.6,1,1,1.4,1.6c0.2,0.3,0.4,0.7,0.4,1.1c0,3.5-0.2,7-0.1,10.5c0.1,2.6,0.7,5.1,1.1,7.7
		c0.2,1.5,0.4,3,0.8,4.5c0.8,2.8,1.1,5.8,2.4,8.5c0.5,1,0.7,2.1,1.1,3.2c0.1,0.2,0.3,0.4,0.6,0.8c-0.3-2.5-0.7-4.8-0.9-7
		c-0.2-1.7-0.2-3.3-0.2-5c0-2.1,0-4.2,0.2-6.2c0.1-1.4,0.4-2.8,0.7-4.2c0.1-0.3,0.4-0.7,0.7-0.8c1.7-0.8,3.4-1.6,5.2-2.4
		c0,0,0.1,0,0.3,0c-0.1,0.8-0.3,1.6-0.4,2.4c-0.4,1.8-0.9,3.6-1.3,5.4c-0.3,1.3,0.1,2.5,0.6,3.8c0.2,0.6,0.2,1.4,0.4,2
		c0.8,2.8,1.6,5.5,3.1,7.9c0.5,0.8,1.3,1.4,2.1,2c0.5,0.3,0.9,0.7,1.2,1.3c1.6,3.1,3.1,6.3,4.7,9.5c1.1,2.1,2.8,3.4,4.9,3.8
		c2.3,0.5,4.5,1,6.8,1.1c1.6,0.1,3.2-0.3,4.7-0.6c1.5-0.3,2.9-0.7,4.4-1.1c2.2-0.6,3.3-2.4,4.3-4.3c1.3-2.5,2.6-5,3.7-7.6
		c0.5-1.2,1.3-1.9,2.3-2.6c1.4-0.9,2.1-2.5,2.7-4.1c0.7-2,1.6-3.9,2-5.9c0.5-2.4,1.2-4.9,0.2-7.5c-0.6-1.5-0.8-3.2-1.2-4.8
		c0-0.2,0-0.4,0.1-0.8c1.3,0.6,2.5,1.2,3.7,1.8c0.3,0.1,0.6,0.2,0.9,0.3c1.6,0.4,1.7,1.9,1.9,3.2c0.8,4.3,0.4,8.7,0.3,13
		c-0.1,2.1-0.5,4.3-0.7,6.4c0,0.2-0.2,0.4-0.1,0.7c0.2-0.2,0.4-0.3,0.5-0.5c0.9-2.6,1.8-5.1,2.5-7.7c0.7-2.7,1.3-5.5,1.8-8.3
		c0.3-2,0.3-4,0.7-6c0.8-3.8,0.5-7.6,0.3-11.3c-0.1-2,1.2-2.8,2-3.9c0-0.1,0.5,0.1,0.6,0.2c0.5,1.4,1,2.8,1.5,4.2
		c1.4,4.3,1.4,8.8,1.2,13.2c-0.1,1.9-0.6,3.8-1,5.7c-0.4,1.6-1,3.1-1.4,4.6c0,0.1,0,0.3,0,0.8c2-1.4,3.9-2.8,5.9-4.2
		c1.7,5.6,4.4,10.7,7.4,15.6c-11.2,4.7-21.3,11.4-31,18.7c-0.1-0.1-0.2-0.1-0.2-0.2c0.1-0.7,0.3-1.4,0.4-2.1
		c0.2-0.9,0.4-1.7,0.6-2.6c0.4-1.5,0.8-3,1.1-4.5c0.3-1.8,0.6-3.7,0.8-5.5c0.2-1.7,0.3-3.5,0.5-5.2c-0.1-0.1-0.2-0.1-0.3-0.2
		c-0.4,0.4-0.7,0.8-1.1,1.1c-0.5,0.6-1,1.2-1.6,1.7C107.8,132.3,107.7,133.2,107.4,134.2"/>
	<g>
		<path class="st3" d="M30.4,40.2c0.5,1.5,1.1,2.9,2.4,3.8c0.8,0.5,1.6,0.9,2.5,1.2c2.5,1.1,5,2.1,7.6,3.1c2.9,1.1,5.8,2.2,8.7,3.3
			c0.5,0.2,1.2,0.3,1.5,0.1c0.9-0.9,1.7-2,2.4-3.1c0.6-1,0.1-2.2-0.8-2.6c-4.1-1.4-8.1-3-11.9-5.2c-2.2-1.2-4.3-2.6-6-4.6
			c-1-1.1-1.7-2.4-1.5-4c0.2-1.7,0.3-3.4,0.6-5.1c0.3-2.5,0.7-5,1-7.5c0.1-0.5,0.1-1,0.1-1.4c-0.1,0-0.2,0-0.3-0.1
			c-0.4,0.8-0.7,1.6-1.1,2.4c-0.8,1.8-1.6,3.5-2.2,5.3c-0.8,2.2-1.5,4.5-2.3,6.7C30,35.1,29.5,37.6,30.4,40.2 M119.2,84.6
			c1-0.8,1.9-1.7,1.8-3.2c-0.1-1-0.2-2-0.4-3c-0.5-2.3-1.5-4.4-2.7-6.6c-0.4,0.7-0.7,1.3-1.2,1.8c-2,2.2-4.7,3.1-7.4,3.8
			c-0.2,0.1-0.4,0.2-0.6,0.3c0.1,0.2,0.2,0.4,0.3,0.6c0.8,0.6,1.5,1.2,2.4,1.9c-0.8,0.2-1.7,0.5-2.5,0.6c-0.9,0.1-1.8,0-2.8,0
			c1,4,1.9,8,2.9,12c0.3-0.2,0.5-0.2,0.6-0.3C112.9,89.8,116.1,87.2,119.2,84.6 M122.8,48.9c0.6,0.9,1.3,1.7,2,2.5
			c0.2,0.2,0.7,0.4,1,0.4c0.7-0.2,1.4-0.5,2.1-0.7c2.6-1,5.2-1.9,7.7-2.9c2.6-1,5.2-2.1,7.8-3.1c2.3-0.9,4.3-3.6,4.6-6.2
			c0.4-3-0.7-5.6-1.6-8.3c-0.8-2.4-1.8-4.8-2.7-7.2c-0.7-1.7-1.5-3.3-2.2-5c-0.1,0-0.2,0.1-0.3,0.1c0.1,1.2,0.3,2.4,0.4,3.6
			c0.4,3,0.7,5.9,1,8.9c0,0.3,0,0.6,0,0.8c0.5,1.5,0,2.8-0.9,3.9c-2.4,3.1-5.6,4.9-9,6.5c-3,1.5-6.2,2.6-9.4,3.8
			c-0.7,0.3-1,0.7-1,1.3C122.5,47.8,122.5,48.4,122.8,48.9 M58.8,124.1c-1.3-2.7-1.6-5.6-2.4-8.5c-0.4-1.4-0.6-3-0.8-4.5
			c-0.4-2.5-0.9-5.1-1.1-7.7c-0.2-3.5,0.1-7,0.1-10.5c0-0.4-0.2-0.8-0.4-1.1c-0.4-0.6-1-1-1.4-1.6c-0.4-0.4-0.6-0.7-0.8,0.1
			c-0.3,0.8-0.7,1.6-0.9,2.5c-0.6,2.2-1.3,4.3-1.5,6.5c-0.3,3.9-0.6,7.8,0.3,11.7c0.4,1.6,0.8,3.3,1.3,4.9c0.2,0.9,0.6,1.7,0.9,2.5
			c-0.1,0.1-0.2,0.2-0.3,0.2c-1.9-1.3-3.8-2.6-5.8-4.1c-1.7,5.7-4.4,10.7-7.4,15.6c0.4,0.2,0.6,0.3,0.8,0.4c3.5,1.7,7,3.3,10.4,5.1
			c2.6,1.4,5,3,7.4,4.6c1.9,1.2,3.7,2.5,5.6,3.8c1.8,1.3,3.8,2.2,6.2,1.6c-0.3-1.4-0.6-2.8-0.8-4.3c-0.3-1.6-0.7-3.2-1-4.9
			c-0.2-1.2-0.4-2.4-0.6-3.6c-0.1-1.4-0.2-2.9-0.2-4.6c0.4,0.3,0.6,0.4,0.7,0.6c0.8,0.8,1.5,1.6,2.3,2.4c0.3,0.4,0.8,0.7,0.9,1.2
			c0.8,2.3,1.4,4.6,2.2,6.9c1.1,3.4,2.3,6.8,3.5,10.2c1,2.7,2,5.5,3.6,7.9c1.3,1.9,2.8,3.5,4.8,4.5c3.3,1.6,7.4,1,9.4-1.6
			c3.2-4,5.9-8.4,8.3-13c1.3-2.6,2.4-5.3,3.5-8c0.7-1.8,1.3-3.6,1.9-5.5c0.3-1,0.5-1.9,1.4-2.5c0.6-0.4,1.1-1.1,1.6-1.7
			c0.4-0.4,0.7-0.8,1.1-1.1c0.1,0.1,0.2,0.1,0.3,0.2c-0.2,1.7-0.3,3.5-0.5,5.2c-0.2,1.8-0.4,3.7-0.8,5.5c-0.3,1.5-0.8,3-1.1,4.5
			c-0.2,0.9-0.4,1.7-0.6,2.6c-0.2,0.7-0.3,1.4-0.4,2.1c0.1,0.1,0.2,0.1,0.2,0.2c9.7-7.3,19.8-14,31-18.7c-3-4.9-5.7-10-7.4-15.6
			c-2,1.4-3.9,2.7-5.9,4.2c0-0.5,0-0.7,0-0.8c0.5-1.5,1.1-3.1,1.4-4.6c0.5-1.9,1-3.8,1-5.7c0.2-4.4,0.2-8.9-1.2-13.2
			c-0.5-1.4-0.9-2.8-1.5-4.2c-0.1-0.1-0.5-0.3-0.6-0.2c-0.9,1.2-2.1,1.9-2,3.9c0.2,3.8,0.5,7.5-0.3,11.3c-0.4,1.9-0.4,4-0.7,6
			c-0.5,2.8-1,5.5-1.8,8.3c-0.7,2.6-1.7,5.1-2.5,7.7c-0.1,0.2-0.3,0.3-0.5,0.5c-0.1-0.3,0.1-0.5,0.1-0.7c0.3-2.1,0.6-4.2,0.7-6.4
			c0.2-4.3,0.5-8.7-0.3-13c-0.2-1.3-0.3-2.8-1.9-3.2c-0.3-0.1-0.6-0.2-0.9-0.3c-1.2-0.6-2.4-1.2-3.7-1.8c0,0.4-0.1,0.6-0.1,0.8
			c0.4,1.6,0.6,3.3,1.2,4.8c1,2.6,0.3,5.1-0.2,7.5c-0.5,2-1.3,4-2,5.9c-0.6,1.6-1.2,3.2-2.7,4.1c-1,0.7-1.8,1.4-2.3,2.6
			c-1.1,2.6-2.4,5.1-3.7,7.6c-1,1.9-2.1,3.7-4.3,4.3c-1.4,0.4-2.9,0.8-4.4,1.1c-1.6,0.3-3.2,0.7-4.7,0.6c-2.3-0.2-4.6-0.7-6.8-1.1
			c-2.2-0.5-3.9-1.7-4.9-3.8c-1.6-3.1-3.2-6.3-4.7-9.5c-0.3-0.5-0.6-0.9-1.2-1.3c-0.8-0.5-1.6-1.2-2.1-2c-1.5-2.4-2.3-5.2-3.1-7.9
			c-0.2-0.7-0.1-1.4-0.4-2c-0.5-1.2-0.8-2.5-0.6-3.8c0.4-1.8,0.8-3.6,1.3-5.4c0.2-0.8,0.3-1.6,0.4-2.4c-0.2,0-0.3-0.1-0.3,0
			c-1.7,0.8-3.5,1.6-5.2,2.4c-0.3,0.1-0.6,0.5-0.7,0.8c-0.3,1.4-0.6,2.8-0.7,4.2c-0.1,2.1-0.2,4.1-0.2,6.2c0,1.7,0,3.3,0.2,5
			c0.2,2.3,0.6,4.5,0.9,7c-0.3-0.4-0.5-0.6-0.6-0.8C59.5,126.3,59.2,125.1,58.8,124.1 M137.6,9.3c0.7-0.6,1.4-0.4,2,0.2
			c1,1,2.1,1.9,2.9,3.1c2.6,3.8,5.3,7.5,7.7,11.4c2,3.3,3.8,6.8,5.5,10.3c0.7,1.5,1.1,3.2,1.3,4.9c0.3,2.9-0.9,5.4-2.3,7.8
			c-1.6,2.8-3.9,4.9-6.6,6.6c-1.7,1.1-3.5,2-5.4,2.7c-0.2,0.1-0.4,0.3-0.7,0.5c2.2,1.2,4.1,2.6,5.8,4.4c0.5,0.6,0.5,0.9,0,1.4
			c-2.5,2.6-5.2,4.8-8.4,6.4c-2.1,1-4.3,1.9-6.6,2.6c-1.7,0.5-3.6,0.8-5.4,0.2c-0.2-0.1-0.4,0-0.7,0c0.6,1.1,1.2,2.1,1.7,3.2
			c1.6,3.3,3,6.7,3.8,10.4c0.7,3.2,1.3,6.4,1.8,9.6c0.3,1.7,0.3,3.5,0.6,5.3c0.3,1.6,0.8,3.1,1.2,4.6c0.7,2.2,1.7,4.2,2.2,6.4
			c0.7,2.7,1.9,5.1,3,7.6c1.2,2.7,2.3,5.5,3.6,8.1c1.4,2.9,3,5.7,4.5,8.5c0.1,0.2-0.1,0.7-0.2,0.7c-18.3,8.8-34.2,21.6-50.4,33.7
			c-5.1,3.8-10.9,5.1-17,2.9c-0.9-0.3-1.6-0.9-2.2-1.7c-2.4-3.3-5.4-5.8-8.5-8.3c-9.1-7.2-18.8-13.3-28.6-19.2
			c-4.2-2.5-8.4-4.9-12.6-7.4c-0.2-0.1-0.4-0.3-0.6-0.4c1.4-2.8,2.9-5.5,4.3-8.2c0.7-1.3,1.3-2.6,1.9-3.9c0.7-1.6,1.3-3.2,2-4.7
			c0.7-1.6,1.4-3.1,2-4.7c0.4-1.1,0.7-2.2,1.1-3.4c0.9-2.8,2.1-5.6,2.8-8.5c0.5-2.1,0.6-4.3,0.9-6.4c0.5-3,1-6.1,1.7-9.1
			c0.7-2.8,1.6-5.6,2.6-8.3c0.8-2.1,2-4.1,3-6.2c0.1-0.2,0.2-0.4,0.4-0.8c-0.7,0.1-1.1,0.3-1.6,0.3c-2.6,0.2-5.1-0.3-7.5-1.3
			c-2-0.8-3.9-1.7-5.7-2.8c-2.4-1.5-4.6-3.3-6.6-5.5c-0.5-0.5-0.2-0.8,0.1-1.1c1.9-1.5,3.7-3.1,5.7-4.7c-0.5-0.2-1.1-0.5-1.7-0.8
			c-3.2-1.3-6-3.1-8.4-5.7c-2.1-2.3-3.5-5-4.3-8c-0.7-2.4-0.4-4.6,0.6-6.8c1.6-3.4,3.1-6.8,5-10c2-3.5,4.4-6.8,6.7-10.2
			c1.2-1.8,2.7-3.4,4-5.1c0.2-0.3,0.5-0.5,0.7-0.7c0.5-0.4,1.1-0.8,1.8-0.3c0.6,0.5,0.8,1.1,0.6,1.9c-0.6,3.1-1.3,6.3-1.8,9.5
			c-0.2,1.4-0.3,2.8-0.4,4.3c-0.1,1.6-0.2,3.3-0.3,4.9c-0.3,3,1.2,5,3.5,6.5c1.5,1,3.1,2,4.7,2.9c0.7,0.4,1.5,0.6,2.3,0.8
			c0.3,0.1,0.6-0.1,0.9-0.2c2.5-1.2,5.1-1.7,7.7-2.4c2.3-0.5,4.4-0.3,6.6,0.4c0.8,0.3,1.6,0.1,2.4-0.3c2.5-1.3,5.1-2.6,7.7-3.9
			c3.8-1.9,7.9-2.3,12-2.1c1.7,0.1,3.5,0.2,5.2,0.1c2.5-0.1,5,0,7.5,0.3c1.8,0.2,3.5,0.9,5.2,1.6c2.9,1.3,5.6,2.9,8.5,4.2
			c0.5,0.3,1.3,0.1,1.9,0c1.5-0.2,3-0.6,4.5-0.6c1.5,0,3.1,0.4,4.5,0.9c1.9,0.6,3.7,1.4,5.5,1.9c0.5,0.2,1.2-0.1,1.8-0.3
			c3-1.2,5.6-2.9,7.9-5.3c1-1,1.3-2.3,1.2-3.4c-0.1-3.5-0.4-6.9-0.7-10.4c-0.2-2.1-0.7-4.2-1-6.2c-0.2-1.1-0.5-2.2-0.7-3.2
			C137,10.4,137.1,9.7,137.6,9.3 M56,57.9c0.7,0.3,1,0.2,1.3-0.4c1.1-2.1,2.2-4.3,3.4-6.4c0.3-0.6,0.7-1.1,1.1-1.7
			c0.6,0.8,1.1,1.3,0.7,2.3c-0.5,1.3-0.8,2.6-1.1,4c-0.2,0.8-0.5,1.7-0.6,2.5c-0.1,1.9-0.6,3.9,1.3,5.2c0.6,0.4,1,0.9,1.6,1.3
			c3.3,2.5,6.6,5,10,7.4c1.8,1.3,3.9,2.2,6.2,2c0.8-0.1,1.5-0.3,2.4-0.4C82.1,73.9,82,74,82,74.1c-0.6,1.3-1.8,1.8-2.9,2.5
			c-1.2,0.8-2.4,1.6-2.7,3.3c-0.2,1-0.7,1.9-1,2.8c-0.4,1.4-0.8,2.9-1.2,4.4c-0.4,1.5-0.8,3.1-1.2,4.6c-0.4,1.7-0.9,3.4-1.3,5.2
			c-0.3,1.5-0.7,3.1-0.9,4.7c-0.4,2.3-0.7,4.7-1.1,7c-0.1,0.4-0.2,0.8-0.2,1.3c-0.1,1.2-0.1,2.4,0.9,3.2c1.4,1.2,2.8,2.3,4.3,3.3
			c0.8,0.5,1.7,0.7,2.8,1.2c-0.3-2-1-3.4-1.9-4.7c-0.5-0.7-1.2-1.5-1.9-1.6c-1.3-0.1-1.3-1.1-1.4-1.8c-0.1-0.6,0.3-1.4,0.7-1.8
			c1.2-1.2,3.4-0.5,4.2,0.6c1.1,1.5,2.1,3.2,3.1,4.8c0.8,1.2,1.5,2.6,3,3.1c1.8,0.5,3.6,0.9,5.4,1.3c0.3,0.1,0.7,0,1-0.1
			c1-0.2,2.1-0.4,3.1-0.7c1.4-0.4,2.9-0.7,3.9-2.2c1.2-1.9,2.6-3.7,3.8-5.7c0.7-1.2,1.7-1.6,2.9-1.6c1-0.1,1.8,0.6,2.1,1.2
			c0.3,0.7,0.1,1.3,0,1.9c-0.1,1.1-0.8,1-1.4,1.1c-0.1,0-0.2,0.1-0.2,0.1c-1.4,0.7-2,2.1-2.6,3.4c-0.4,0.8-0.6,1.6-0.9,2.5
			c0.3,0,0.5,0,0.6,0c0.1,0,0.2,0,0.3-0.1c2.1-0.9,4-2,5.7-3.6c1.1-1,1.6-2.1,1.5-3.6c-0.1-1.1-0.2-2.2-0.3-3.3c0-0.2,0-0.4,0-0.7
			c-0.5-2.4-1-4.9-1.5-7.3c-0.2-0.8-0.3-1.5-0.4-2.3c-0.4-1.8-0.9-3.6-1.3-5.3c-0.4-1.6-0.8-3.2-1.2-4.7c-0.5-1.9-1.1-3.8-1.7-5.7
			c-0.4-1.2-0.7-2.5-1.8-3.3c-0.9-0.6-1.8-1.1-2.7-1.8c-0.6-0.5-1.2-1.2-1.7-1.8c0.1-0.1,0.1-0.2,0.2-0.2c0.3,0,0.5,0,0.8,0.1
			c2.5,0.7,4.8,0.2,6.9-1.2c4.3-2.8,8.5-5.9,12.5-9.3c0.9-0.8,1.4-1.7,1.4-3c-0.1-2.9-0.9-5.6-1.8-8.3c-0.2-0.7-0.4-1.3,0.2-2
			c0.4-0.5,0.6-0.3,0.8,0c0.7,1.4,1.5,2.8,2.2,4.2c0.8,1.4,1.5,2.8,2.3,4.2c2.1-1.1,3.1-1.4,5.4-1.4c2.2,0,4.3,0.3,6.5,0.6
			c3.2,0.4,6.3,1.5,9.2,2.9c0.3,0.1,0.7,0.1,1,0.1c0-0.1,0.1-0.3,0.1-0.4c-1.6-1-3.1-2.2-4.7-3.1c-4.2-2.3-8.8-3.1-13.5-2.6
			c-1.8,0.2-2.9-0.4-3.7-2c-0.1-0.1-0.1-0.2-0.2-0.3c-1.3-2.2-2.1-4.6-1.3-7.2c0.2-0.7,0.4-1.4,0.6-2.1c-0.7-0.1-1.2-0.1-1.7-0.3
			c-1.5-0.4-3-0.4-4.3,0.4c-1.5,0.9-2.9,2.1-4.3,3.3c-0.6,0.5-1.2,1.1-2,1.9c0.2-0.9,0.2-1.5,0.4-2c0.9-2.8,0-5.4-2.5-6.8
			c-2.1-1.2-4.2-2.2-6.5-2.7c-2.1-0.5-4.2-1.2-6.3-1.4c-4.6-0.4-9.2-0.2-13.7,1c-2.8,0.7-5.4,1.7-7.8,3.2c-1.7,1-2.8,2.5-2.6,4.7
			c0.2,1.2,0.3,2.5,0.5,3.8c-0.2-0.2-0.4-0.3-0.5-0.4c-1.3-1.2-2.6-2.4-3.9-3.5c-1.3-1.1-2.7-1.8-4.4-1.7c-1.1,0.1-2.2,0.3-3.4,0.4
			c0.2,0.5,0.4,1,0.5,1.4c0.2,0.7,0.4,1.3,0.5,2c0.3,2.3-0.5,4.3-1.7,6.1c-0.8,1.3-1.6,2.4-3.5,2.1c-3.5-0.4-6.9-0.1-10.3,1.1
			c-2.8,1-5.3,2.3-7.6,4.2c-0.2,0.2-0.3,0.5-0.5,0.7c0.1,0.1,0.1,0.1,0.2,0.2c0.6-0.3,1.3-0.5,1.9-0.8c2-0.7,4-1.5,6.1-2
			c1.6-0.4,3.3-0.5,4.9-0.8C50.7,56.4,53.4,56.8,56,57.9 M68.9,92.8c1-4.1,1.9-8.1,2.9-12.1c-2.7,0.3-4,0-5.3-0.8
			c1.2-0.6,2.3-1.1,2.8-2.2c-1.8-0.7-3.5-1.3-5.2-2c-1.7-0.7-3.1-2-4-4c-0.4,0.7-0.7,1.1-0.9,1.6c-1.3,2.7-2.5,5.4-2.2,8.4
			c0.1,0.7,0.4,1.5,0.8,1.9c3,2.6,6,5.1,9,7.6C67.5,91.8,68.1,92.2,68.9,92.8"/>
		<path class="st4" d="M87.4,174c-2,0-4-0.4-6-1.1c-0.9-0.3-1.7-0.9-2.3-1.8c-2.3-3.2-5.4-5.8-8.5-8.3C62,156.1,53,150.3,42,143.7
			c-2.8-1.7-5.7-3.4-8.5-5c-1.4-0.8-2.7-1.6-4.1-2.4c-0.2-0.1-0.3-0.2-0.5-0.3c-0.1,0-0.1-0.1-0.1-0.1l-0.1,0l0-0.1
			c0.4-0.8,0.8-1.6,1.2-2.4c1-2,2-3.9,3-5.8l0.2-0.4c0.6-1.1,1.2-2.3,1.8-3.5c0.4-1,0.9-2,1.3-3c0.2-0.6,0.5-1.2,0.7-1.7
			c0.2-0.6,0.5-1.1,0.7-1.6c0.4-1,0.9-2,1.3-3.1c0.3-0.7,0.5-1.4,0.7-2.1c0.1-0.4,0.3-0.9,0.4-1.3c0.3-0.9,0.6-1.8,0.9-2.7
			c0.7-1.9,1.4-3.8,1.9-5.8c0.3-1.3,0.5-2.6,0.6-3.9c0.1-0.8,0.2-1.7,0.3-2.5c0.1-0.4,0.1-0.8,0.2-1.2c0.4-2.6,0.9-5.3,1.5-7.9
			c0.7-2.7,1.5-5.5,2.6-8.3c0.6-1.5,1.3-2.9,2-4.3c0.3-0.6,0.6-1.2,0.9-1.9l0.1-0.2c0.1-0.1,0.1-0.2,0.2-0.4c-0.2,0-0.3,0.1-0.4,0.1
			c-0.4,0.1-0.7,0.2-1,0.2c-2.5,0.2-5.1-0.3-7.5-1.3c-1.9-0.8-3.9-1.7-5.8-2.8c-2.5-1.5-4.7-3.4-6.6-5.5c-0.2-0.2-0.3-0.4-0.3-0.6
			c0-0.3,0.2-0.4,0.4-0.6c1.4-1.2,2.8-2.3,4.3-3.5c0.4-0.3,0.9-0.7,1.3-1.1c-0.1,0-0.2-0.1-0.4-0.2c-0.4-0.2-0.8-0.4-1.3-0.5
			c-3.4-1.4-6.1-3.3-8.4-5.7c-2.1-2.2-3.5-4.9-4.4-8.1c-0.6-2.3-0.4-4.5,0.6-6.8c0.2-0.5,0.5-1,0.7-1.5c1.3-2.8,2.7-5.7,4.3-8.5
			c1.9-3.3,4.1-6.4,6.2-9.4l0.5-0.7c0.9-1.3,1.9-2.5,2.9-3.7c0.4-0.5,0.8-0.9,1.1-1.4c0.2-0.3,0.5-0.5,0.8-0.7l0.1-0.1
			C39,9,39.6,8.6,40.3,9.1c0.6,0.5,0.8,1.2,0.7,2c-0.7,3.5-1.3,6.6-1.8,9.5c-0.2,1.2-0.3,2.4-0.4,3.5c0,0.2,0,0.5-0.1,0.7
			c-0.1,0.7-0.1,1.5-0.1,2.2c0,0.9-0.1,1.8-0.2,2.8c-0.2,2.6,0.9,4.7,3.4,6.4c1.4,0.9,2.9,1.9,4.6,2.9c0.7,0.4,1.6,0.6,2.3,0.8
			c0.2,0.1,0.6-0.1,0.9-0.2c2.2-1.1,4.6-1.6,6.9-2.2c0.3-0.1,0.6-0.1,0.8-0.2c2.2-0.5,4.3-0.4,6.6,0.4c0.7,0.2,1.4,0.1,2.3-0.3
			c2.4-1.3,4.9-2.5,7.7-3.9c3.4-1.7,7.3-2.3,12-2.1l0.1,0c1.7,0.1,3.4,0.2,5.1,0.1c2.6-0.1,5.1,0,7.5,0.3c1.6,0.2,3.3,0.7,5.2,1.6
			c1.6,0.7,3.2,1.5,4.7,2.3c1.2,0.6,2.5,1.3,3.8,1.9c0.4,0.2,1,0.1,1.5,0c0.1,0,0.2,0,0.4-0.1c0.5-0.1,1-0.2,1.6-0.3
			c1-0.2,2-0.4,2.9-0.3c1.5,0,3.1,0.4,4.6,0.9c1,0.3,1.9,0.6,2.8,1c0.9,0.3,1.8,0.7,2.7,1c0.5,0.2,1.2-0.1,1.7-0.3
			c3-1.2,5.6-2.9,7.8-5.3c0.8-0.9,1.3-2,1.2-3.4c-0.1-3.1-0.3-6.5-0.7-10.3c-0.2-1.6-0.5-3.2-0.8-4.8c-0.1-0.5-0.2-1-0.3-1.4
			c-0.2-1-0.4-2.1-0.7-3.2c-0.2-0.8-0.1-1.5,0.4-1.9l0,0c0.6-0.5,1.4-0.5,2.1,0.2c0.2,0.2,0.4,0.4,0.6,0.6c0.8,0.8,1.6,1.6,2.3,2.5
			l0.6,0.8c2.4,3.4,4.9,7,7.1,10.6c1.8,2.9,3.5,6.1,5.5,10.3c0.8,1.8,1.2,3.6,1.3,4.9c0.3,2.9-1,5.5-2.3,7.8
			c-1.5,2.6-3.7,4.8-6.6,6.7c-2,1.2-3.7,2.1-5.4,2.7c-0.1,0-0.3,0.2-0.4,0.3c0,0-0.1,0.1-0.2,0.1c2.4,1.3,4.2,2.7,5.7,4.3
			c0.5,0.6,0.5,1,0,1.5c-2.6,2.8-5.4,4.9-8.4,6.4c-2.2,1.1-4.4,2-6.6,2.6c-1.6,0.5-3.6,0.8-5.5,0.2c-0.1,0-0.2,0-0.4,0
			c-0.1,0-0.1,0-0.2,0c0.2,0.3,0.3,0.6,0.5,0.9c0.4,0.8,0.8,1.5,1.1,2.2c1.8,3.7,3,7.1,3.8,10.4c0.7,3,1.2,6,1.8,9.6
			c0.1,0.8,0.2,1.7,0.3,2.5c0.1,0.9,0.2,1.8,0.3,2.7c0.3,1.6,0.8,3.2,1.2,4.6c0.3,0.9,0.6,1.7,0.9,2.5c0.5,1.3,1,2.6,1.3,3.9
			c0.6,2.2,1.5,4.3,2.4,6.3c0.2,0.4,0.4,0.9,0.6,1.3c0.2,0.5,0.4,1,0.6,1.5c0.9,2.2,1.9,4.5,3,6.6c0.9,1.8,1.8,3.5,2.7,5.2
			c0.6,1.1,1.2,2.2,1.8,3.3c0.1,0.1,0,0.4,0,0.5c0,0.1-0.1,0.3-0.3,0.4c-15.7,7.6-29.9,18.3-43.7,28.6c-2.2,1.7-4.5,3.4-6.8,5.1
			C94.9,172.7,91.2,174,87.4,174z M28.9,135.8C28.9,135.8,29,135.8,28.9,135.8c0.2,0.1,0.4,0.3,0.5,0.3c1.4,0.8,2.7,1.6,4.1,2.4
			c2.8,1.6,5.7,3.3,8.5,5c11,6.6,20,12.4,28.6,19.2c3.2,2.5,6.2,5.1,8.6,8.3c0.6,0.9,1.3,1.4,2.2,1.7c5.8,2.1,11.5,1.2,17-2.9
			c2.3-1.7,4.5-3.4,6.8-5.1c13.7-10.3,28-21,43.7-28.7c0,0,0.1-0.1,0.2-0.3c0.1-0.2,0.1-0.3,0-0.3c-0.6-1.1-1.2-2.2-1.8-3.3
			c-0.9-1.7-1.9-3.4-2.7-5.2c-1.1-2.2-2.1-4.5-3-6.6c-0.2-0.5-0.4-1-0.6-1.5c-0.2-0.4-0.4-0.9-0.6-1.3c-0.9-2-1.8-4.1-2.4-6.3
			c-0.3-1.3-0.8-2.6-1.3-3.9c-0.3-0.8-0.6-1.7-0.9-2.6c-0.5-1.5-1-3-1.2-4.6c-0.2-0.9-0.3-1.8-0.3-2.8c-0.1-0.8-0.2-1.7-0.3-2.5
			c-0.6-3.6-1.1-6.6-1.8-9.6c-0.7-3.3-2-6.7-3.8-10.3c-0.4-0.7-0.7-1.4-1.1-2.2c-0.2-0.3-0.4-0.7-0.5-1l-0.1-0.1l0.1,0
			c0.1,0,0.2,0,0.3,0c0.2,0,0.3-0.1,0.5,0c1.9,0.6,3.8,0.3,5.4-0.2c2.2-0.6,4.4-1.5,6.6-2.6c3-1.5,5.8-3.6,8.4-6.4
			c0.5-0.5,0.5-0.8,0-1.3c-1.6-1.7-3.4-3-5.8-4.4l-0.1-0.1l0.1-0.1c0.1-0.1,0.2-0.1,0.2-0.2c0.2-0.1,0.3-0.3,0.5-0.3
			c1.7-0.6,3.4-1.4,5.4-2.6c2.9-1.8,5-4,6.5-6.6c1.3-2.3,2.5-4.8,2.3-7.7c-0.1-1.3-0.4-3.1-1.3-4.9c-2-4.3-3.7-7.5-5.5-10.3
			c-2.2-3.6-4.7-7.2-7.1-10.6l-0.6-0.8c-0.6-0.9-1.5-1.7-2.3-2.5c-0.2-0.2-0.4-0.4-0.6-0.6c-0.6-0.6-1.3-0.7-1.9-0.2
			c-0.4,0.4-0.6,1-0.4,1.7c0.3,1.1,0.6,2.2,0.7,3.2c0.1,0.5,0.2,0.9,0.3,1.4c0.3,1.6,0.6,3.2,0.8,4.8c0.4,3.9,0.6,7.3,0.7,10.4
			c0,1.4-0.4,2.6-1.3,3.5c-2.3,2.3-4.8,4.1-7.9,5.3c-0.6,0.2-1.3,0.5-1.8,0.3c-0.9-0.3-1.8-0.6-2.7-1c-0.9-0.3-1.9-0.7-2.8-1
			c-1.4-0.4-3-0.8-4.5-0.9c-1,0-1.9,0.2-2.9,0.3c-0.5,0.1-1,0.2-1.6,0.3c-0.1,0-0.2,0-0.4,0.1c-0.6,0.1-1.1,0.2-1.6,0
			c-1.3-0.6-2.5-1.3-3.8-1.9c-1.5-0.8-3.1-1.6-4.7-2.3c-1.9-0.9-3.6-1.4-5.1-1.6c-2.4-0.3-4.9-0.4-7.5-0.3c-1.7,0.1-3.4,0-5.1-0.1
			l-0.1,0c-4.8-0.2-8.6,0.4-12,2.1c-2.7,1.3-5.2,2.6-7.6,3.9c-0.6,0.3-1.5,0.7-2.4,0.4c-2.3-0.8-4.4-0.9-6.5-0.4
			c-0.3,0.1-0.6,0.1-0.8,0.2c-2.3,0.5-4.7,1.1-6.9,2.2c-0.3,0.1-0.7,0.3-1,0.2c-0.8-0.2-1.6-0.4-2.4-0.8c-1.7-1-3.3-1.9-4.7-2.9
			c-2.6-1.8-3.8-3.9-3.5-6.6c0.1-0.9,0.1-1.8,0.2-2.7c0-0.7,0.1-1.5,0.1-2.2c0-0.2,0-0.5,0.1-0.7c0.1-1.2,0.2-2.4,0.4-3.6
			c0.5-2.8,1.1-5.9,1.8-9.5c0.2-0.8,0-1.3-0.6-1.8c-0.6-0.5-1.1-0.1-1.6,0.2l-0.1,0.1c-0.3,0.2-0.5,0.4-0.7,0.7
			c-0.4,0.5-0.8,0.9-1.1,1.4c-1,1.2-2,2.4-2.9,3.7L33.2,16c-2.1,3-4.3,6.2-6.2,9.4c-1.6,2.7-2.9,5.6-4.2,8.4c-0.2,0.5-0.5,1-0.7,1.5
			c-1.1,2.2-1.3,4.4-0.6,6.7c0.9,3.2,2.3,5.8,4.3,8c2.3,2.4,5,4.3,8.4,5.7c0.4,0.2,0.9,0.4,1.3,0.5c0.2,0.1,0.3,0.1,0.5,0.2l0.1,0.1
			l-0.1,0.1c-0.5,0.4-0.9,0.8-1.4,1.1c-1.5,1.2-2.9,2.3-4.3,3.5c-0.2,0.2-0.3,0.3-0.4,0.5c0,0.1,0.1,0.3,0.2,0.5
			c1.9,2.1,4.1,3.9,6.5,5.4c1.8,1.1,3.8,2,5.7,2.8c2.4,1,4.9,1.5,7.4,1.3c0.3,0,0.6-0.1,1-0.2c0.2,0,0.4-0.1,0.6-0.1l0.2,0l-0.1,0.2
			c-0.1,0.3-0.2,0.4-0.3,0.6l-0.1,0.2c-0.3,0.6-0.6,1.3-0.9,1.9c-0.7,1.4-1.4,2.8-2,4.3c-1.1,2.8-1.9,5.6-2.6,8.3
			c-0.6,2.6-1.1,5.3-1.5,7.9c-0.1,0.4-0.1,0.8-0.2,1.2c-0.1,0.8-0.2,1.7-0.3,2.5c-0.1,1.3-0.3,2.7-0.6,3.9c-0.5,2-1.2,3.9-1.9,5.8
			c-0.3,0.9-0.6,1.8-0.9,2.7c-0.1,0.4-0.3,0.9-0.4,1.3c-0.2,0.7-0.4,1.4-0.7,2.1c-0.4,1-0.9,2.1-1.3,3.1c-0.2,0.5-0.5,1.1-0.7,1.6
			c-0.2,0.6-0.5,1.2-0.7,1.7c-0.4,1-0.8,2-1.3,3c-0.5,1.2-1.2,2.4-1.8,3.5l-0.2,0.4c-1,1.9-2,3.8-3,5.8
			C29.7,134.3,29.3,135,28.9,135.8z M88.1,163.3c-1.3,0-2.6-0.3-3.8-0.9c-1.8-0.9-3.3-2.3-4.8-4.5c-1.6-2.4-2.6-5.1-3.6-7.9
			c-1.3-3.7-2.4-7-3.5-10.2c-0.4-1.1-0.7-2.2-1-3.3c-0.4-1.2-0.7-2.4-1.2-3.6c-0.1-0.3-0.4-0.6-0.7-0.9c-0.1-0.1-0.2-0.2-0.3-0.3
			c-0.8-0.8-1.5-1.6-2.3-2.4c-0.1-0.1-0.2-0.2-0.4-0.3c-0.1,0-0.1-0.1-0.2-0.2c0,0.5,0,0.9,0.1,1.4c0,1.1,0.1,2,0.2,3
			c0.1,1.2,0.3,2.4,0.6,3.5c0.2,1,0.4,1.9,0.6,2.9c0.1,0.7,0.3,1.3,0.4,2c0.2,1.1,0.4,2.1,0.6,3.2l0.2,1.2l-0.1,0
			c-2.7,0.6-4.8-0.5-6.3-1.6c-1.7-1.2-3.5-2.5-5.6-3.8c-0.5-0.3-0.9-0.6-1.4-0.9c-2-1.3-4-2.6-6.1-3.7c-2.4-1.3-4.8-2.5-7.2-3.6
			c-1-0.5-2.1-1-3.2-1.5c-0.2-0.1-0.3-0.2-0.5-0.2c-0.1-0.1-0.2-0.1-0.4-0.2l-0.1,0l0-0.1c3.2-5.4,5.7-10.1,7.4-15.6l0-0.1l0.1,0.1
			c1.1,0.8,2.2,1.5,3.2,2.3l2.5,1.8c0.1,0,0.1-0.1,0.2-0.2c-0.1-0.3-0.2-0.5-0.3-0.8c-0.2-0.6-0.4-1.1-0.6-1.7l-0.1-0.4
			c-0.4-1.5-0.8-3-1.2-4.5c-0.8-3.9-0.6-7.9-0.3-11.7c0.1-1.6,0.6-3.3,1.1-4.8c0.2-0.6,0.3-1.1,0.5-1.7c0.1-0.5,0.3-0.9,0.5-1.4
			c0.1-0.4,0.3-0.7,0.4-1.1c0.1-0.4,0.2-0.5,0.4-0.6c0.2,0,0.4,0.1,0.6,0.4c0.2,0.2,0.4,0.5,0.6,0.7c0.3,0.3,0.5,0.6,0.8,0.9
			c0.2,0.3,0.4,0.7,0.4,1.2c0,1.2,0,2.5-0.1,3.7c-0.1,2.2-0.1,4.5,0,6.8c0.1,1.8,0.4,3.7,0.7,5.5c0.1,0.7,0.2,1.4,0.4,2.1
			c0.1,0.3,0.1,0.7,0.1,1c0.2,1.1,0.3,2.3,0.6,3.4c0.3,0.9,0.5,1.9,0.7,2.8c0.4,1.9,0.8,3.8,1.7,5.6c0.3,0.6,0.5,1.3,0.7,2
			c0.1,0.4,0.3,0.8,0.4,1.2c0,0.1,0.1,0.3,0.3,0.4c0,0,0.1,0.1,0.1,0.1c-0.1-0.7-0.2-1.3-0.3-1.9c-0.2-1.7-0.5-3.2-0.6-4.8
			c-0.2-1.7-0.2-3.4-0.2-5c0-2.1,0-4.2,0.2-6.2c0.1-1.3,0.4-2.6,0.6-3.8l0.1-0.4c0.1-0.3,0.4-0.7,0.7-0.9c1.4-0.7,2.9-1.4,4.3-2
			l0.8-0.4c0.1,0,0.1,0,0.2,0c0,0,0.1,0,0.2,0l0.1,0l0,0.1c0,0.3-0.1,0.5-0.1,0.8c-0.1,0.5-0.2,1.1-0.3,1.6c-0.2,0.7-0.3,1.4-0.5,2
			c-0.3,1.1-0.5,2.2-0.8,3.3c-0.3,1.4,0.1,2.7,0.5,3.7c0.1,0.4,0.2,0.7,0.2,1.1c0,0.3,0.1,0.6,0.1,0.9l0,0.1
			c0.8,2.7,1.6,5.5,3.1,7.8c0.4,0.7,1.1,1.3,2.1,1.9c0.6,0.4,0.9,0.8,1.2,1.3c0.6,1.2,1.2,2.4,1.8,3.6c0.9,1.9,1.9,3.9,2.9,5.8
			c1,2,2.7,3.3,4.9,3.8l0.3,0.1c2.1,0.5,4.3,0.9,6.5,1.1c1.3,0.1,2.7-0.2,4.1-0.4c0.2,0,0.4-0.1,0.6-0.1c1.5-0.3,3-0.7,4.4-1.1
			c2.2-0.6,3.3-2.5,4.2-4.3l0.5-1c1.1-2.1,2.2-4.3,3.2-6.6c0.5-1.1,1.2-1.8,2.3-2.6c1.4-0.9,2.1-2.6,2.6-4.1c0.1-0.3,0.3-0.7,0.4-1
			c0.6-1.6,1.2-3.2,1.6-4.9l0.1-0.4c0.5-2.3,1.1-4.6,0.1-7c-0.4-1.1-0.7-2.3-0.9-3.4c-0.1-0.5-0.2-0.9-0.3-1.4c0-0.1,0-0.3,0-0.5
			c0-0.1,0-0.2,0.1-0.3l0-0.1l0.6,0.3c1.1,0.5,2.1,1.1,3.2,1.6c0.2,0.1,0.5,0.2,0.9,0.3c1.5,0.4,1.7,1.7,1.9,2.9
			c0,0.1,0,0.3,0.1,0.4c0.7,3.7,0.5,7.4,0.4,11c0,0.7-0.1,1.3-0.1,2c-0.1,1.5-0.3,3.1-0.5,4.5c-0.1,0.6-0.2,1.2-0.2,1.8
			c0,0.1,0,0.1-0.1,0.2c0,0.1-0.1,0.2-0.1,0.3c0,0,0,0,0.1,0c0.1-0.1,0.2-0.2,0.3-0.3c0.2-0.7,0.5-1.3,0.7-2
			c0.6-1.9,1.3-3.8,1.8-5.7c0.8-3,1.4-6,1.8-8.2c0.2-0.9,0.2-1.8,0.3-2.7c0.1-1.1,0.2-2.2,0.4-3.3c0.7-3.2,0.5-6.5,0.4-9.6
			c0-0.6-0.1-1.1-0.1-1.7c-0.1-1.6,0.7-2.4,1.4-3.2c0.2-0.3,0.5-0.5,0.7-0.8c0-0.1,0.1-0.1,0.2,0c0.1,0,0.5,0.1,0.5,0.3
			c0.6,1.5,1.1,3.1,1.5,4.2c1.4,4.2,1.4,8.5,1.2,13.3c-0.1,1.7-0.5,3.4-0.9,5.1c-0.1,0.2-0.1,0.4-0.2,0.6c-0.3,1-0.6,2.1-0.9,3.1
			c-0.2,0.5-0.3,1-0.5,1.6c0,0.1,0,0.2,0,0.3c0,0.1,0,0.2,0,0.3l1.5-1.1c1.4-1,2.8-2,4.3-3l0.1-0.1l0,0.1c1.9,6.2,5,11.6,7.4,15.6
			l0.1,0.1l-0.1,0c-12.1,5.1-22.4,12.3-31,18.7l0,0l0,0c-0.1,0-0.1-0.1-0.2-0.1l-0.1-0.1l0-0.1c0-0.2,0.1-0.4,0.1-0.6
			c0.1-0.5,0.2-1,0.3-1.5c0.2-0.9,0.4-1.8,0.6-2.6c0.1-0.5,0.3-1,0.4-1.4c0.3-1,0.6-2,0.7-3.1c0.4-1.9,0.6-3.8,0.8-5.5
			c0.1-1.2,0.3-2.5,0.4-3.7c0-0.5,0.1-1,0.1-1.4c0,0-0.1,0-0.1,0c0,0-0.1,0-0.1-0.1c-0.1,0.1-0.3,0.3-0.4,0.4
			c-0.2,0.2-0.4,0.5-0.6,0.7c-0.2,0.2-0.3,0.4-0.5,0.5c-0.4,0.4-0.7,0.8-1.2,1.1c-0.8,0.5-1,1.3-1.3,2.2c0,0.1-0.1,0.2-0.1,0.3
			l-0.1,0.4c-0.5,1.7-1.1,3.4-1.7,5.1l-0.3,0.7c-1,2.4-2,5-3.2,7.3c-2.5,4.8-5.3,9.2-8.3,13C92.4,162.4,90.3,163.3,88.1,163.3z
			 M66.2,128.5l0.1,0.1c0.1,0.1,0.3,0.2,0.4,0.3c0.2,0.1,0.3,0.2,0.4,0.3c0.7,0.8,1.5,1.6,2.3,2.4c0.1,0.1,0.2,0.2,0.3,0.3
			c0.3,0.3,0.6,0.6,0.7,0.9c0.4,1.2,0.8,2.5,1.2,3.7c0.3,1.1,0.7,2.2,1,3.3c1.1,3.2,2.2,6.5,3.5,10.2c1,2.8,2,5.5,3.6,7.9
			c1.5,2.2,3,3.6,4.7,4.4c3.3,1.6,7.3,0.9,9.3-1.6c3-3.8,5.8-8.1,8.3-12.9c1.2-2.3,2.2-4.8,3.2-7.3l0.3-0.7c0.7-1.7,1.2-3.4,1.7-5.1
			l0.1-0.4c0-0.1,0.1-0.2,0.1-0.3c0.3-0.9,0.5-1.7,1.4-2.3c0.4-0.3,0.8-0.7,1.1-1.1c0.2-0.2,0.3-0.4,0.5-0.5
			c0.2-0.2,0.4-0.4,0.6-0.7c0.1-0.2,0.3-0.3,0.4-0.5l0,0l0.1,0c0.1,0,0.1,0.1,0.2,0.1c0,0,0.1,0,0.1,0.1l0,0l0,0.1
			c0,0.5-0.1,1-0.1,1.5c-0.1,1.2-0.2,2.5-0.4,3.7c-0.2,1.7-0.4,3.6-0.8,5.5c-0.2,1-0.5,2.1-0.8,3.1c-0.1,0.5-0.3,1-0.4,1.4
			c-0.2,0.8-0.4,1.7-0.6,2.6c-0.1,0.5-0.2,1-0.3,1.5c0,0.2-0.1,0.3-0.1,0.5l0,0c0,0,0.1,0.1,0.1,0.1c8.5-6.4,18.8-13.6,30.9-18.6
			c-2.4-4-5.4-9.3-7.3-15.4c-1.4,1-2.8,2-4.2,3l-1.8,1.3V119c0-0.2,0-0.3,0-0.4c0-0.2,0-0.3,0-0.4c0.2-0.5,0.3-1,0.5-1.6
			c0.3-1,0.7-2,0.9-3.1c0.1-0.2,0.1-0.4,0.2-0.6c0.4-1.7,0.8-3.4,0.9-5.1c0.2-4.7,0.2-9-1.2-13.2c-0.4-1.2-0.9-2.7-1.5-4.2
			c0-0.1-0.4-0.2-0.5-0.2c-0.2,0.3-0.4,0.5-0.7,0.8c-0.7,0.8-1.4,1.6-1.3,3.1c0,0.6,0.1,1.1,0.1,1.7c0.2,3.2,0.3,6.4-0.4,9.7
			c-0.2,1.1-0.3,2.2-0.4,3.3c-0.1,0.9-0.1,1.8-0.3,2.7c-0.4,2.3-1,5.3-1.8,8.3c-0.5,1.9-1.2,3.9-1.8,5.7c-0.2,0.7-0.5,1.3-0.7,2
			c-0.1,0.1-0.2,0.3-0.3,0.4c-0.1,0-0.1,0.1-0.2,0.1l-0.1,0.1l0-0.2c0-0.3,0-0.4,0.1-0.6c0-0.1,0-0.1,0-0.2c0.1-0.6,0.2-1.2,0.2-1.8
			c0.2-1.5,0.4-3,0.5-4.5c0-0.7,0.1-1.3,0.1-2c0.2-3.6,0.3-7.3-0.4-11c0-0.1,0-0.3-0.1-0.4c-0.2-1.2-0.4-2.3-1.8-2.7
			c-0.4-0.1-0.7-0.2-0.9-0.3c-1-0.5-2.1-1-3.2-1.6l-0.4-0.2c0,0.1,0,0.2,0,0.2c0,0.2-0.1,0.3,0,0.4c0.1,0.5,0.2,0.9,0.3,1.4
			c0.2,1.1,0.5,2.3,0.9,3.4c0.9,2.5,0.4,4.8-0.1,7.1l-0.1,0.4c-0.4,1.7-1,3.3-1.6,4.9c-0.1,0.3-0.3,0.7-0.4,1
			c-0.6,1.5-1.2,3.2-2.7,4.2c-1.1,0.7-1.8,1.4-2.2,2.5c-1,2.2-2.1,4.4-3.2,6.6l-0.5,1c-0.9,1.8-2,3.7-4.3,4.4
			c-1.4,0.4-2.9,0.8-4.4,1.1c-0.2,0-0.4,0.1-0.6,0.1c-1.4,0.3-2.8,0.5-4.1,0.4c-2.2-0.2-4.4-0.6-6.5-1.1l-0.3-0.1
			c-2.2-0.5-3.9-1.8-5-3.9c-1-1.9-2-3.9-2.9-5.8c-0.6-1.2-1.2-2.4-1.8-3.6c-0.2-0.5-0.6-0.9-1.1-1.2c-1-0.7-1.7-1.3-2.1-2
			c-1.5-2.4-2.3-5.2-3.1-7.9l0-0.1c-0.1-0.3-0.1-0.6-0.2-0.9c0-0.4-0.1-0.8-0.2-1.1c-0.4-1-0.8-2.4-0.6-3.8c0.2-1.1,0.5-2.2,0.8-3.3
			c0.2-0.7,0.3-1.4,0.5-2c0.1-0.5,0.2-1.1,0.3-1.6c0-0.2,0.1-0.4,0.1-0.7c0,0-0.1,0-0.1,0c0,0-0.1,0-0.1,0l-0.8,0.4
			c-1.4,0.7-2.9,1.3-4.3,2c-0.3,0.1-0.6,0.5-0.6,0.8l-0.1,0.4c-0.3,1.2-0.5,2.5-0.6,3.8c-0.1,2-0.2,4.1-0.2,6.2c0,1.6,0,3.3,0.2,5
			c0.2,1.6,0.4,3.1,0.6,4.8c0.1,0.7,0.2,1.5,0.3,2.2l-0.2,0.1c-0.1-0.2-0.2-0.3-0.3-0.4c-0.1-0.2-0.3-0.3-0.3-0.5
			c-0.1-0.4-0.3-0.8-0.4-1.2c-0.2-0.7-0.4-1.3-0.7-2l0,0c-0.9-1.8-1.3-3.8-1.7-5.7c-0.2-0.9-0.4-1.9-0.7-2.8
			c-0.3-1.1-0.5-2.3-0.6-3.5c0-0.3-0.1-0.7-0.1-1c-0.1-0.7-0.2-1.4-0.4-2.1c-0.3-1.8-0.6-3.7-0.7-5.5c-0.1-2.3,0-4.6,0-6.8
			c0-1.2,0.1-2.4,0.1-3.7c0-0.3-0.2-0.7-0.4-1.1c-0.2-0.3-0.5-0.6-0.8-0.9c-0.2-0.2-0.4-0.5-0.6-0.7c-0.1-0.2-0.3-0.4-0.4-0.4
			c0,0-0.1,0.1-0.2,0.4c-0.1,0.4-0.3,0.8-0.4,1.1c-0.2,0.4-0.4,0.9-0.5,1.3c-0.1,0.6-0.3,1.1-0.5,1.7c-0.5,1.6-0.9,3.2-1.1,4.8
			c-0.3,3.8-0.6,7.8,0.3,11.7c0.3,1.5,0.8,3,1.2,4.5l0.1,0.4c0.2,0.6,0.4,1.2,0.6,1.7c0.1,0.3,0.2,0.5,0.3,0.8l0,0.1l0,0
			c-0.1,0.1-0.2,0.2-0.3,0.2l0,0l-2.6-1.8c-1-0.7-2.1-1.4-3.1-2.2c-1.6,5.4-4.1,10.1-7.3,15.4c0.1,0.1,0.2,0.1,0.3,0.1
			c0.2,0.1,0.3,0.2,0.5,0.2c1.1,0.5,2.1,1,3.2,1.5c2.4,1.1,4.9,2.3,7.2,3.6c2.1,1.1,4.1,2.5,6.1,3.7c0.5,0.3,0.9,0.6,1.4,0.9
			c2,1.3,3.9,2.6,5.6,3.8c2.1,1.6,4,2.1,6.1,1.6l-0.2-1c-0.2-1-0.4-2.1-0.6-3.2c-0.1-0.7-0.3-1.3-0.4-2c-0.2-0.9-0.4-1.9-0.6-2.9
			c-0.2-1.1-0.4-2.3-0.6-3.6c-0.1-1-0.1-2-0.2-3c0-0.5,0-1-0.1-1.6L66.2,128.5z M125.5,90.2C125.5,90.2,125.5,90.2,125.5,90.2
			C125.5,90.2,125.5,90.2,125.5,90.2z M77.7,117.7l-0.1-0.1c-0.4-0.1-0.7-0.3-1-0.4c-0.7-0.2-1.3-0.5-1.8-0.8
			c-1.6-1.1-3.2-2.3-4.3-3.3c-1-0.9-1-2.1-0.9-3.3c0-0.2,0.1-0.5,0.1-0.7c0-0.2,0.1-0.4,0.1-0.5c0.1-0.8,0.2-1.6,0.4-2.4
			c0.2-1.5,0.5-3.1,0.7-4.6c0.3-1.6,0.6-3.2,0.9-4.7c0.3-1.2,0.6-2.5,0.9-3.7c0.1-0.5,0.3-1,0.4-1.5l0.3-1.3
			c0.3-1.1,0.6-2.2,0.9-3.4l0.1-0.5c0.3-1.3,0.7-2.6,1-3.8c0.1-0.4,0.3-0.8,0.4-1.2c0.2-0.5,0.4-1.1,0.5-1.6
			c0.3-1.6,1.5-2.5,2.8-3.4c0.2-0.2,0.5-0.3,0.7-0.4c0.9-0.5,1.7-1,2.1-2c0-0.1,0.1-0.2,0.1-0.3l0-0.1c-0.2,0-0.5,0.1-0.7,0.1
			c-0.5,0.1-1,0.2-1.5,0.3c-2,0.2-4-0.4-6.2-2c-2.6-1.8-5.2-3.8-7.7-5.6c-0.8-0.6-1.6-1.2-2.4-1.8c-0.2-0.2-0.5-0.4-0.7-0.6
			c-0.3-0.3-0.6-0.5-0.9-0.7c-1.8-1.2-1.6-2.9-1.4-4.5c0-0.2,0-0.5,0.1-0.7c0-0.6,0.2-1.3,0.4-1.9c0.1-0.2,0.1-0.4,0.2-0.6
			c0.1-0.3,0.2-0.7,0.3-1c0.2-1,0.5-2,0.9-2.9c0.4-0.9,0-1.4-0.6-2.1c-0.1,0.1-0.2,0.3-0.3,0.4c-0.3,0.4-0.5,0.8-0.7,1.2
			c-0.8,1.5-1.6,3.1-2.4,4.6c-0.3,0.6-0.6,1.2-0.9,1.8c-0.3,0.6-0.6,0.8-1.4,0.4v0c-2.7-1.1-5.4-1.4-8.1-0.9
			c-0.7,0.1-1.4,0.2-2.1,0.3c-0.9,0.1-1.9,0.3-2.8,0.5c-1.5,0.4-3,0.9-4.4,1.4c-0.5,0.2-1.1,0.4-1.6,0.6c-0.4,0.2-0.9,0.3-1.3,0.5
			c-0.2,0.1-0.4,0.2-0.6,0.2l-0.1,0l0,0c0,0,0-0.1-0.1-0.1c0,0-0.1-0.1-0.1-0.1l0,0l0-0.1c0.1-0.1,0.1-0.2,0.1-0.2
			c0.1-0.2,0.2-0.4,0.4-0.5c2.2-1.8,4.7-3.2,7.6-4.2c3.3-1.2,6.8-1.5,10.4-1.1c1.8,0.2,2.6-0.8,3.4-2.1c1.3-2.1,1.9-4.1,1.6-6.1
			c-0.1-0.5-0.2-1.1-0.4-1.6c0-0.1-0.1-0.2-0.1-0.3c-0.1-0.3-0.2-0.6-0.3-0.9c-0.1-0.2-0.1-0.3-0.2-0.5l0-0.1l0.1,0
			c0.4,0,0.7-0.1,1.1-0.1c0.8-0.1,1.5-0.2,2.3-0.3c1.6-0.1,3,0.4,4.5,1.7c0.9,0.7,1.7,1.5,2.5,2.2c0.5,0.4,0.9,0.8,1.4,1.2
			c0.1,0.1,0.2,0.2,0.3,0.2c0,0,0,0,0.1,0c-0.2-1.2-0.3-2.4-0.4-3.6c-0.3-2,0.6-3.6,2.6-4.8c2.2-1.3,4.7-2.3,7.9-3.2
			c4.2-1.1,8.7-1.5,13.7-1c1.5,0.1,3,0.5,4.4,0.9c0.6,0.2,1.3,0.3,2,0.5c2.6,0.6,4.8,1.8,6.5,2.7c2.5,1.4,3.5,4.1,2.5,6.9
			c-0.1,0.4-0.2,0.7-0.3,1.2c0,0.2-0.1,0.4-0.1,0.6c0.2-0.2,0.4-0.4,0.5-0.5c0.5-0.4,0.9-0.8,1.3-1.2c0.3-0.2,0.6-0.5,0.9-0.7
			c1.1-0.9,2.2-1.8,3.4-2.6c1.2-0.7,2.7-0.9,4.4-0.5c0.3,0.1,0.7,0.1,1.1,0.2c0.2,0,0.4,0.1,0.6,0.1l0.1,0l0,0.1
			c-0.1,0.2-0.1,0.4-0.2,0.7c-0.1,0.5-0.2,1-0.4,1.5c-0.9,2.9,0.2,5.3,1.3,7.1c0,0,0.1,0.1,0.1,0.1c0,0.1,0.1,0.1,0.1,0.2
			c0.8,1.5,1.9,2.1,3.7,1.9c4.9-0.5,9.4,0.4,13.6,2.7c1.1,0.6,2.2,1.4,3.2,2.1c0.5,0.3,1,0.7,1.5,1l0,0l0,0.1c0,0.1,0,0.1,0,0.2
			c0,0.1,0,0.1,0,0.2l0,0.1l-0.1,0c-0.1,0-0.2,0-0.3,0c-0.2,0-0.5,0-0.7-0.1c-3.4-1.6-6.3-2.5-9.2-2.9l-0.7-0.1
			c-1.9-0.3-3.8-0.5-5.8-0.5c-2.3,0-3.2,0.3-5.4,1.4l-0.1,0l0-0.1c-0.2-0.4-0.5-0.9-0.8-1.3c-0.5-0.9-1-1.9-1.6-2.8
			c-0.4-0.7-0.8-1.5-1.1-2.2c-0.3-0.7-0.7-1.3-1.1-2c-0.1-0.2-0.2-0.3-0.2-0.3c-0.1,0-0.2,0.1-0.4,0.3c-0.6,0.6-0.5,1.2-0.2,1.9
			c0.9,2.6,1.7,5.4,1.8,8.4c0.1,1.3-0.4,2.2-1.4,3.1c-3.7,3.2-7.8,6.3-12.5,9.3c-2.3,1.5-4.6,1.9-7,1.2c-0.2,0-0.3-0.1-0.5-0.1
			c-0.1,0-0.1,0-0.2,0c0,0,0,0.1-0.1,0.1c0,0,0,0-0.1,0.1c0.2,0.2,0.3,0.4,0.5,0.5c0.4,0.4,0.8,0.9,1.2,1.2c0.5,0.4,1.1,0.7,1.6,1.1
			c0.4,0.2,0.7,0.5,1.1,0.7c1,0.7,1.3,1.7,1.6,2.8c0.1,0.2,0.1,0.4,0.2,0.6c0.6,1.9,1.2,3.8,1.7,5.7c0.3,1.1,0.6,2.2,0.8,3.3
			c0.1,0.5,0.2,1,0.4,1.4c0.2,0.6,0.3,1.2,0.5,1.8c0.3,1.2,0.6,2.4,0.9,3.6c0.1,0.5,0.2,0.9,0.3,1.4c0.1,0.3,0.1,0.6,0.2,0.9
			c0.2,1,0.4,1.9,0.6,2.9c0.3,1.5,0.6,2.9,0.9,4.4c0,0.1,0,0.3,0,0.4c0,0.1,0,0.2,0,0.3c0,0.4,0.1,0.8,0.1,1.2
			c0.1,0.7,0.1,1.4,0.2,2.1c0.1,1.4-0.4,2.6-1.5,3.7c-1.6,1.5-3.5,2.6-5.8,3.6c-0.1,0-0.2,0.1-0.4,0.1c-0.1,0-0.2,0-0.3,0
			c-0.1,0-0.2,0-0.3,0l-0.1,0l0-0.1c0.1-0.3,0.2-0.6,0.3-0.9c0.2-0.6,0.4-1.2,0.6-1.7c0.6-1.4,1.3-2.7,2.7-3.5c0,0,0,0,0.1-0.1
			c0.1,0,0.1-0.1,0.2-0.1c0.1,0,0.2,0,0.2,0c0.6,0,1.1-0.1,1.1-1c0-0.2,0-0.3,0.1-0.5c0.1-0.5,0.1-0.9-0.1-1.4c-0.3-0.6-1-1.2-2-1.1
			c-1,0.1-2.1,0.3-2.8,1.6c-0.7,1.2-1.5,2.3-2.3,3.4c-0.5,0.7-1,1.5-1.5,2.3c-0.9,1.4-2.3,1.8-3.7,2.2l-0.2,0
			c-0.8,0.2-1.7,0.4-2.5,0.6c-0.2,0-0.4,0.1-0.6,0.1c-0.3,0.1-0.7,0.1-1,0.1l-0.4-0.1c-1.6-0.4-3.3-0.8-5-1.2
			c-1.3-0.4-2.1-1.5-2.7-2.6c-0.1-0.2-0.2-0.3-0.3-0.5c-0.3-0.4-0.6-0.9-0.8-1.3c-0.7-1.1-1.5-2.3-2.3-3.4c-0.5-0.6-1.4-1.1-2.3-1.2
			c-0.5,0-1.2,0-1.8,0.6c-0.4,0.4-0.8,1.2-0.7,1.7c0,0.1,0,0.1,0,0.2c0.1,0.7,0.2,1.5,1.3,1.6c0.7,0.1,1.4,0.9,2,1.6
			c1,1.3,1.6,2.8,2,4.8L77.7,117.7z M82.3,73.5l-0.1,0.4c-0.1,0.1-0.1,0.2-0.1,0.3c-0.5,1.1-1.3,1.6-2.2,2.1
			c-0.2,0.1-0.5,0.3-0.7,0.4c-1.3,0.8-2.4,1.7-2.7,3.2c-0.1,0.6-0.3,1.1-0.5,1.7c-0.1,0.4-0.3,0.8-0.4,1.2c-0.4,1.3-0.7,2.6-1,3.8
			l-0.1,0.5c-0.3,1.1-0.6,2.2-0.9,3.4l-0.3,1.3c-0.1,0.5-0.3,1-0.4,1.5c-0.3,1.2-0.6,2.4-0.9,3.7c-0.3,1.5-0.6,3.1-0.9,4.7
			c-0.3,1.5-0.5,3.1-0.7,4.6c-0.1,0.8-0.2,1.6-0.4,2.4c0,0.2-0.1,0.4-0.1,0.5c0,0.2-0.1,0.5-0.1,0.7c-0.1,1.1-0.1,2.3,0.9,3.1
			c1.2,1,2.7,2.2,4.3,3.3c0.5,0.3,1.1,0.6,1.8,0.8c0.3,0.1,0.6,0.2,0.9,0.3c-0.3-1.8-0.9-3.3-1.9-4.5c-0.5-0.6-1.2-1.5-1.9-1.5
			c-1.2-0.1-1.4-1-1.5-1.7c0-0.1,0-0.2,0-0.2c-0.1-0.6,0.3-1.4,0.7-1.9c0.6-0.6,1.4-0.7,1.9-0.7c0.9,0.1,1.9,0.6,2.4,1.3
			c0.8,1.1,1.6,2.3,2.3,3.4c0.3,0.4,0.6,0.9,0.8,1.3c0.1,0.2,0.2,0.3,0.3,0.5c0.7,1.1,1.4,2.2,2.7,2.5c1.6,0.5,3.3,0.8,5,1.2
			l0.4,0.1c0.3,0.1,0.6,0,0.9-0.1c0.2,0,0.4-0.1,0.6-0.1c0.8-0.2,1.7-0.3,2.5-0.6l0.2,0c1.4-0.4,2.7-0.7,3.6-2.1
			c0.5-0.8,1-1.5,1.5-2.3c0.8-1.1,1.6-2.3,2.2-3.4c0.8-1.3,1.9-1.6,2.9-1.7c1.1-0.1,1.9,0.6,2.2,1.3c0.2,0.5,0.2,1,0.1,1.5
			c0,0.1,0,0.3-0.1,0.5c-0.1,1-0.7,1.1-1.3,1.1c-0.1,0-0.2,0-0.2,0c0,0-0.1,0-0.1,0.1c0,0-0.1,0.1-0.1,0.1c-1.3,0.7-2,2-2.6,3.4
			c-0.2,0.5-0.4,1.1-0.6,1.7c-0.1,0.2-0.2,0.5-0.2,0.8c0.1,0,0.1,0,0.2,0c0.1,0,0.2,0,0.3,0c0.1,0,0.2,0,0.3-0.1
			c2.2-0.9,4.1-2.1,5.7-3.6c1.1-1,1.6-2.1,1.5-3.5c-0.1-0.7-0.1-1.4-0.2-2.1c0-0.4-0.1-0.8-0.1-1.2c0-0.1,0-0.2,0-0.3
			c0-0.1,0-0.3,0-0.4c-0.3-1.5-0.6-2.9-0.9-4.4c-0.2-1-0.4-1.9-0.6-2.9c-0.1-0.3-0.1-0.6-0.2-0.9c-0.1-0.5-0.2-0.9-0.3-1.4
			c-0.3-1.2-0.6-2.4-0.9-3.6c-0.2-0.6-0.3-1.2-0.5-1.8c-0.1-0.5-0.2-1-0.4-1.4c-0.3-1.1-0.5-2.2-0.8-3.3c-0.5-1.9-1.1-3.8-1.7-5.7
			c-0.1-0.2-0.1-0.4-0.2-0.6c-0.3-1-0.7-2.1-1.6-2.7c-0.4-0.2-0.7-0.5-1.1-0.7c-0.5-0.3-1.1-0.7-1.6-1.1c-0.5-0.4-0.8-0.8-1.2-1.2
			c-0.2-0.2-0.3-0.4-0.5-0.6l0-0.1l0-0.1c0,0,0.1-0.1,0.1-0.1c0,0,0.1-0.1,0.1-0.1l0,0l0,0c0.1,0,0.2,0,0.2,0c0.2,0,0.4,0,0.6,0.1
			c2.3,0.7,4.6,0.3,6.8-1.2c4.7-3.1,8.8-6.1,12.5-9.3c1-0.9,1.4-1.7,1.3-3c-0.1-2.9-0.9-5.7-1.8-8.3c-0.3-0.8-0.4-1.4,0.2-2.1
			c0.2-0.2,0.4-0.3,0.5-0.3c0.2,0,0.3,0.2,0.4,0.4c0.4,0.7,0.7,1.4,1.1,2c0.4,0.7,0.8,1.4,1.1,2.2c0.5,0.9,1,1.9,1.6,2.8
			c0.2,0.4,0.5,0.9,0.7,1.3c2.1-1.1,3.1-1.3,5.4-1.4c1.9,0,3.9,0.3,5.8,0.5l0.7,0.1c2.9,0.4,5.8,1.3,9.2,2.9
			c0.2,0.1,0.4,0.1,0.7,0.1c0.1,0,0.2,0,0.3,0c0,0,0-0.1,0-0.1c0,0,0-0.1,0-0.1c-0.5-0.3-1-0.6-1.4-1c-1-0.7-2.1-1.5-3.2-2.1
			c-4.1-2.3-8.6-3.1-13.5-2.6c-1.8,0.2-3-0.4-3.8-2c0-0.1-0.1-0.1-0.1-0.2c0,0-0.1-0.1-0.1-0.1c-1.1-1.8-2.2-4.3-1.3-7.3
			c0.2-0.5,0.3-0.9,0.4-1.4c0-0.2,0.1-0.4,0.1-0.6c-0.2,0-0.4-0.1-0.5-0.1c-0.4-0.1-0.8-0.1-1.1-0.2c-1.7-0.4-3.1-0.3-4.2,0.4
			c-1.2,0.7-2.3,1.7-3.4,2.5c-0.3,0.2-0.6,0.5-0.9,0.7c-0.4,0.3-0.8,0.7-1.3,1.2c-0.2,0.2-0.5,0.5-0.7,0.7l-0.2,0.2l0-0.3
			c0.1-0.3,0.1-0.6,0.1-0.8c0.1-0.5,0.1-0.9,0.3-1.2c0.9-2.7,0-5.3-2.5-6.7c-1.7-1-4-2.2-6.5-2.7c-0.7-0.1-1.3-0.3-2-0.5
			c-1.4-0.4-2.9-0.7-4.4-0.9c-5-0.5-9.4-0.1-13.6,1c-3.2,0.9-5.7,1.9-7.8,3.2c-1.9,1.2-2.8,2.7-2.5,4.7c0.2,1.2,0.3,2.5,0.5,3.8
			l0,0.2l-0.2-0.1c-0.1-0.1-0.1-0.1-0.2-0.1c-0.1-0.1-0.2-0.2-0.3-0.3c-0.5-0.4-0.9-0.8-1.4-1.2c-0.8-0.7-1.7-1.5-2.5-2.2
			c-1.4-1.2-2.9-1.8-4.4-1.7c-0.7,0.1-1.5,0.2-2.3,0.3c-0.3,0-0.6,0.1-1,0.1c0,0.1,0.1,0.3,0.1,0.4c0.1,0.3,0.2,0.6,0.3,0.9
			c0,0.1,0.1,0.2,0.1,0.3c0.1,0.5,0.3,1.1,0.4,1.6c0.2,2-0.3,4-1.7,6.2c-0.8,1.3-1.7,2.4-3.6,2.2c-3.5-0.4-7-0.1-10.3,1.1
			c-2.9,1-5.4,2.4-7.6,4.2c-0.1,0.1-0.2,0.3-0.4,0.5c0,0.1-0.1,0.1-0.1,0.2c0,0,0,0,0,0c0,0,0,0,0,0c0.2-0.1,0.4-0.1,0.5-0.2
			c0.4-0.2,0.9-0.4,1.3-0.5c0.5-0.2,1.1-0.4,1.6-0.6c1.4-0.5,2.9-1,4.4-1.5c0.9-0.2,1.9-0.4,2.8-0.5c0.7-0.1,1.4-0.2,2.1-0.3
			c2.7-0.6,5.4-0.3,8.2,0.9l0,0c0.7,0.3,0.9,0.2,1.2-0.4c0.3-0.6,0.6-1.2,0.9-1.8c0.8-1.5,1.6-3.1,2.4-4.6c0.2-0.4,0.5-0.8,0.7-1.2
			c0.1-0.2,0.2-0.4,0.4-0.5l0.1-0.1l0.1,0.1c0.7,0.8,1.1,1.4,0.7,2.4c-0.4,0.9-0.6,1.9-0.9,2.9c-0.1,0.3-0.2,0.7-0.3,1
			c-0.1,0.2-0.1,0.4-0.2,0.6c-0.2,0.6-0.4,1.2-0.4,1.9c0,0.2,0,0.5-0.1,0.7c-0.2,1.6-0.3,3.2,1.4,4.3c0.3,0.2,0.6,0.5,0.9,0.7
			c0.2,0.2,0.5,0.4,0.7,0.6c0.8,0.6,1.6,1.2,2.4,1.8c2.5,1.9,5.1,3.8,7.7,5.6c2.2,1.6,4.1,2.2,6.1,1.9c0.5-0.1,1-0.2,1.5-0.3
			c0.3-0.1,0.6-0.1,0.9-0.2L82.3,73.5z M69,92.9l-0.1-0.1c-0.3-0.2-0.5-0.4-0.7-0.5c-0.5-0.3-0.9-0.6-1.3-1
			c-0.5-0.5-1.1-0.9-1.6-1.4c-2.4-2-5-4.1-7.4-6.2c-0.5-0.4-0.8-1.3-0.9-2c-0.3-3.2,1-6,2.2-8.5c0.1-0.3,0.3-0.6,0.5-1
			c0.1-0.2,0.2-0.4,0.4-0.6l0.1-0.1l0.1,0.2c0.8,1.8,2.1,3.1,3.9,3.9c1.2,0.5,2.3,0.9,3.6,1.4c0.5,0.2,1.1,0.4,1.6,0.6l0.1,0l0,0.1
			c-0.4,1-1.3,1.5-2.3,2c-0.1,0.1-0.2,0.1-0.4,0.2c1.3,0.7,2.6,0.9,5.1,0.7l0.1,0l0,0.1c-1,4-1.9,8-2.9,12.1L69,92.9z M60.1,71.9
			c-0.1,0.2-0.2,0.3-0.3,0.5c-0.2,0.3-0.4,0.6-0.5,1c-1.2,2.5-2.5,5.2-2.2,8.4c0.1,0.6,0.3,1.5,0.8,1.9c2.4,2.1,4.9,4.2,7.4,6.2
			c0.5,0.5,1.1,0.9,1.6,1.4c0.4,0.3,0.8,0.6,1.3,1c0.2,0.1,0.4,0.3,0.6,0.5c1-4,1.9-7.9,2.8-11.9c-2.5,0.2-3.9,0-5.2-0.8l-0.1-0.1
			l0.1-0.1c0.2-0.1,0.3-0.2,0.5-0.3c0.9-0.5,1.8-1,2.2-1.8c-0.5-0.2-1-0.4-1.6-0.6c-1.2-0.5-2.4-0.9-3.6-1.4
			C62.2,75,60.9,73.7,60.1,71.9z M109.1,92.9l-0.1-0.6c-0.9-3.9-1.8-7.7-2.8-11.5l0-0.1h0.1c0.3,0,0.6,0,0.9,0c0.6,0,1.3,0,1.9,0
			c0.6-0.1,1.1-0.2,1.7-0.4c0.2-0.1,0.4-0.1,0.6-0.2c-0.2-0.2-0.4-0.3-0.6-0.5c-0.6-0.5-1.2-0.9-1.7-1.3c-0.1-0.1-0.2-0.3-0.3-0.4
			c0-0.1-0.1-0.1-0.1-0.2l0-0.1l0.1,0c0.1,0,0.1-0.1,0.2-0.1c0.1-0.1,0.3-0.1,0.4-0.2c2.6-0.6,5.3-1.5,7.4-3.7
			c0.3-0.3,0.5-0.7,0.8-1.1c0.1-0.2,0.3-0.4,0.4-0.7l0.1-0.1l0.1,0.1c1.1,1.8,2.3,4.1,2.8,6.6c0.2,0.9,0.2,1.8,0.3,2.7l0,0.4
			c0.1,1.6-1,2.5-1.8,3.2v0c-3.5,2.9-6.9,5.7-9.5,7.9c-0.1,0.1-0.2,0.1-0.3,0.2C109.4,92.7,109.3,92.8,109.1,92.9L109.1,92.9z
			 M106.4,80.8c0.9,3.8,1.8,7.6,2.7,11.4l0.1,0.4c0.1,0,0.1-0.1,0.2-0.1c0.1-0.1,0.2-0.1,0.3-0.1c2.6-2.1,6-5,9.5-7.9l0,0
			c1.1-0.9,1.9-1.7,1.8-3.1l0-0.4c-0.1-0.9-0.1-1.8-0.3-2.6c-0.5-2.4-1.6-4.6-2.7-6.4c-0.1,0.2-0.2,0.4-0.3,0.5
			c-0.3,0.4-0.5,0.8-0.8,1.1c-2.1,2.3-4.8,3.1-7.5,3.8c-0.1,0-0.3,0.1-0.4,0.2c0,0-0.1,0-0.1,0.1c0,0,0,0.1,0.1,0.1
			c0.1,0.1,0.1,0.3,0.2,0.4c0.5,0.4,1.1,0.9,1.7,1.3c0.2,0.2,0.5,0.4,0.7,0.6l0.1,0.1l-0.2,0c-0.3,0.1-0.5,0.1-0.8,0.2
			c-0.6,0.2-1.2,0.3-1.7,0.4c-0.6,0.1-1.2,0.1-1.9,0C106.9,80.8,106.6,80.8,106.4,80.8z M52.5,51.9c-0.3,0-0.7-0.1-1-0.2
			c-3.2-1.1-6-2.2-8.7-3.3c-2.5-1-5-2-7.6-3.1c-0.8-0.3-1.7-0.7-2.5-1.2c-1.4-0.9-2-2.4-2.5-3.8l0,0c-1-2.8-0.3-5.5,0.5-7.7
			c0.4-1,0.7-2,1.1-3c0.4-1.2,0.8-2.4,1.3-3.6c0.5-1.3,1.1-2.6,1.6-3.8c0.2-0.5,0.4-1,0.6-1.5c0.3-0.6,0.6-1.3,0.9-1.9l0.3-0.6
			l0.4,0.1l0,0.1c0,0.1,0,0.3,0,0.4c0,0.3,0,0.7-0.1,1c-0.1,1-0.3,2.1-0.4,3.1c-0.2,1.4-0.4,2.9-0.6,4.3c-0.1,1-0.2,2-0.3,3
			c-0.1,0.7-0.1,1.4-0.2,2.1c-0.2,1.7,0.7,2.9,1.5,3.9c1.8,2,4,3.4,5.9,4.5c4,2.3,8.2,3.9,11.8,5.2c0.5,0.2,0.8,0.6,1,1.1
			c0.2,0.5,0.1,1.1-0.2,1.6c-0.6,1.1-1.4,2.1-2.4,3.1C53,51.8,52.8,51.9,52.5,51.9z M30.5,40.2c0.5,1.4,1.1,2.9,2.4,3.7
			c0.8,0.5,1.6,0.9,2.4,1.2c2.5,1.1,5,2.1,7.6,3.1c2.7,1,5.5,2.1,8.7,3.3c0.5,0.2,1.2,0.3,1.4,0.1c1-1,1.8-2.1,2.4-3.1
			c0.3-0.5,0.3-1,0.1-1.5c-0.2-0.5-0.5-0.8-0.9-1c-3.6-1.3-7.8-2.9-11.9-5.2c-1.9-1.1-4.2-2.5-6-4.6c-0.9-1-1.8-2.3-1.6-4.1
			c0.1-0.7,0.2-1.4,0.2-2.1c0.1-1,0.2-2,0.3-3c0.2-1.5,0.4-2.9,0.6-4.3c0.1-1,0.3-2.1,0.4-3.1c0-0.3,0.1-0.7,0.1-1
			c0-0.1,0-0.3,0-0.4l-0.2,0l-0.2,0.5c-0.3,0.6-0.6,1.3-0.9,1.9c-0.2,0.5-0.4,1-0.6,1.5c-0.5,1.2-1.1,2.5-1.6,3.8
			c-0.5,1.2-0.9,2.4-1.3,3.6c-0.3,1-0.7,2-1.1,3C30.2,34.8,29.5,37.4,30.5,40.2L30.5,40.2z M125.7,51.8c-0.3,0-0.7-0.2-1-0.4
			c-0.6-0.7-1.4-1.5-2-2.5l0,0c-0.3-0.4-0.3-1.1-0.3-1.6c0-0.7,0.3-1.1,1-1.4c0.6-0.2,1.1-0.4,1.7-0.6c2.5-1,5.2-1.9,7.7-3.2
			c3.2-1.6,6.6-3.4,8.9-6.5c1-1.3,1.3-2.5,0.9-3.8c-0.1-0.2,0-0.3,0-0.5c0-0.1,0-0.2,0-0.3c-0.3-2.7-0.7-5.7-1-8.9
			c-0.1-0.7-0.2-1.5-0.3-2.2c-0.1-0.5-0.1-0.9-0.2-1.4l0-0.1l0.5-0.1l0,0.1c0.2,0.5,0.5,1,0.7,1.5c0.5,1.1,1,2.3,1.5,3.4l0.3,0.6
			c0.9,2.1,1.8,4.3,2.5,6.6c0.1,0.4,0.3,0.8,0.4,1.1c0.8,2.3,1.6,4.6,1.2,7.2c-0.3,2.6-2.4,5.4-4.7,6.3c-1.5,0.6-3,1.2-4.4,1.8
			c-1.1,0.5-2.2,0.9-3.4,1.4c-1.9,0.7-3.9,1.5-5.8,2.2c-0.7,0.2-1.3,0.5-2,0.7c-0.2,0.1-0.3,0.1-0.5,0.2c-0.5,0.2-1.1,0.4-1.6,0.5
			C125.8,51.8,125.8,51.8,125.7,51.8z M141.2,18.5c0.1,0.4,0.1,0.9,0.2,1.3c0.1,0.7,0.2,1.5,0.3,2.2c0.4,3.2,0.7,6.1,1,8.9
			c0,0.1,0,0.2,0,0.4c0,0.2,0,0.3,0,0.5c0.4,1.3,0.2,2.6-0.9,4c-2.4,3.2-5.8,5-9,6.5c-2.5,1.2-5.1,2.2-7.7,3.2
			c-0.6,0.2-1.1,0.4-1.7,0.6c-0.6,0.2-0.9,0.6-0.9,1.3c0,0.5,0,1.2,0.3,1.5l0,0c0.6,1,1.4,1.9,2,2.5c0.2,0.2,0.7,0.4,1,0.3
			c0.5-0.1,1.1-0.3,1.6-0.5c0.2-0.1,0.3-0.1,0.5-0.2c0.7-0.2,1.3-0.5,2-0.7c1.9-0.7,3.8-1.4,5.8-2.2c1.1-0.4,2.3-0.9,3.4-1.4
			c1.4-0.6,2.9-1.2,4.4-1.8c2.2-0.8,4.2-3.5,4.6-6.1c0.3-2.6-0.5-4.9-1.2-7.1c-0.1-0.4-0.3-0.8-0.4-1.2c-0.7-2.2-1.6-4.4-2.5-6.6
			l-0.3-0.6c-0.5-1.1-1-2.3-1.5-3.4c-0.2-0.5-0.5-1-0.7-1.5L141.2,18.5z"/>
	</g>
	<path class="st2" d="M92.9,68.2c2.9-1.2,5.8-2.7,8.6-4.1c0.6-0.3,1.1-0.8,1.6-1.2c-0.2-0.1-0.4-0.1-0.5-0.1
		c-1.2,0.4-2.4,0.8-3.6,1.1c-1.4,0.4-2.9,0.8-4.3,1c-1.4,0.2-2.9,0.6-4-0.8c-0.5-0.6-0.8-1.3-1.1-2.1c-0.3-0.7-0.4-1.5-0.6-2.3
		c-0.4,0.8-0.6,1.6-0.8,2.4c-0.5,2-1.6,2.9-3.5,2.9c-1,0-2-0.2-2.9-0.4c-1.3-0.3-2.6-0.6-3.9-1c-1-0.3-2.1-0.6-3.1-0.9
		c0,0.1,0,0.1-0.1,0.2c0.1,0.1,0.2,0.2,0.3,0.3c0.1,0.1,0.2,0.2,0.3,0.2c3.4,2.1,6.8,3.9,10.6,5.1C88.5,69.1,90.8,69,92.9,68.2
		 M116.7,49.8c-0.2-0.4-0.3-0.5-0.8,0c-0.6,0.7-0.5,1.3-0.2,2c0.9,2.7,1.7,5.4,1.8,8.3c0.1,1.4-0.4,2.2-1.4,3
		c-4,3.4-8.1,6.5-12.5,9.3c-2.1,1.4-4.4,1.9-6.9,1.2c-0.2-0.1-0.5-0.1-0.8-0.1c-0.1,0.1-0.1,0.2-0.2,0.2c0.6,0.6,1.1,1.3,1.7,1.8
		c0.8,0.7,1.8,1.2,2.7,1.8c1.1,0.8,1.4,2.1,1.8,3.3c0.6,1.9,1.2,3.8,1.7,5.7c0.4,1.6,0.8,3.2,1.2,4.7c0.4,1.8,0.9,3.6,1.3,5.4
		c0.2,0.8,0.3,1.5,0.4,2.3c0.5,2.4,1,4.9,1.5,7.3c0,0.2,0,0.4,0,0.7c0.1,1.1,0.2,2.2,0.3,3.3c0.1,1.5-0.4,2.6-1.5,3.6
		c-1.7,1.6-3.6,2.7-5.7,3.6c-0.1,0-0.2,0.1-0.3,0.1c-0.1,0-0.2,0-0.6,0c0.3-0.9,0.5-1.8,0.9-2.5c0.6-1.3,1.3-2.7,2.6-3.4
		c0.1,0,0.1-0.1,0.2-0.1c0.7-0.1,1.3,0,1.4-1.1c0.1-0.7,0.2-1.3,0-1.9c-0.3-0.6-1.1-1.3-2.1-1.2c-1.1,0.1-2.2,0.4-2.9,1.6
		c-1.2,2-2.6,3.8-3.8,5.7c-0.9,1.5-2.4,1.8-3.9,2.2c-1,0.3-2.1,0.5-3.1,0.7c-0.3,0.1-0.7,0.1-1,0.1c-1.8-0.4-3.6-0.8-5.4-1.3
		c-1.5-0.4-2.2-1.8-3-3.1c-1-1.6-2-3.2-3.1-4.8c-0.8-1.1-3-1.8-4.2-0.6c-0.4,0.4-0.8,1.3-0.7,1.8c0.1,0.7,0.1,1.7,1.4,1.8
		c0.7,0.1,1.4,0.9,1.9,1.6c1,1.3,1.6,2.8,1.9,4.7c-1.1-0.4-2-0.7-2.8-1.2c-1.5-1-2.9-2.1-4.3-3.3c-1-0.8-1-2-0.9-3.2
		c0.1-0.4,0.1-0.8,0.2-1.3c0.4-2.3,0.7-4.7,1.1-7c0.3-1.6,0.6-3.1,0.9-4.7c0.4-1.7,0.9-3.4,1.3-5.2c0.4-1.5,0.8-3.1,1.2-4.6
		c0.4-1.5,0.8-2.9,1.2-4.4c0.3-1,0.8-1.9,1-2.8c0.3-1.7,1.5-2.5,2.7-3.3c1.1-0.7,2.3-1.2,2.9-2.5c0.1-0.1,0.1-0.3,0.2-0.6
		c-0.9,0.2-1.6,0.3-2.4,0.4c-2.3,0.3-4.3-0.7-6.2-2c-3.4-2.4-6.7-4.9-10-7.4c-0.6-0.4-1-1-1.6-1.3c-2-1.3-1.5-3.3-1.3-5.2
		c0.1-0.8,0.4-1.7,0.6-2.5c0.4-1.3,0.6-2.7,1.1-4c0.4-1,0-1.5-0.7-2.3c-0.4,0.6-0.8,1.1-1.1,1.7c-1.1,2.1-2.3,4.3-3.4,6.4
		C57,58,56.8,58.2,56,57.9c-2.6-1.1-5.3-1.5-8.1-0.9c-1.6,0.3-3.3,0.4-4.9,0.8c-2.1,0.6-4,1.3-6.1,2c-0.7,0.2-1.3,0.5-1.9,0.8
		c-0.1-0.1-0.1-0.1-0.2-0.2c0.2-0.2,0.3-0.5,0.5-0.7c2.3-1.9,4.8-3.3,7.6-4.2c3.4-1.2,6.8-1.5,10.3-1.1c1.9,0.2,2.7-0.9,3.5-2.1
		c1.2-1.8,1.9-3.9,1.7-6.1c-0.1-0.7-0.3-1.3-0.5-2c-0.1-0.4-0.3-0.9-0.5-1.4c1.2-0.2,2.3-0.3,3.4-0.4c1.7-0.1,3.2,0.6,4.4,1.7
		c1.3,1.1,2.6,2.3,3.9,3.5c0.1,0.1,0.3,0.2,0.5,0.4c-0.2-1.3-0.3-2.5-0.5-3.8c-0.3-2.2,0.9-3.7,2.6-4.7c2.4-1.5,5.1-2.4,7.8-3.2
		c4.5-1.2,9.1-1.4,13.7-1c2.1,0.2,4.2,0.9,6.3,1.4c2.3,0.5,4.4,1.5,6.5,2.7c2.5,1.4,3.4,4,2.5,6.8c-0.2,0.5-0.2,1.1-0.4,2
		c0.8-0.7,1.4-1.3,2-1.9c1.4-1.1,2.8-2.3,4.3-3.3c1.3-0.8,2.8-0.8,4.3-0.4c0.5,0.1,1.1,0.2,1.7,0.3c-0.2,0.7-0.3,1.4-0.6,2.1
		c-0.9,2.7,0,5,1.3,7.2c0.1,0.1,0.1,0.2,0.2,0.3c0.8,1.5,1.9,2.1,3.7,2c4.7-0.5,9.3,0.3,13.5,2.6c1.6,0.9,3.1,2,4.7,3.1
		c0,0.1-0.1,0.3-0.1,0.4c-0.3,0-0.7,0-1-0.1c-3-1.4-6-2.5-9.2-2.9c-2.1-0.3-4.3-0.6-6.5-0.6c-2.3,0-3.3,0.3-5.4,1.4
		c-0.8-1.4-1.6-2.8-2.3-4.2C118.1,52.6,117.4,51.2,116.7,49.8"/>
	<path class="st0" d="M63.9,71.2c0-0.8,0.2-1.1,0.1-1.7c0-0.3-0.1-0.8-0.3-1.3l8.3,5.2c0.5,0.3,0.7,0.9,0.4,1.4L72,75.8
		c-0.2,0.6-0.9,0.8-1.4,0.5c-0.6-0.2-1.1-0.4-1.7-0.6c-2.8-1-4.9-2.3-5-3.4C63.9,71.7,63.9,71.2,63.9,71.2"/>
	<path class="st0" d="M114.1,71.2c0-0.8-0.2-1.1-0.1-1.7c0-0.3,0.1-0.8,0.3-1.3l-8.3,5.2c-0.5,0.3-0.7,0.9-0.4,1.4l0.5,1.1
		c0.2,0.6,0.9,0.8,1.4,0.5c0.6-0.2,1.1-0.4,1.7-0.6c2.8-1,4.9-2.3,5-3.4C114.2,71.7,114.1,71.2,114.1,71.2"/>
</g>
</svg>
