<svg id="Camada_1" data-name="Camada 1" xmlns="http://www.w3.org/2000/svg" viewBox="0 0 1594.08 306.72"><defs><style>.cls-1{fill:#fff;}.cls-2{fill:#46d8d5;}</style></defs><title>LOGO PNG SEM FUNDO</title><path class="cls-1" d="M1365.87,268.31c-27.27,0-48.08.05-68.89,0-14.7-.05-14.93-.44-11.78-15.1,2-9.26,3.91-18.54,5.72-27.84,1.5-7.73,5.45-10.45,13.24-10.36,38.44.49,76.88.39,115.31.25a175.86,175.86,0,0,0,21.08-1.83c5-.62,9.43-2.91,9.6-9s-4.88-7-8.94-8.16c-29.51-8.51-59.11-16.71-88.61-25.28-37-10.77-47.41-39.37-28.51-75.88,15.25-29.44,40.41-41.74,70-42.48,47.42-1.18,94.91-2.42,142.38-.84,8.67.29,11.5,3.19,8.6,12-1.93,5.85-3.26,11.91-4.84,17.87C1534,105.06,1534,105,1510.46,105q-53.6,0-107.2.14c-3.53,0-7.08,0-10.59.37-5.79.56-11.51,2.43-12.16,9.37-.69,7.4,5.88,7.78,10.58,9.09,29.6,8.25,59.25,16.28,88.84,24.52a115.51,115.51,0,0,1,14.47,5.19c15.54,6.66,23.2,18.18,21.37,35.79-5.08,48.71-27.48,72-72.8,77.11-27.81,3.13-55.71,1.12-77.1,1.72"/><path class="cls-1" d="M940.92,52q31.22,0,62.44,0c3.53,0,7.08,0,10.6.27,47.64,3.78,67.15,35.57,52,83.1-9,28.46-25.79,47.43-53.55,55.64-12.09,3.57-12.09,4.82-4.45,15.55,11.77,16.52,23.43,33.13,35.22,49.64,5.36,7.51,3.72,10.76-5.21,10.89-16.47.23-33,.61-49.41,1.37-8.78.41-14.83-3.2-19.71-10.74-10.82-16.72-22.21-33-33.06-49.73-3.67-5.65-7.93-8.57-14.61-8.23-11.35.57-24.3-2.9-33.66,1.78-10.34,5.18-6.47,21.67-11.48,32.26a34.82,34.82,0,0,0-1.71,5.92c-8.15,30.12-8.15,30.14-38.14,28.41-3.92-.22-7.82-1-11.73-1.08-17.74-.22-18.61,1.28-13.82-18.55,7-28.8,14.9-57.34,22-86.09,2.18-8.79,6.79-11.61,15.2-11.53,35.34.34,70.69.26,106,0,12.54-.1,25.17-.66,37.11-5.47,6-2.42,11-6,13.62-12.78,6.59-17.34.82-27.16-17.59-27.36-41.23-.46-82.47-.21-123.71-.26-15.64,0-15.76-.2-11.69-15.8a47.75,47.75,0,0,1,1.26-4.77c3.8-10.29.77-24.8,9.67-30.84,8.42-5.71,20.64-1.31,31.18-1.54,15.7-.33,31.42-.08,47.13-.08Z"/><path class="cls-1" d="M874.12,50.63c6.1,0,12.74,1.41,18.86,1.41h.81c6.33-.13,12.66-.17,19-.17,9.38,0,18.76.09,28.14.09v0h62.44c3.53,0,7.08,0,10.6.27,47.64,3.79,67.15,35.57,52,83.09-9,28.47-25.79,47.44-53.55,55.65-12.09,3.57-12.09,4.82-4.45,15.54,11.77,16.53,23.43,33.14,35.22,49.65,5.36,7.51,3.72,10.76-5.21,10.89-16.47.23-33,.61-49.41,1.37l-1.32,0c-8.07,0-13.76-3.61-18.39-10.77-10.82-16.72-22.21-33-33.06-49.73-3.48-5.36-7.49-8.26-13.58-8.26l-1,0c-.91,0-1.83.07-2.76.07-5.82,0-11.93-.78-17.69-.78-4.77,0-9.3.54-13.21,2.49-10.34,5.19-6.47,21.67-11.48,32.26a34.82,34.82,0,0,0-1.71,5.92c-6.58,24.31-7.85,29-23.86,29-3.83,0-8.5-.26-14.28-.6-3.92-.22-7.82-1-11.73-1.08-17.74-.22-18.61,1.28-13.82-18.55,7-28.8,14.9-57.34,22-86.09,2.15-8.67,6.66-11.53,14.85-11.53h.35q24.08.23,48.15.22,29,0,57.88-.26c12.54-.1,25.17-.66,37.11-5.47,6-2.42,11-6,13.62-12.78,6.59-17.34.82-27.16-17.59-27.36-21-.23-42-.28-63-.28l-47.43,0H863.37c-15.64,0-15.76-.2-11.69-15.8a47.75,47.75,0,0,1,1.26-4.77c3.8-10.29.77-24.8,9.67-30.83,3.35-2.28,7.3-2.95,11.51-2.95"/><path class="cls-1" d="M549.69,268.42H543.8c-26.31.06-23.69.37-29.14-23.13-1.75-7.56-5.14-9.57-12.31-9.41-24.33.54-48.68.31-73,.26-3,0-6.87.84-8.47-2.72s1.55-6.18,3.45-8.55c9.1-11.36,18.47-22.48,27.67-33.76,3.48-4.28,8.12-4.55,12.89-4.56q8.83,0,17.67,0c18.31,0,18.42,0,13.71-19.35-3.31-13.6-6.92-27.12-10.54-40.62-.61-2.27-1.51-5.53-3.08-6.19-3.24-1.35-4.47,2.56-6.06,4.63-33.26,43.36-66.68,86.59-99.4,130.39-7.07,9.46-14.58,13.69-25.9,13.14-14.45-.7-28.94-2.3-43.47-.42-3.24.41-7.8,1.5-9.42-2.78-1.33-3.48,2.3-5.79,4.22-8.24Q345.23,202.59,388,148.16c17.48-22.28,35.34-44.23,52.39-66.87C456.51,59.8,476,47,503.06,49.6c17,1.63,30.62,12.48,35.12,29.91q22.07,85.44,43.68,171c4,16,3.74,16.23-12.17,17.4-6.63.49-13.33.08-20,.08v.43"/><path class="cls-1" d="M1148.6,269.13a134.33,134.33,0,0,1-47.4-5.79c-28.11-8.74-40.83-27.69-37.4-58.38,3.62-32.48,14.58-63.28,21.65-95,3.4-15.22,8.35-30.11,11-45.56,1.48-8.66,5.38-12.93,14.25-12.59,13.33.52,26.69.36,40,.09,8.36-.16,10.06,3.47,8,11.53-9.75,38.26-19,76.66-28.77,114.92-6.44,25.29-.06,34.91,24.77,35.41,13.34.27,26.71.23,40-.52,17.33-1,28.14-10.76,32.62-28.52q15.39-61,30.58-122.1c1.54-6.24,4-10.61,10.9-10.59q21.8.09,43.57-.1c7.39-.07,8.51,3.86,6.83,10.41-12.42,48.61-23.82,97.54-37.47,145.76-8,28.21-27.43,46.72-54.68,54.9-25.21,7.57-51,8.05-78.5,6.12"/><path class="cls-1" d="M692.56,213.86c45.05,0,48.43-3.12,59.84-49.42,8.37-33.95,17.79-67.62,26.35-101.53,2.1-8.3,6.26-11.39,14.22-11.09q18.24.68,36.51,0c9.11-.32,12,3.16,9.58,12.56-9.2,35.44-17.91,71-27.27,106.41-3.77,14.3-5.92,29.06-11.44,42.87-14.78,37-44.25,51.19-79.27,54.73-32.41,3.28-65,3.24-97.14-4.29-28.73-6.74-45.54-32.26-39.58-62.78,9.33-47.73,23.15-94.29,34.39-141.53,1.4-5.89,4.88-7.93,10.27-7.9,13.73.1,27.48.28,41.22,0,9-.19,10.63,4.11,8.55,12.42-9.49,37.91-18.46,76-28.19,113.81-6.63,25.75-.9,34.75,24.29,35.69,5.88.22,11.78,0,17.67,0"/><path class="cls-1" d="M417.15,50.58a27.67,27.67,0,0,0,12.32-3.32c10.13-5.59,12.65-15.59,14.47-14.8,1.35.58-1.07,12.49-7.61,27.23s-15.87,35.76-35.62,43.1c-3.78,1.41-6.83,2.71-11.1,2.42-7-.48-33.15-.32-69.51-.13-21.2,0-42.46.92-63.6-.34-13.05-.78-17.55,4.63-20.57,17.13-10.41,43.2-22.25,86-32.91,129.16-2.76,11.16-6.83,17.29-19,16.3-10.86-.89-21.91.25-32.86.94-10.07.63-13.55-3.42-10.83-13.92,7.93-30.68,15.59-61.43,23.33-92.16,3.93-15.56,7.63-31.19,11.77-46.68,2.09-7.81-.29-10.41-7.83-10.32-23.16.28-46.34-.16-69.5.18-5.53.08-8.21-1.24-11.58-2.48C62.44,94,53,65,50.12,56c-4.11-12.67-5-23.82-3.34-24.39,1.91-.65,3.67,7.7,11.81,13.25a27.85,27.85,0,0,0,15,4.56l343.6,1.14"/><path class="cls-2" d="M1365.87,267.66c-27.27,0-48.08,0-68.89,0-14.7,0-14.93-.43-11.78-15.09,2-9.26,3.91-18.54,5.72-27.85,1.5-7.72,5.45-10.45,13.24-10.35,38.44.48,76.88.38,115.31.25a180.07,180.07,0,0,0,21.08-1.83c5-.62,9.43-2.91,9.6-9s-4.88-7-8.94-8.15c-29.51-8.51-59.11-16.71-88.61-25.28-37-10.77-47.41-39.38-28.51-75.88,15.25-29.44,40.41-41.75,70-42.48,47.42-1.19,94.91-2.42,142.38-.84,8.67.29,11.5,3.19,8.6,12-1.93,5.84-3.26,11.9-4.84,17.87-6.17,23.38-6.17,23.33-29.73,23.33q-53.6,0-107.2.13c-3.53,0-7.08,0-10.59.38-5.79.56-11.51,2.43-12.16,9.37-.69,7.4,5.88,7.77,10.58,9.08,29.6,8.26,59.25,16.28,88.84,24.52a115.56,115.56,0,0,1,14.47,5.2c15.54,6.66,23.2,18.18,21.37,35.78-5.08,48.72-27.48,72-72.8,77.11-27.81,3.14-55.71,1.13-77.1,1.73"/><path class="cls-2" d="M1488.05,55c17.37,0,33.15.24,48.25.75,4.65.15,5.41,1.11,5.41,1.12s.5,1-.76,4.85c-1.41,4.3-2.52,8.7-3.59,13q-.64,2.61-1.32,5.19c-2.72,10.29-4.22,16-6.72,18s-8.46,2-18.28,2h-1.8c-35.74,0-71.45.07-106,.13-3.7,0-7.32,0-11,.4-9.91,1-15.32,5.48-16.06,13.45-1,10.37,7.73,12.45,11.92,13.45.63.15,1.26.3,1.85.46,15.31,4.27,30.88,8.55,46,12.69,14.06,3.86,28.6,7.85,42.89,11.83a111.34,111.34,0,0,1,13.94,5c14.33,6.14,20.28,16,18.71,31.09-4.83,46.33-25.46,68.19-69,73.09a347.93,347.93,0,0,1-38.44,1.79c-5.13,0-10.16-.06-15-.11-4.58-.05-9-.1-13.27-.1-3.78,0-7,0-10,.12h-43.39c-8.76,0-17.09,0-25.43,0-3,0-7.51,0-9.11-.48-.06-1.67.85-5.9,1.52-9.07,2.3-10.73,4.13-19.6,5.75-27.94,1-5.28,2.87-6.72,8.61-6.72h.35c19.5.24,40.16.36,65,.36,17.08,0,34.24-.05,50.35-.11a167.81,167.81,0,0,0,20.07-1.68l1.5-.19c8.31-1,13.19-5.89,13.4-13.34.26-9.18-7.31-11.32-11.38-12.46l-.72-.21c-13.27-3.83-26.77-7.65-39.83-11.35-16-4.53-32.54-9.21-48.78-13.93s-27.44-13.31-32-24.73c-4.85-12-2.72-27.44,6.17-44.6,13.39-25.86,35.68-39.35,66.27-40.12l2.54-.06c30-.75,60.92-1.52,91.36-1.52m0-4.54c-31.34,0-62.69.8-94,1.58-29.55.74-54.72,13.05-70,42.49-18.9,36.5-8.54,65.1,28.51,75.87,29.5,8.58,59.1,16.78,88.62,25.29,4,1.17,9.09,2.2,8.93,8.15s-4.59,8.36-9.6,9a177.94,177.94,0,0,1-21.08,1.83q-25.17.09-50.33.11-32.49,0-65-.36h-.4c-7.53,0-11.37,2.76-12.84,10.35-1.81,9.31-3.74,18.59-5.72,27.85-3.15,14.66-2.92,15.05,11.78,15.09,8.34,0,16.68,0,25.44,0h43.45c3.17-.09,6.48-.12,9.91-.12,8.76,0,18.31.21,28.29.21a347,347,0,0,0,38.9-1.82c45.32-5.1,67.72-28.39,72.8-77.1,1.83-17.61-5.83-29.13-21.37-35.79a115.56,115.56,0,0,0-14.47-5.2c-29.59-8.24-59.24-16.26-88.84-24.51-4.7-1.32-11.27-1.7-10.58-9.09.65-6.95,6.37-8.81,12.16-9.37,3.51-.34,7.06-.37,10.59-.38q53-.09,106-.13h1.8c23,0,23-.15,29.15-23.33,1.58-6,2.91-12,4.84-17.87,2.9-8.81.08-11.71-8.6-12-16.13-.54-32.25-.75-48.38-.75"/><path class="cls-2" d="M940.92,51.35q31.22,0,62.44,0c3.53,0,7.08,0,10.6.27,47.64,3.78,67.15,35.57,52,83.09-9,28.47-25.79,47.44-53.55,55.64-12.09,3.58-12.09,4.82-4.45,15.55,11.77,16.53,23.43,33.13,35.22,49.64,5.36,7.52,3.72,10.77-5.21,10.9-16.47.23-33,.61-49.41,1.37-8.78.4-14.83-3.2-19.71-10.74-10.82-16.72-22.21-33-33.06-49.74-3.67-5.65-7.93-8.56-14.61-8.22-11.35.57-24.3-2.91-33.66,1.78-10.34,5.18-6.47,21.67-11.48,32.26a35,35,0,0,0-1.71,5.91c-8.15,30.13-8.15,30.15-38.14,28.42-3.92-.23-7.82-1-11.73-1.09-17.74-.21-18.61,1.29-13.82-18.54,7-28.8,14.9-57.34,22-86.1,2.18-8.79,6.79-11.6,15.2-11.52q53,.49,106,0c12.54-.1,25.17-.67,37.11-5.48,6-2.41,11-6,13.62-12.77,6.59-17.34.82-27.16-17.59-27.36-41.23-.46-82.47-.21-123.71-.27-15.64,0-15.76-.19-11.69-15.79a47.94,47.94,0,0,1,1.26-4.78c3.8-10.28.77-24.79,9.67-30.83,8.42-5.71,20.64-1.31,31.18-1.54,15.7-.34,31.42-.09,47.13-.09Z"/><path class="cls-2" d="M874.12,54.52a83.24,83.24,0,0,1,9,.68,90.82,90.82,0,0,0,9.9.73h.9c5.57-.12,11.58-.17,18.9-.17q7,0,14.05,0l9.77,0v.06h35.82l30.94,0h.52c3.37,0,6.57,0,9.75.26,21.82,1.73,37.77,9.64,46.14,22.89s9.17,32.11,2.13,54.23c-9,28.43-25.13,45.18-50.63,52.71-6.65,2-11.11,3.58-12.5,7.87-1.48,4.59,1.72,9.08,5.77,14.77q7.88,11.07,15.71,22.17c6.38,9,13,18.34,19.51,27.48a17.84,17.84,0,0,1,1.93,3.24,16.49,16.49,0,0,1-3.75.39c-19.46.27-35.2.71-49.54,1.37l-1.12,0c-6.41,0-10.85-2.63-14.83-8.79-5.57-8.6-11.38-17.23-17-25.57-5.32-7.9-10.81-16.06-16.07-24.17-4.54-7-10-10.23-17.15-10.23q-.62,0-1.23,0c-.85,0-1.7.06-2.56.06-2.78,0-5.75-.19-8.62-.38s-6.06-.39-9.07-.39c-6.28,0-11.07.93-15.06,2.93-8.52,4.27-9.72,13.71-10.77,22-.56,4.39-1.13,8.94-2.72,12.29a24.77,24.77,0,0,0-1.62,5.11c-.12.53-.24,1.07-.39,1.6-3,11.17-5,18.55-7.63,22.06-1.8,2.42-4.17,3.65-12.07,3.65-3.72,0-8.28-.26-14-.59-1.57-.09-3.15-.29-4.83-.5a64.12,64.12,0,0,0-7.08-.6l-3.53,0c-3.52,0-7.15,0-8.53-.44-.13-2,1.3-8,2.37-12.41,3.82-15.81,8-31.82,12.06-47.3,3.32-12.69,6.76-25.81,10-38.77,1.55-6.23,4-8.13,10.68-8.13h.31c15.33.14,31.54.22,48.19.22,18.17,0,37.11-.09,57.92-.26,12.54-.1,25.85-.64,38.62-5.78,5.19-2.09,12.51-6,16.07-15.32,3.88-10.21,3.93-18.41.13-24.38s-11.11-9.1-21.68-9.22c-22.51-.24-44.52-.28-63.07-.28l-23.74,0H863.38c-3.59,0-8,0-9.65-.44.07-1.8,1.19-6.09,2.11-9.62.14-.56.27-1.11.4-1.67A21.89,21.89,0,0,1,857,85.4c1.57-4.26,2.09-8.88,2.6-13.34.76-6.77,1.41-12.63,5.39-15.32,2.23-1.52,5.15-2.22,9.17-2.22m0-4.54c-4.21,0-8.16.67-11.51,2.94-8.9,6-5.87,20.55-9.67,30.83a47.94,47.94,0,0,0-1.26,4.78c-4.07,15.6-3.95,15.77,11.69,15.79h13.21q23.73,0,47.47,0c21,0,42,0,63,.28,18.41.21,24.18,10,17.59,27.37-2.59,6.79-7.62,10.36-13.62,12.77-11.94,4.81-24.57,5.38-37.11,5.48q-28.94.24-57.88.26-24.07,0-48.15-.22h-.35c-8.18,0-12.7,2.85-14.85,11.52-7.14,28.76-15.08,57.3-22,86.1-4.79,19.83-3.92,18.33,13.82,18.54,3.91.05,7.81.87,11.73,1.09,5.78.33,10.45.6,14.28.6,16,0,17.28-4.7,23.86-29a35,35,0,0,1,1.71-5.91c5-10.59,1.14-27.08,11.48-32.26,3.91-2,8.44-2.49,13.21-2.49,5.76,0,11.87.77,17.69.77q1.39,0,2.76-.06l1,0c6.09,0,10.1,2.9,13.58,8.25,10.85,16.7,22.24,33,33.06,49.74,4.63,7.16,10.32,10.77,18.4,10.77l1.31,0c16.46-.76,32.94-1.14,49.41-1.37,8.93-.13,10.57-3.38,5.21-10.9-11.79-16.5-23.45-33.11-35.22-49.64-7.64-10.73-7.64-12,4.45-15.55,27.76-8.2,44.5-27.17,53.55-55.64,15.12-47.52-4.39-79.31-52-83.09-3.52-.28-7.07-.27-10.6-.27l-30.94,0h-31.5v-.06c-9.38,0-18.76-.08-28.14-.08-6.33,0-12.66,0-19,.17H893c-6.12,0-12.76-1.41-18.86-1.41"/><path class="cls-2" d="M549.69,267.77H543.8c-26.31.05-23.69.37-29.14-23.14-1.75-7.55-5.14-9.56-12.31-9.4-24.33.54-48.68.31-73,.26-3,0-6.87.84-8.47-2.72s1.55-6.18,3.45-8.55c9.1-11.36,18.47-22.49,27.67-33.77,3.48-4.27,8.12-4.55,12.89-4.56h17.67c18.31,0,18.42,0,13.71-19.36-3.31-13.59-6.92-27.11-10.54-40.62-.61-2.26-1.51-5.53-3.08-6.18-3.24-1.35-4.47,2.55-6.06,4.62-33.26,43.37-66.68,86.59-99.4,130.39-7.07,9.47-14.58,13.7-25.9,13.15-14.45-.71-28.94-2.3-43.47-.43-3.24.42-7.8,1.51-9.42-2.78-1.33-3.47,2.3-5.78,4.22-8.23Q345.23,201.94,388,147.51c17.48-22.28,35.34-44.24,52.39-66.88C456.51,59.15,476,46.35,503.06,49c17,1.63,30.62,12.47,35.12,29.9q22.07,85.44,43.68,171c4,16,3.74,16.22-12.17,17.4-6.63.49-13.33.08-20,.08v.43"/><path class="cls-2" d="M496.27,53.15c2.08,0,4.24.11,6.4.32C518.39,55,530.11,64.91,534,80c14.38,55.71,29.08,113.23,43.68,171,.93,3.71,2.2,8.73,2,10.35-1.41.7-6.34,1.07-10.34,1.36-2.12.16-4.41.23-7.18.23-2.06,0-4.12,0-6.18-.08s-4.23-.08-6.34-.08h-4.31v.43h-6c-7.88,0-13.19-.11-15.13-1.62-1.68-1.3-2.6-5.45-4.12-12.34-.38-1.73-.8-3.63-1.29-5.72-2.09-9-6.8-12.88-15.74-12.88h-.85c-10.86.24-22.34.35-37.22.35q-10.65,0-21.3,0l-14.44,0c-.52,0-1.07,0-1.63.05s-.93,0-1.4,0a6.94,6.94,0,0,1-1.46-.12h0l-.06-.12a12,12,0,0,1,1.77-2.37c.38-.44.75-.86,1.09-1.28,5.49-6.86,11.19-13.76,16.69-20.43q5.49-6.65,10.95-13.31c2.06-2.52,4.74-3,9.63-3h19.84c7.92,0,13.65,0,16.68-4.11s1.74-9.78-1-20.91c-3.25-13.33-6.71-26.33-10.57-40.73-.82-3.06-2.06-7.68-5.64-9.17a7.33,7.33,0,0,0-2.85-.6c-4.09,0-6.17,3.4-7.41,5.43-.28.46-.55.9-.75,1.17l-19.78,25.76c-26.25,34.18-53.4,69.52-79.65,104.67-6.08,8.14-12,11.46-20.59,11.46-.56,0-1.13,0-1.72,0-2.91-.14-5.83-.32-8.74-.5-6.5-.39-13.22-.8-19.9-.8a120.14,120.14,0,0,0-15.55.91l-.95.13a21.31,21.31,0,0,1-2.74.27,3.42,3.42,0,0,1-1.1-.13,17.26,17.26,0,0,1,1.61-1.85,26.33,26.33,0,0,0,1.83-2.05c30.11-38.5,60-76.67,85.35-108.93,5.6-7.15,11.35-14.38,16.9-21.38,11.77-14.83,23.94-30.16,35.54-45.57,15.56-20.67,32.26-30.3,52.55-30.3m0-4.54c-23.57,0-41.15,12.38-55.93,32-17,22.64-34.91,44.6-52.39,66.88q-42.7,54.44-85.35,108.94c-1.91,2.45-5.55,4.76-4.23,8.23,1,2.59,3,3.22,5.22,3.22a34,34,0,0,0,4.21-.43,116.79,116.79,0,0,1,15-.89c9.5,0,19,.84,28.45,1.31.65,0,1.29.05,1.91.05,10.26,0,17.31-4.28,24-13.2,32.72-43.8,66.15-87,99.4-130.39,1.36-1.77,2.47-4.9,4.79-4.9a3.15,3.15,0,0,1,1.27.28c1.57.65,2.47,3.92,3.08,6.18,3.62,13.51,7.23,27,10.54,40.62,4.52,18.57,4.6,19.37-11.53,19.37H464.87c-4.78,0-9.4.29-12.89,4.56-9.2,11.28-18.57,22.41-27.67,33.77-1.9,2.37-5.06,5-3.45,8.55,1.08,2.42,3.21,2.8,5.41,2.8,1,0,2.07-.08,3-.08h0c11.9,0,23.8.09,35.71.09,12.44,0,24.88-.07,37.31-.35h.76c6.65,0,9.86,2.13,11.55,9.41,5.12,22.11,3.11,23.15,24.73,23.15h10.3v-.43c4.17,0,8.35.16,12.52.16,2.5,0,5-.06,7.49-.24,15.9-1.18,16.2-1.44,12.17-17.41q-21.63-85.56-43.69-171c-4.5-17.43-18.1-28.27-35.12-29.9q-3.48-.35-6.79-.34"/><path class="cls-2" d="M1148.6,268.48a134.33,134.33,0,0,1-47.4-5.79c-28.11-8.74-40.83-27.69-37.4-58.39,3.62-32.48,14.58-63.27,21.65-95,3.4-15.23,8.35-30.11,11-45.56,1.48-8.66,5.38-12.94,14.25-12.6,13.33.52,26.69.37,40,.1,8.36-.17,10.06,3.47,8,11.52-9.75,38.27-19,76.66-28.77,114.93-6.44,25.28-.06,34.91,24.77,35.41,13.34.27,26.71.23,40-.53,17.33-1,28.14-10.76,32.62-28.52Q1242.76,123,1258,62c1.54-6.24,4-10.62,10.9-10.59q21.8.09,43.57-.1c7.39-.08,8.51,3.86,6.83,10.41-12.42,48.61-23.82,97.54-37.47,145.75-8,28.22-27.43,46.72-54.68,54.91-25.21,7.56-51,8.05-78.5,6.12"/><path class="cls-2" d="M1109.72,55.69h.81c6,.23,12.35.35,19.43.35,7.53,0,15.1-.14,20.84-.25h.47c3.11,0,3.78.68,3.78.68s.57,1-.49,5.14c-4.86,19.08-9.68,38.51-14.34,57.29s-9.54,38.45-14.43,57.63c-3.77,14.78-3.3,24.36,1.5,31.08,4.7,6.57,13.4,9.77,27.36,10,5.08.1,9.74.15,14.23.15,9.45,0,18-.22,26.1-.68,18.93-1.08,31.57-12.1,36.56-31.89,9.13-36.18,19.89-79,30.58-122.12,1.53-6.15,3.29-7.19,6.72-7.19q7.64,0,15.28,0c10,0,19.27,0,28.34-.13h.16a5.67,5.67,0,0,1,2.89.47s.41,1-.42,4.22c-3.88,15.17-7.72,30.62-11.43,45.56-8.18,32.92-16.64,67-26,100.08-7.35,26-25.23,43.88-51.73,51.83-15.69,4.71-32.34,6.91-52.37,6.91-7.5,0-15.56-.31-24.65-.95l-.27,0h-.26c-2.45.15-4.94.22-7.42.22a129.63,129.63,0,0,1-38.51-5.82c-26.59-8.27-37.5-25.27-34.35-53.51,2.33-20.86,7.87-41.52,13.24-61.51,2.88-10.75,5.86-21.87,8.34-33,1.34-6,3-12.1,4.53-18,2.4-9,4.88-18.32,6.5-27.8,1.13-6.63,3.41-8.87,9-8.87m0-4.54c-8.19,0-11.86,4.27-13.28,12.61-2.64,15.45-7.59,30.33-11,45.56-7.08,31.71-18,62.5-21.67,95-3.42,30.7,9.3,49.65,37.41,58.39a134.35,134.35,0,0,0,39.74,6c2.58,0,5.14-.08,7.66-.22,8.46.59,16.76,1,24.94,1,18.37,0,36.12-1.85,53.56-7.09,27.26-8.18,46.69-26.68,54.68-54.9,13.65-48.21,25-97.14,37.48-145.75,1.66-6.49.57-10.41-6.64-10.41h-.2q-14.14.14-28.3.13l-15.27,0h-.06c-6.84,0-9.3,4.37-10.84,10.59q-15.14,61.08-30.58,122.09c-4.47,17.76-15.29,27.54-32.62,28.52-8.61.49-17.24.68-25.87.68-4.72,0-9.43-.06-14.14-.15-24.84-.5-31.23-10.13-24.78-35.41,9.74-38.27,19-76.66,28.77-114.93,2-7.88.42-11.52-7.46-11.52h-.55c-6.91.14-13.84.25-20.76.25-6.43,0-12.85-.1-19.27-.35h-1"/><path class="cls-2" d="M692.56,213.2c45.05,0,48.43-3.11,59.84-49.41,8.37-34,17.79-67.63,26.35-101.54C780.85,54,785,50.86,793,51.16q18.24.69,36.51,0c9.11-.32,12,3.17,9.58,12.56-9.2,35.44-17.91,71-27.27,106.42-3.77,14.29-5.92,29.05-11.44,42.86-14.78,37-44.25,51.2-79.27,54.74-32.41,3.27-65,3.24-97.14-4.3-28.73-6.73-45.54-32.25-39.58-62.77,9.33-47.73,23.15-94.29,34.39-141.53,1.4-5.89,4.88-7.94,10.27-7.9,13.73.09,27.48.28,41.22,0,9-.19,10.63,4.11,8.55,12.41-9.49,37.92-18.46,76-28.19,113.82-6.63,25.75-.9,34.75,24.29,35.69,5.88.22,11.78,0,17.67,0"/><path class="cls-2" d="M792,55.68l.87,0c6.2.23,12.51.35,18.77.35,6,0,12-.11,18-.32l1,0c3.84,0,4.61.91,4.68,1s.81,1.29-.37,5.84c-4,15.26-7.9,30.79-11.7,45.81-5,19.88-10.24,40.44-15.57,60.58-1.25,4.75-2.34,9.59-3.39,14.26C802,193,800,202.32,796.37,211.28c-12.59,31.5-36.65,48-75.7,52a377.09,377.09,0,0,1-38.1,2.05A250.37,250.37,0,0,1,624.88,259c-26.75-6.27-41.68-29.88-36.29-57.43,5.89-30.16,13.74-60.42,21.32-89.68,4.38-16.89,8.91-34.36,13-51.66.82-3.42,2.2-4.46,5.94-4.46H629l6.47,0q9,.07,18,.09c6.27,0,11.78-.05,16.84-.16h.5c2.8,0,4,.56,4.2.89.08.11.75,1.2-.4,5.83-3.85,15.37-7.67,31-11.37,46.14-5.42,22.2-11,45.16-16.82,67.64-3.87,15.05-3.54,24.69,1.06,31.25s13,9.63,27.25,10.17c2,.07,4.13.11,6.68.11,1.87,0,3.74,0,5.61,0s3.69,0,5.57,0c46.67,0,52-4.44,64-52.81,4.59-18.63,9.59-37.5,14.42-55.76,4-15,8.06-30.46,11.92-45.75,1.48-5.86,3.68-7.74,9-7.74m0-4.54c-7.3,0-11.19,3.18-13.2,11.12-8.56,33.9-18,67.57-26.35,101.53C741,210.07,737.61,213.2,692.6,213.2h0c-3.71,0-7.43.08-11.14.08-2.17,0-4.35,0-6.53-.11-25.2-.94-30.92-9.94-24.29-35.69,9.73-37.85,18.7-75.9,28.19-113.81,2-8.13.55-12.42-8-12.42h-.57c-5.59.12-11.17.16-16.76.16-8.15,0-16.31-.08-24.46-.14h-.15c-5.3,0-8.73,2.06-10.12,7.9-11.24,47.24-25.06,93.8-34.39,141.52-6,30.53,10.85,56.05,39.58,62.78a255.56,255.56,0,0,0,58.63,6.37,385,385,0,0,0,38.51-2.07c35-3.54,64.49-17.75,79.27-54.73,5.52-13.81,7.66-28.58,11.44-42.87,9.36-35.4,18.07-71,27.27-106.42,2.33-9-.24-12.58-8.47-12.58l-1.11,0q-8.94.31-17.89.32-9.32,0-18.62-.35l-1,0"/><path class="cls-2" d="M417.15,49.92a27.64,27.64,0,0,0,12.32-3.31C439.6,41,442.12,31,443.94,31.8c1.35.59-1.07,12.49-7.61,27.24s-15.87,35.75-35.62,43.1c-3.78,1.41-6.83,2.71-11.1,2.42-7-.48-33.15-.32-69.51-.14-21.2,0-42.46.93-63.6-.34-13.05-.78-17.55,4.63-20.57,17.14-10.41,43.2-22.25,86-32.91,129.16-2.76,11.15-6.83,17.29-19,16.29-10.86-.89-21.91.25-32.86.94-10.07.64-13.55-3.42-10.83-13.92,7.93-30.67,15.59-61.42,23.33-92.15,3.93-15.56,7.63-31.19,11.77-46.69,2.09-7.81-.29-10.4-7.83-10.31-23.16.27-46.34-.16-69.5.18-5.53.07-8.21-1.24-11.58-2.48C62.44,93.32,53,64.35,50.12,55.37,46,42.7,45.09,31.55,46.78,31c1.91-.65,3.67,7.71,11.81,13.26a27.83,27.83,0,0,0,15,4.55l343.6,1.14"/><path class="cls-2" d="M51.57,44.07a29.1,29.1,0,0,0,4.67,4,31.64,31.64,0,0,0,17.18,5.29h.12L280.05,54l137.09.45h.18a31.64,31.64,0,0,0,14.15-3.83,30.65,30.65,0,0,0,4.86-3.32c-1,3-2.34,6.26-3.91,9.81-6.37,14.36-15.1,34-33.15,40.74l-.88.33c-2.89,1.09-5,1.87-7.58,1.87l-.92,0c-3.3-.23-10.55-.33-23.48-.33-11.15,0-25.56.08-42.25.16l-4.06,0c-6.32,0-12.74.09-18.94.17s-12.58.16-18.85.16c-9.92,0-18.05-.21-25.56-.66-.9,0-1.78-.08-2.6-.08-14.46,0-19.42,8.25-22.4,20.63-5.7,23.64-11.93,47.57-18,70.72-5,19.12-10.12,38.89-14.95,58.42-2.46,10-5.35,13-12.36,13-.66,0-1.38,0-2.11-.09-2.79-.23-5.69-.34-8.86-.34-6.26,0-12.58.44-18.68.87-2,.14-4,.28-5.91.4-.59,0-1.14.06-1.68.06-3.69,0-4.73-.89-5-1.28s-1-1.94.27-7c6.05-23.38,12-47.2,17.83-70.23q2.74-11,5.51-22c1.31-5.18,2.59-10.37,3.88-15.56,2.52-10.21,5.12-20.76,7.88-31.06.89-3.34,1.77-8.22-.91-11.94S171.3,100,168,100h-.42c-5.51.07-11.41.1-18.56.1l-14.68,0q-7.35,0-14.7,0c-8.39,0-15.25,0-21.57.14h-.42a20.47,20.47,0,0,1-8.46-1.77L88,98C65.85,89.77,57.08,62.77,54.21,53.9a94.13,94.13,0,0,1-2.64-9.83M47,30.94a.52.52,0,0,0-.21,0c-1.69.57-.77,11.72,3.34,24.39,2.92,9,12.32,37.95,36.41,46.87,3.27,1.2,5.89,2.48,11.1,2.48h.47c7.18-.1,14.35-.13,21.52-.13,9.79,0,19.59.06,29.38.06q9.3,0,18.61-.1H168c7.25,0,9.51,2.63,7.46,10.31-4.14,15.5-7.84,31.13-11.77,46.69-7.74,30.73-15.4,61.48-23.33,92.15-2.54,9.8.32,14,8.9,14,.62,0,1.26,0,1.93-.07,8.1-.51,16.24-1.26,24.34-1.26,2.85,0,5.69.09,8.52.32.86.07,1.68.11,2.45.11,10.28,0,14-6,16.54-16.4,10.66-43.14,22.5-86,32.91-129.16,2.83-11.72,7-17.21,18.22-17.21.75,0,1.53,0,2.35.07,8.59.52,17.2.67,25.81.67,12.59,0,25.2-.33,37.79-.33,18.45-.09,34.28-.18,46.31-.18,11.66,0,19.76.08,23.2.32.41,0,.81,0,1.2,0,3.66,0,6.48-1.19,9.9-2.46,19.75-7.35,29.14-28.5,35.62-43.1s9-26.65,7.61-27.24a.52.52,0,0,0-.21,0c-1.81,0-4.52,9.47-14.26,14.85a27.51,27.51,0,0,1-12.32,3.31L73.55,48.78a27.78,27.78,0,0,1-15-4.55C50.75,38.88,48.83,30.94,47,30.94"/></svg>