<svg id="Camada_1" data-name="Camada 1" xmlns="http://www.w3.org/2000/svg" viewBox="0 0 1628.64 1024"><defs><style>.cls-1{fill:#fff;}.cls-2{fill:#46d8d5;}.cls-3,.cls-6{fill:none;}.cls-3{stroke:#231f20;stroke-miterlimit:10;}.cls-4{fill:#231f20;}.cls-5{stroke:#4dffd4;}</style></defs><title>LOGO PNG SEM FUNDO</title><path class="cls-1" d="M1379.26,955.4c-27.27,0-48.08.05-68.89,0-14.7,0-14.92-.44-11.78-15.1,2-9.26,3.92-18.54,5.72-27.84,1.5-7.73,5.45-10.45,13.25-10.36,38.43.49,76.87.39,115.31.25a175.69,175.69,0,0,0,21.07-1.83c5-.62,9.43-2.91,9.6-9s-4.87-7-8.93-8.16c-29.52-8.5-59.12-16.7-88.62-25.28-37-10.77-47.41-39.37-28.51-75.88,15.25-29.43,40.41-41.74,70-42.48,47.43-1.18,94.91-2.42,142.39-.84,8.67.29,11.49,3.19,8.59,12-1.93,5.85-3.26,11.91-4.83,17.87-6.18,23.38-6.18,23.33-29.74,23.33q-53.6,0-107.19.14c-3.54,0-7.08,0-10.6.37-5.79.56-11.51,2.43-12.15,9.38-.69,7.39,5.87,7.77,10.58,9.08,29.59,8.25,59.24,16.28,88.83,24.52a115.51,115.51,0,0,1,14.47,5.19c15.54,6.66,23.2,18.18,21.37,35.79-5.08,48.71-27.47,72-72.79,77.11-27.82,3.13-55.71,1.12-77.11,1.72"/><path class="cls-1" d="M954.31,739.09q31.22,0,62.44,0c3.54,0,7.08,0,10.6.27,47.64,3.79,67.15,35.57,52,83.1-9.06,28.46-25.8,47.44-53.56,55.64-12.09,3.57-12.08,4.82-4.45,15.55,11.77,16.52,23.43,33.13,35.22,49.64,5.37,7.51,3.72,10.76-5.21,10.89-16.47.23-33,.61-49.41,1.37-8.77.41-14.83-3.2-19.71-10.74-10.82-16.72-22.2-33-33-49.73-3.68-5.65-7.94-8.57-14.61-8.23-11.35.57-24.31-2.9-33.67,1.78-10.34,5.19-6.47,21.68-11.48,32.26a34.82,34.82,0,0,0-1.71,5.92C879.6,957,879.6,957,849.61,955.23c-3.92-.22-7.82-1-11.73-1.08-17.73-.22-18.61,1.28-13.82-18.55,7-28.8,14.9-57.34,22-86.09,2.18-8.79,6.79-11.61,15.2-11.53,35.34.34,70.69.26,106,0,12.53-.1,25.16-.66,37.11-5.47,6-2.42,11-6,13.61-12.78,6.59-17.34.82-27.16-17.59-27.36-41.23-.45-82.47-.21-123.71-.26-15.64,0-15.76-.2-11.69-15.8a47.75,47.75,0,0,1,1.26-4.77c3.8-10.29.77-24.79,9.67-30.83,8.42-5.71,20.64-1.32,31.18-1.55,15.71-.33,31.42-.08,47.13-.08Z"/><path class="cls-1" d="M887.51,737.72c6.1,0,12.74,1.41,18.86,1.41h.81c6.33-.14,12.66-.18,19-.18,9.38,0,18.76.09,28.14.09v.05h62.44c3.54,0,7.08,0,10.6.27,47.64,3.79,67.15,35.57,52,83.1-9.06,28.46-25.8,47.44-53.56,55.64-12.09,3.57-12.08,4.82-4.45,15.55,11.77,16.52,23.43,33.13,35.22,49.64,5.37,7.51,3.72,10.76-5.21,10.89-16.47.23-33,.61-49.41,1.37l-1.31,0c-8.07,0-13.76-3.61-18.4-10.77-10.82-16.72-22.2-33-33-49.73-3.48-5.36-7.5-8.25-13.59-8.25-.34,0-.68,0-1,0-.92,0-1.84.07-2.77.07-5.82,0-11.93-.78-17.68-.78-4.78,0-9.31.54-13.22,2.49-10.34,5.19-6.47,21.68-11.48,32.26a34.82,34.82,0,0,0-1.71,5.92c-6.58,24.32-7.84,29-23.86,29-3.83,0-8.5-.27-14.28-.61-3.92-.22-7.82-1-11.73-1.08-17.73-.22-18.61,1.28-13.82-18.55,7-28.8,14.9-57.33,22-86.09C848.25,840.84,852.77,838,861,838h.34q24.08.24,48.15.22,28.95,0,57.89-.25c12.53-.11,25.16-.67,37.11-5.48,6-2.42,11-6,13.61-12.78,6.59-17.34.82-27.16-17.59-27.36-21-.23-42-.28-63-.28l-47.43,0H876.76c-15.64,0-15.76-.2-11.69-15.8a47.75,47.75,0,0,1,1.26-4.77c3.8-10.29.77-24.8,9.67-30.83,3.35-2.28,7.31-2.95,11.51-2.95"/><path class="cls-1" d="M563.08,955.51h-5.89c-26.3.06-23.69.37-29.14-23.13-1.75-7.55-5.13-9.57-12.31-9.41-24.33.55-48.67.31-73,.26-3,0-6.87.84-8.47-2.72s1.56-6.18,3.45-8.54c9.11-11.36,18.47-22.49,27.67-33.77,3.49-4.28,8.12-4.55,12.89-4.56q8.83,0,17.67,0c18.31,0,18.43,0,13.71-19.36-3.31-13.6-6.92-27.11-10.54-40.62-.61-2.26-1.51-5.53-3.08-6.19-3.23-1.35-4.47,2.56-6.06,4.63-33.25,43.36-66.68,86.59-99.4,130.39-7.07,9.46-14.58,13.69-25.89,13.14-14.46-.7-28.95-2.29-43.48-.42-3.24.42-7.8,1.51-9.42-2.78-1.32-3.48,2.31-5.79,4.22-8.24q42.63-54.51,85.35-108.94C418.82,813,436.69,791,453.73,768.38c16.17-21.49,35.69-34.28,62.73-31.69,17,1.63,30.61,12.48,35.12,29.91q22,85.44,43.68,171c4,16,3.73,16.23-12.17,17.4-6.64.49-13.34.09-20,.09v.42"/><path class="cls-1" d="M1162,956.22a134.5,134.5,0,0,1-47.39-5.78c-28.12-8.75-40.84-27.7-37.41-58.39,3.63-32.48,14.58-63.28,21.66-95,3.39-15.22,8.35-30.11,11-45.56,1.48-8.66,5.38-12.93,14.25-12.59,13.33.52,26.69.36,40,.09,8.35-.16,10.05,3.47,8,11.53-9.74,38.26-19,76.66-28.77,114.92-6.44,25.29,0,34.91,24.78,35.41,13.33.27,26.7.23,40-.52,17.32-1,28.14-10.76,32.62-28.52q15.38-61,30.57-122.1c1.55-6.24,4-10.61,10.91-10.59q21.78.11,43.56-.1c7.4-.07,8.51,3.86,6.84,10.42-12.42,48.6-23.82,97.53-37.48,145.75-8,28.21-27.42,46.72-54.68,54.9-25.21,7.57-51,8-78.5,6.12"/><path class="cls-1" d="M706,901c45,0,48.43-3.12,59.84-49.42,8.37-33.95,17.79-67.62,26.35-101.53,2.1-8.3,6.26-11.39,14.23-11.09,12.15.46,24.34.46,36.5,0,9.11-.32,12,3.16,9.58,12.56-9.2,35.44-17.91,71-27.26,106.41-3.78,14.3-5.93,29.06-11.45,42.87-14.78,37-44.25,51.19-79.27,54.73-32.41,3.28-65,3.24-97.14-4.29-28.73-6.74-45.54-32.26-39.58-62.78,9.33-47.73,23.15-94.29,34.39-141.53,1.4-5.88,4.89-7.93,10.27-7.9,13.74.1,27.48.28,41.22,0,9-.2,10.63,4.1,8.55,12.41-9.49,37.91-18.46,76-28.19,113.81-6.62,25.76-.9,34.75,24.29,35.69,5.89.22,11.78,0,17.67,0"/><path class="cls-1" d="M430.55,737.67a27.64,27.64,0,0,0,12.31-3.32c10.13-5.59,12.65-15.59,14.47-14.8,1.35.58-1.07,12.49-7.61,27.24-6.48,14.59-15.86,35.75-35.62,43.09-3.78,1.41-6.82,2.72-11.1,2.42-7-.48-33.15-.32-69.5-.13-21.21,0-42.47.92-63.61-.34-13.05-.78-17.55,4.63-20.57,17.14-10.41,43.2-22.25,86-32.91,129.15-2.76,11.16-6.83,17.29-19,16.3-10.86-.89-21.91.25-32.85.94-10.08.63-13.56-3.42-10.84-13.92,7.94-30.68,15.59-61.43,23.34-92.16,3.92-15.56,7.62-31.19,11.76-46.68,2.09-7.81-.29-10.41-7.83-10.32-23.16.28-46.34-.16-69.5.18-5.53.08-8.21-1.24-11.57-2.48-24.1-8.92-33.5-37.89-36.42-46.87-4.11-12.67-5-23.82-3.34-24.39,1.91-.65,3.68,7.7,11.81,13.25a27.85,27.85,0,0,0,15,4.56l343.61,1.14"/><path class="cls-2" d="M1379.26,954.75c-27.27,0-48.08,0-68.89,0-14.7,0-14.92-.43-11.78-15.09,2-9.26,3.92-18.54,5.72-27.85,1.5-7.72,5.45-10.45,13.25-10.35,38.43.48,76.87.38,115.31.25a177.77,177.77,0,0,0,21.07-1.83c5-.62,9.43-2.91,9.6-9s-4.87-7-8.93-8.15c-29.52-8.51-59.12-16.71-88.62-25.28-37-10.77-47.41-39.38-28.51-75.88,15.25-29.44,40.41-41.75,70-42.48,47.43-1.19,94.91-2.42,142.39-.84,8.67.29,11.49,3.19,8.59,12-1.93,5.84-3.26,11.9-4.83,17.87-6.18,23.38-6.18,23.33-29.74,23.33q-53.6,0-107.19.13c-3.54,0-7.08,0-10.6.38-5.79.56-11.51,2.43-12.15,9.37-.69,7.4,5.87,7.77,10.58,9.09,29.59,8.25,59.24,16.28,88.83,24.52a113.94,113.94,0,0,1,14.47,5.19c15.54,6.66,23.2,18.18,21.37,35.79-5.08,48.71-27.47,72-72.79,77.11-27.82,3.13-55.71,1.12-77.11,1.72"/><path class="cls-2" d="M1501.45,742c17.36,0,33.14.25,48.24.75,4.66.15,5.41,1.11,5.42,1.12s.49,1-.77,4.86c-1.41,4.29-2.52,8.69-3.59,12.94q-.64,2.61-1.32,5.2c-2.72,10.28-4.22,16-6.72,18s-8.46,2-18.27,2h-1.81c-35.74,0-71.45.07-106,.13-3.7,0-7.32.05-11,.4-9.91,1-15.31,5.48-16.06,13.45-1,10.37,7.74,12.45,11.92,13.45.63.15,1.26.3,1.85.46,15.31,4.27,30.89,8.55,45.95,12.69,14.06,3.86,28.6,7.86,42.89,11.83a110.59,110.59,0,0,1,14,5c14.33,6.14,20.27,16,18.7,31.08-4.83,46.33-25.45,68.19-69,73.09a347.87,347.87,0,0,1-38.43,1.79c-5.14,0-10.16-.06-15-.11-4.58-.05-9-.1-13.27-.1-3.78,0-7,0-10,.12h-43.4c-8.75,0-17.09,0-25.43,0-3.05,0-7.51,0-9.11-.48-.06-1.67.85-5.9,1.53-9.07,2.3-10.73,4.12-19.6,5.74-27.94,1-5.28,2.88-6.72,8.62-6.72h.34c19.5.24,40.16.36,65,.36,17.09,0,34.24-.05,50.35-.11a167.46,167.46,0,0,0,20.07-1.68l1.5-.18c8.31-1,13.19-5.9,13.4-13.35.26-9.18-7.31-11.32-11.38-12.46l-.72-.21c-13.27-3.82-26.77-7.65-39.82-11.34-16-4.53-32.55-9.22-48.79-13.94s-27.44-13.31-32-24.73c-4.85-12-2.71-27.44,6.17-44.6,13.39-25.86,35.69-39.35,66.27-40.11l2.54-.07c30-.75,60.92-1.52,91.37-1.52m0-4.54c-31.35,0-62.7.8-94,1.59-29.55.73-54.71,13-70,42.48-18.9,36.5-8.54,65.11,28.51,75.88,29.5,8.57,59.1,16.77,88.62,25.28,4.06,1.17,9.09,2.2,8.93,8.16s-4.58,8.35-9.59,9a176,176,0,0,1-21.08,1.83q-25.17.09-50.34.11-32.47,0-65-.36h-.4c-7.54,0-11.37,2.76-12.85,10.35-1.8,9.31-3.74,18.59-5.72,27.85-3.14,14.66-2.92,15.05,11.78,15.09,8.34,0,16.68,0,25.44,0l43.45,0c3.17-.09,6.48-.12,9.91-.12,8.76,0,18.31.21,28.3.21a347,347,0,0,0,38.89-1.82c45.33-5.1,67.72-28.39,72.8-77.1,1.83-17.61-5.83-29.13-21.37-35.79a116,116,0,0,0-14.46-5.2c-29.6-8.23-59.25-16.26-88.84-24.51-4.71-1.32-11.27-1.69-10.58-9.09.65-6.94,6.36-8.81,12.16-9.37,3.51-.34,7-.37,10.58-.38q53-.09,106-.13h1.81c23,0,23-.14,29.15-23.33,1.57-6,2.91-12,4.83-17.87,2.9-8.81.08-11.71-8.59-12-16.13-.54-32.26-.75-48.38-.75"/><path class="cls-2" d="M954.31,738.44q31.22,0,62.44,0c3.54,0,7.08,0,10.6.27,47.64,3.78,67.15,35.57,52,83.09-9.06,28.47-25.8,47.44-53.56,55.64-12.09,3.58-12.08,4.82-4.45,15.55,11.77,16.53,23.43,33.14,35.22,49.64,5.37,7.52,3.72,10.77-5.21,10.9-16.47.23-33,.61-49.41,1.37-8.77.4-14.83-3.2-19.71-10.74-10.82-16.72-22.2-33-33-49.74-3.68-5.65-7.94-8.56-14.61-8.22-11.35.57-24.31-2.91-33.67,1.78-10.34,5.18-6.47,21.67-11.48,32.26a34.82,34.82,0,0,0-1.71,5.92c-8.15,30.12-8.15,30.14-38.14,28.41-3.92-.22-7.82-1-11.73-1.09-17.73-.21-18.61,1.29-13.82-18.54,7-28.8,14.9-57.34,22-86.09,2.18-8.8,6.79-11.61,15.2-11.53,35.34.34,70.69.26,106,0,12.53-.1,25.16-.67,37.11-5.48,6-2.41,11-6,13.61-12.77,6.59-17.34.82-27.16-17.59-27.36-41.23-.46-82.47-.21-123.71-.26-15.64,0-15.76-.2-11.69-15.8a47.94,47.94,0,0,1,1.26-4.78c3.8-10.28.77-24.79,9.67-30.83,8.42-5.71,20.64-1.31,31.18-1.54,15.71-.33,31.42-.08,47.13-.08Z"/><path class="cls-2" d="M887.51,741.61a83.24,83.24,0,0,1,9,.68,90.82,90.82,0,0,0,9.9.73h.9c5.58-.12,11.58-.17,18.9-.17q7,0,14.05,0l9.77,0V743h35.82l30.94,0h.52c3.38,0,6.57,0,9.76.26,21.81,1.73,37.77,9.65,46.13,22.89s9.17,32.11,2.13,54.23c-9,28.43-25.13,45.18-50.63,52.72-6.65,2-11.11,3.57-12.49,7.86-1.49,4.59,1.71,9.09,5.76,14.77q7.87,11.07,15.72,22.17c6.37,9,13,18.34,19.5,27.48a18.74,18.74,0,0,1,1.94,3.24,16.57,16.57,0,0,1-3.75.39c-19.47.27-35.21.71-49.55,1.37l-1.12,0c-6.41,0-10.85-2.63-14.83-8.79-5.57-8.6-11.38-17.23-17-25.57-5.31-7.9-10.81-16.06-16.07-24.17-4.54-7-10-10.23-17.15-10.23l-1.23,0c-.85.05-1.7.07-2.56.07-2.78,0-5.75-.2-8.62-.39s-6.06-.39-9.06-.39c-6.29,0-11.08.93-15.07,2.93-8.52,4.27-9.71,13.71-10.77,22-.56,4.39-1.13,8.94-2.72,12.29a24.71,24.71,0,0,0-1.61,5.11c-.13.53-.25,1.07-.4,1.61-3,11.17-5,18.54-7.63,22-1.8,2.42-4.16,3.65-12.07,3.65-3.72,0-8.28-.26-14-.59-1.57-.09-3.15-.29-4.83-.49a61.75,61.75,0,0,0-7.08-.61l-3.52,0c-3.53,0-7.16,0-8.53-.44-.14-2,1.29-8,2.37-12.41,3.81-15.81,8-31.82,12-47.3,3.32-12.69,6.76-25.81,10-38.77,1.55-6.23,4.05-8.13,10.69-8.13h.3c15.33.15,31.55.22,48.2.22,18.16,0,37.1-.08,57.91-.26,12.54-.1,25.86-.63,38.62-5.78,5.19-2.09,12.51-5.95,16.07-15.32,3.89-10.21,3.93-18.41.13-24.38s-11.11-9.1-21.67-9.21c-22.52-.25-44.52-.28-63.08-.28H876.77c-3.58,0-7.94,0-9.65-.44.07-1.8,1.19-6.09,2.11-9.62.14-.55.27-1.11.4-1.67a23.89,23.89,0,0,1,.72-2.66c1.58-4.26,2.09-8.87,2.6-13.34.76-6.77,1.42-12.63,5.39-15.32,2.23-1.52,5.15-2.22,9.17-2.22m0-4.54c-4.2,0-8.16.67-11.51,2.94-8.9,6-5.87,20.55-9.67,30.84a47.75,47.75,0,0,0-1.26,4.77c-4.07,15.6-4,15.78,11.69,15.8H890l47.47,0c21,0,42,.05,63,.27,18.41.21,24.18,10,17.59,27.37-2.59,6.79-7.62,10.36-13.61,12.77-12,4.81-24.58,5.38-37.11,5.48q-29,.24-57.88.26-24.08,0-48.16-.22H861c-8.19,0-12.71,2.85-14.86,11.52-7.14,28.76-15.08,57.3-22,86.1-4.79,19.83-3.91,18.33,13.82,18.54,3.91,0,7.81.87,11.73,1.09,5.78.33,10.45.6,14.28.6,16,0,17.28-4.7,23.86-29a34.82,34.82,0,0,1,1.71-5.92c5-10.59,1.14-27.08,11.48-32.26,3.91-2,8.44-2.49,13.22-2.49,5.75,0,11.86.78,17.68.78.93,0,1.85,0,2.77-.07l1,0c6.09,0,10.11,2.9,13.59,8.25,10.85,16.71,22.23,33,33,49.74,4.64,7.16,10.33,10.77,18.4,10.77l1.31,0c16.46-.76,32.94-1.14,49.41-1.37,8.93-.13,10.58-3.38,5.21-10.9-11.79-16.5-23.45-33.11-35.22-49.64-7.63-10.73-7.64-12,4.45-15.55,27.76-8.2,44.5-27.17,53.56-55.64,15.11-47.52-4.4-79.31-52-83.09-3.52-.28-7.06-.27-10.6-.27H954.31v-.05c-9.38,0-18.76-.09-28.14-.09-6.33,0-12.66,0-19,.17h-.81c-6.12,0-12.76-1.41-18.86-1.41"/><path class="cls-2" d="M563.08,954.86h-5.89c-26.3.06-23.69.37-29.14-23.13-1.75-7.56-5.13-9.57-12.31-9.41-24.33.54-48.67.31-73,.26-3,0-6.87.84-8.47-2.72s1.56-6.18,3.45-8.55c9.11-11.36,18.47-22.48,27.67-33.77,3.49-4.27,8.12-4.55,12.89-4.56h17.67c18.31,0,18.43,0,13.71-19.36C506.33,840,502.72,826.51,499.1,813c-.61-2.26-1.51-5.53-3.08-6.18-3.23-1.35-4.47,2.55-6.06,4.63-33.25,43.36-66.68,86.58-99.4,130.39C383.49,951.3,376,955.53,364.67,955c-14.46-.71-28.95-2.3-43.48-.43-3.24.42-7.8,1.51-9.42-2.78-1.32-3.47,2.31-5.78,4.22-8.23Q358.62,889,401.34,834.6c17.48-22.28,35.35-44.24,52.39-66.88,16.17-21.48,35.69-34.27,62.73-31.68,17,1.63,30.61,12.47,35.12,29.91q22,85.42,43.68,171c4,16,3.73,16.22-12.17,17.4-6.64.49-13.34.08-20,.08v.43"/><path class="cls-2" d="M509.66,740.25c2.09,0,4.24.1,6.4.31,15.73,1.51,27.45,11.44,31.35,26.57,14.39,55.71,29.08,113.23,43.68,171,.94,3.72,2.2,8.73,2,10.35-1.41.7-6.33,1.07-10.34,1.36-2.12.16-4.4.23-7.18.23-2.06,0-4.12,0-6.18-.08s-4.23-.08-6.34-.08h-4.31v.43h-6c-7.89,0-13.2-.11-15.14-1.62-1.67-1.3-2.6-5.45-4.12-12.33-.38-1.74-.8-3.64-1.29-5.73-2.09-9-6.8-12.88-15.74-12.88h-.85c-10.86.24-22.34.35-37.22.35q-10.65,0-21.3,0l-14.44,0c-.52,0-1.07,0-1.63.05s-.93,0-1.4,0a6.94,6.94,0,0,1-1.46-.12h0l-.06-.12a12.3,12.3,0,0,1,1.77-2.37c.38-.43.75-.86,1.09-1.28,5.5-6.86,11.19-13.76,16.7-20.42q5.48-6.65,10.94-13.32c2.06-2.52,4.75-3,9.63-3h19.84c7.93,0,13.65,0,16.69-4.12s1.73-9.78-1-20.91c-3.25-13.33-6.71-26.33-10.57-40.73-.82-3.06-2.06-7.68-5.64-9.17a7.33,7.33,0,0,0-2.85-.6c-4.09,0-6.17,3.4-7.41,5.43-.28.46-.55.9-.75,1.17l-19.78,25.76c-26.25,34.18-53.39,69.52-79.65,104.67-6.08,8.14-12.05,11.46-20.58,11.46-.57,0-1.14,0-1.72,0-2.92-.14-5.84-.32-8.75-.5-6.5-.39-13.21-.8-19.89-.8a120.19,120.19,0,0,0-15.56.91l-.95.13a21.33,21.33,0,0,1-2.73.27,3.27,3.27,0,0,1-1.1-.13,15.21,15.21,0,0,1,1.6-1.84,24.87,24.87,0,0,0,1.84-2.06c30.1-38.5,60-76.67,85.34-108.93,5.61-7.15,11.35-14.38,16.9-21.38,11.77-14.82,23.94-30.15,35.54-45.57,15.56-20.67,32.26-30.29,52.55-30.29m0-4.54c-23.57,0-41.14,12.37-55.93,32-17,22.64-34.91,44.6-52.39,66.88Q358.64,889,316,943.54c-1.91,2.45-5.54,4.76-4.22,8.23,1,2.59,3,3.22,5.22,3.22a34.07,34.07,0,0,0,4.2-.43,116.82,116.82,0,0,1,15-.88c9.49,0,19,.84,28.44,1.3.65,0,1.29,0,1.92,0,10.25,0,17.31-4.28,24-13.2,32.72-43.8,66.15-87,99.4-130.39,1.36-1.77,2.47-4.9,4.8-4.9a3.32,3.32,0,0,1,1.26.28c1.57.65,2.47,3.92,3.08,6.18,3.62,13.51,7.23,27,10.54,40.63,4.52,18.56,4.61,19.36-11.53,19.36H478.26c-4.77,0-9.4.29-12.89,4.56-9.2,11.28-18.56,22.41-27.67,33.77-1.89,2.37-5.05,5-3.45,8.55,1.09,2.42,3.21,2.8,5.41,2.8,1,0,2.07-.08,3-.08h0c11.91,0,23.81.09,35.71.09,12.44,0,24.88-.07,37.32-.35h.75c6.65,0,9.86,2.13,11.55,9.42,5.12,22.1,3.12,23.14,24.74,23.14h10.29v-.43c4.17,0,8.35.16,12.52.16,2.5,0,5-.06,7.49-.24,15.9-1.18,16.2-1.43,12.17-17.4q-21.63-85.58-43.68-171c-4.5-17.44-18.11-28.28-35.12-29.91-2.32-.23-4.59-.33-6.8-.33"/><path class="cls-2" d="M1162,955.57a134.28,134.28,0,0,1-47.39-5.79c-28.12-8.74-40.84-27.69-37.41-58.39,3.63-32.48,14.58-63.27,21.66-95,3.39-15.22,8.35-30.11,11-45.56,1.48-8.66,5.38-12.94,14.25-12.59,13.33.51,26.69.36,40,.09,8.35-.17,10.05,3.47,8,11.52-9.74,38.27-19,76.67-28.77,114.93-6.44,25.29,0,34.91,24.78,35.41,13.33.27,26.7.23,40-.53,17.32-1,28.14-10.75,32.62-28.51q15.38-61,30.57-122.1c1.55-6.24,4-10.62,10.91-10.59q21.78.09,43.56-.1c7.4-.07,8.51,3.86,6.84,10.41-12.42,48.61-23.82,97.54-37.48,145.76-8,28.21-27.42,46.71-54.68,54.9-25.21,7.57-51,8-78.5,6.12"/><path class="cls-2" d="M1123.11,742.78h.82c6,.23,12.34.35,19.42.35,7.54,0,15.1-.13,20.85-.25h.46c3.11,0,3.78.67,3.78.67s.58,1-.49,5.14c-4.86,19.08-9.68,38.51-14.34,57.29s-9.54,38.45-14.43,57.63c-3.76,14.78-3.3,24.36,1.51,31.08s13.39,9.77,27.35,10c5.09.1,9.74.15,14.23.15,9.45,0,18-.22,26.11-.68,18.92-1.08,31.57-12.1,36.56-31.89,9.12-36.18,19.89-79,30.58-122.12,1.52-6.15,3.28-7.19,6.71-7.19q7.63,0,15.28,0c10,0,19.28,0,28.34-.13h.17a5.6,5.6,0,0,1,2.88.47s.42,1-.42,4.22c-3.87,15.17-7.71,30.62-11.43,45.56-8.18,32.92-16.64,67-26,100.08-7.35,26-25.24,43.88-51.73,51.83-15.7,4.71-32.34,6.91-52.38,6.91-7.5,0-15.56-.31-24.65-1l-.26,0h-.27c-2.45.15-4.94.22-7.42.22a129.63,129.63,0,0,1-38.51-5.82c-26.59-8.27-37.5-25.27-34.35-53.51,2.33-20.86,7.88-41.52,13.24-61.51,2.88-10.75,5.86-21.87,8.34-33,1.34-6,3-12.11,4.53-18,2.4-9,4.88-18.32,6.5-27.8,1.13-6.63,3.41-8.87,9-8.87m0-4.54c-8.19,0-11.85,4.27-13.28,12.61-2.63,15.45-7.59,30.34-11,45.56-7.07,31.71-18,62.5-21.66,95-3.43,30.7,9.29,49.65,37.4,58.39a134.35,134.35,0,0,0,39.74,6c2.58,0,5.14-.07,7.66-.22,8.46.59,16.76,1,24.94,1,18.37,0,36.12-1.85,53.56-7.08,27.26-8.19,46.69-26.69,54.68-54.9,13.66-48.22,25.06-97.15,37.48-145.76,1.66-6.49.58-10.41-6.63-10.41h-.21q-14.14.14-28.3.13-7.63,0-15.26,0h-.07c-6.84,0-9.3,4.37-10.84,10.59q-15.13,61.08-30.57,122.09c-4.48,17.77-15.3,27.54-32.63,28.52-8.61.49-17.24.68-25.87.68-4.72,0-9.43-.06-14.14-.15-24.83-.5-31.22-10.12-24.78-35.41,9.75-38.27,19-76.66,28.77-114.93,2-7.87.43-11.52-7.46-11.52h-.55c-6.91.14-13.84.25-20.76.25-6.42,0-12.85-.09-19.26-.34-.34,0-.66,0-1,0"/><path class="cls-2" d="M706,900.29c45,0,48.43-3.11,59.84-49.41,8.37-34,17.79-67.63,26.35-101.53,2.1-8.3,6.26-11.4,14.23-11.1,12.15.46,24.34.47,36.5,0,9.11-.33,12,3.16,9.58,12.55-9.2,35.44-17.91,71-27.26,106.42-3.78,14.29-5.93,29.06-11.45,42.87-14.78,37-44.25,51.19-79.27,54.73-32.41,3.28-65,3.24-97.14-4.3-28.73-6.73-45.54-32.25-39.58-62.77,9.33-47.73,23.15-94.29,34.39-141.53,1.4-5.89,4.89-7.94,10.27-7.9,13.74.1,27.48.28,41.22,0,9-.19,10.63,4.11,8.55,12.42-9.49,37.91-18.46,76-28.19,113.81-6.62,25.75-.9,34.75,24.29,35.69,5.89.22,11.78,0,17.67,0"/><path class="cls-2" d="M805.34,742.77l.87,0c6.2.23,12.52.35,18.77.35,6,0,12-.1,18-.32l1,0c3.84,0,4.61.91,4.69,1s.8,1.29-.38,5.84c-4,15.26-7.89,30.79-11.7,45.81-5,19.88-10.24,40.44-15.56,60.58-1.26,4.75-2.34,9.59-3.39,14.26-2.21,9.83-4.3,19.11-7.88,28.07-12.59,31.51-36.64,48-75.7,52a376.94,376.94,0,0,1-38.1,2,250.37,250.37,0,0,1-57.69-6.26c-26.75-6.27-41.67-29.88-36.29-57.43,5.9-30.16,13.74-60.42,21.32-89.68,4.38-16.89,8.91-34.36,13-51.66.81-3.42,2.2-4.46,5.94-4.46h.11l6.47.05q9,.07,18,.09c6.27,0,11.78,0,16.85-.16h.49c2.8,0,4,.56,4.2.89.08.11.76,1.21-.4,5.83-3.85,15.37-7.67,31-11.37,46.15-5.42,22.19-11,45.15-16.82,67.63-3.87,15-3.54,24.69,1.07,31.26s13,9.62,27.24,10.16c2,.07,4.13.11,6.69.11,1.86,0,3.73,0,5.6,0s3.69,0,5.57,0c46.67,0,52-4.44,64-52.81,4.59-18.63,9.59-37.5,14.42-55.76,4-15,8.06-30.46,11.92-45.75,1.48-5.86,3.68-7.74,9-7.74m0-4.54c-7.3,0-11.19,3.18-13.2,11.12-8.56,33.9-18,67.57-26.35,101.53C754.38,897.16,751,900.29,706,900.29h0c-3.71,0-7.42.08-11.13.08-2.18,0-4.36,0-6.53-.11-25.2-.94-30.92-9.94-24.3-35.69,9.73-37.84,18.7-75.9,28.19-113.81,2-8.13.55-12.42-8-12.42h-.58c-5.59.12-11.17.16-16.76.16-8.15,0-16.31-.08-24.46-.14h-.14c-5.31,0-8.74,2.07-10.13,7.9-11.24,47.24-25.06,93.8-34.39,141.53-6,30.52,10.85,56,39.58,62.77A255.56,255.56,0,0,0,696,956.93a381.84,381.84,0,0,0,38.51-2.07c35-3.54,64.49-17.75,79.27-54.73,5.52-13.81,7.67-28.58,11.44-42.87,9.36-35.39,18.07-71,27.27-106.41,2.34-9-.23-12.59-8.47-12.59l-1.11,0q-8.94.33-17.89.32-9.32,0-18.61-.34l-1,0"/><path class="cls-2" d="M430.55,737a27.48,27.48,0,0,0,12.31-3.31c10.13-5.59,12.65-15.59,14.47-14.81,1.35.59-1.07,12.49-7.61,27.24s-15.86,35.75-35.62,43.1c-3.78,1.41-6.82,2.71-11.1,2.42-7-.48-33.15-.32-69.5-.14-21.21,0-42.47.93-63.61-.34-13.05-.78-17.55,4.64-20.57,17.14-10.41,43.2-22.25,86-32.91,129.16-2.76,11.16-6.83,17.29-19,16.29-10.86-.89-21.91.25-32.85.94-10.08.64-13.56-3.42-10.84-13.92,7.94-30.67,15.59-61.42,23.34-92.15,3.92-15.56,7.62-31.19,11.76-46.69,2.09-7.81-.29-10.4-7.83-10.31-23.16.28-46.34-.16-69.5.18-5.53.08-8.21-1.24-11.57-2.48-24.1-8.92-33.5-37.89-36.42-46.87-4.11-12.67-5-23.82-3.34-24.4,1.91-.64,3.68,7.71,11.81,13.26a27.83,27.83,0,0,0,15,4.55L430.55,737"/><path class="cls-2" d="M65,731.16a29.75,29.75,0,0,0,4.68,4,31.67,31.67,0,0,0,17.18,5.28h.11l206.51.69,137.09.45h.18a31.71,31.71,0,0,0,14.16-3.83,31.11,31.11,0,0,0,4.86-3.32c-1.05,3-2.34,6.26-3.92,9.81-6.37,14.36-15.1,34-33.15,40.74l-.88.33c-2.89,1.09-5,1.87-7.58,1.87l-.91,0c-3.31-.23-10.55-.33-23.49-.33-11.14,0-25.56.08-42.24.16l-4.07,0c-6.32,0-12.74.09-18.94.17s-12.58.16-18.85.16c-9.92,0-18.05-.21-25.56-.66-.9,0-1.77-.08-2.6-.08-14.46,0-19.41,8.25-22.4,20.63-5.7,23.64-11.93,47.57-17.95,70.72-5,19.12-10.13,38.89-15,58.42-2.46,10-5.35,13-12.35,13-.67,0-1.38,0-2.12-.09-2.79-.23-5.69-.34-8.86-.34-6.26,0-12.57.44-18.68.87-2,.14-3.94.28-5.91.4-.58,0-1.14.06-1.67.06-3.7,0-4.74-.89-5-1.27s-1-2,.27-7c6.05-23.38,12-47.2,17.83-70.23q2.76-11,5.52-22,1.95-7.77,3.87-15.56c2.52-10.21,5.13-20.76,7.88-31.06.89-3.34,1.77-8.22-.91-11.94s-7.39-4.14-10.7-4.14H181c-5.51.07-11.41.1-18.57.1l-14.68,0-14.69,0c-8.4,0-15.26,0-21.58.14H111a20.47,20.47,0,0,1-8.46-1.77l-1.2-.46c-22.12-8.18-30.88-35.17-33.76-44A95.31,95.31,0,0,1,65,731.16M60.38,718a.52.52,0,0,0-.21,0c-1.68.57-.77,11.72,3.35,24.39,2.91,9,12.31,37.95,36.41,46.87,3.26,1.2,5.88,2.48,11.09,2.48h.48c7.17-.11,14.34-.14,21.52-.14,9.78,0,19.58.06,29.37.06q9.3,0,18.61-.1h.38c7.24,0,9.51,2.63,7.45,10.31-4.14,15.5-7.84,31.13-11.76,46.69-7.75,30.73-15.4,61.48-23.34,92.15-2.53,9.8.32,14,8.91,14,.61,0,1.25,0,1.93-.07,8.09-.51,16.24-1.26,24.33-1.26,2.85,0,5.69.09,8.52.32.86.07,1.68.11,2.46.11,10.27,0,14-6,16.53-16.4,10.66-43.14,22.5-86,32.91-129.16,2.83-11.72,7-17.21,18.22-17.21.75,0,1.53,0,2.35.07,8.59.52,17.2.67,25.81.67,12.6,0,25.21-.33,37.79-.33,18.46-.09,34.28-.18,46.31-.18,11.67,0,19.76.08,23.21.32.4,0,.8,0,1.19,0,3.67,0,6.48-1.19,9.9-2.46,19.76-7.35,29.14-28.5,35.62-43.1s9-26.65,7.61-27.24a.78.78,0,0,0-.21,0c-1.81,0-4.51,9.47-14.26,14.85A27.48,27.48,0,0,1,430.54,737l-343.6-1.14a27.83,27.83,0,0,1-15-4.55C64.15,726,62.22,718,60.38,718"/><path class="cls-1" d="M996.38,84.58c-.54-4.63-1.13-9.24-1.69-13.85l1.34-.4c2.88,6.42,6,12.77,8.6,19.29,3.76,9.24,7.6,18.48,10.67,28,3.37,10.45,7.71,20.67,6.26,32.37-1.26,10-8.93,20.68-17.92,24.09-10.12,3.82-20,8.21-30.13,12.16s-20,7.6-30,11.36a57.86,57.86,0,0,1-8.12,2.82,5,5,0,0,1-4-1.38,72.16,72.16,0,0,1-7.79-9.81c-1-1.62-1.19-4.1-1.2-6.21,0-2.49,1-4.17,3.71-5.2,12.22-4.65,24.61-9,36.37-14.77,12.87-6.31,25.62-13.26,34.79-25.38,3.37-4.43,5.24-9.32,3.38-15.16-.32-1,0-2.19-.15-3.27q-2-17.33-4-34.66m-96.2,201c-7.82,8.72-18.18,12-28.82,14.67a14.63,14.63,0,0,0-2.37,1,7.79,7.79,0,0,0,1.34,2.27c2.94,2.4,6,4.7,9.45,7.37-3.3.85-6.45,2-9.69,2.39-3.41.43-6.9.11-10.74.11,3.7,15.59,7.39,31.07,11.14,46.85a20.1,20.1,0,0,0,2.2-1.19q18.52-15.31,37-30.66c3.82-3.18,7.54-6.48,7-12.36a108.89,108.89,0,0,0-1.37-11.84c-1.79-9.06-5.76-17.2-10.64-25.59-1.75,2.69-2.91,5.07-4.57,6.93m-68.55-38c-5.57,1.5-11.14,3.25-16.81,4-5.32.67-11.31,2.27-15.52-3.12a31.28,31.28,0,0,1-4.12-8.06,91.71,91.71,0,0,1-2.49-9,45.4,45.4,0,0,0-3.08,9.27c-1.81,7.62-6.24,11.48-13.63,11.25a65.55,65.55,0,0,1-11.31-1.44c-5.07-1-10.07-2.38-15-3.75-4.06-1.11-8.07-2.44-12.09-3.67-.1.28-.19.57-.28.85.44.38.88.77,1.34,1.12a8.56,8.56,0,0,0,1.13.85c13.07,8.14,26.41,15.35,41.23,19.7a39.85,39.85,0,0,0,26.68-1.07c11.45-4.56,22.42-10.48,33.51-16,2.32-1.15,4.25-3.12,6.35-4.7a2.32,2.32,0,0,0-2-.41c-4.61,1.41-9.16,3-13.81,4.24m-163.46,70c.26,2.64,1.37,5.95,3.19,7.55,11.48,10.08,23.28,19.76,35,29.53,2.35,1.95,4.9,3.64,7.89,5.84,3.81-16.1,7.47-31.58,11.17-47.29-10.33,1-15.5.09-20.43-2.92,4.52-2.51,9-4.38,10.85-8.62-7-2.63-13.69-4.92-20.23-7.73a28.21,28.21,0,0,1-15.46-15.47c-1.48,2.6-2.62,4.33-3.5,6.19-4.92,10.38-9.68,20.87-8.49,32.92M588.93,69.71c-1.42,3.16-2.87,6.32-4.24,9.51-3,6.9-6.07,13.72-8.73,20.74-3.24,8.58-6,17.37-9.12,26-3.57,9.7-5.62,19.5-2.11,29.65,2,5.67,4.33,11.31,9.46,14.69a60,60,0,0,0,9.55,4.79c9.76,4.13,19.55,8.24,29.41,12.1,11.16,4.4,22.38,8.6,33.65,12.68,1.8.66,4.83,1.22,5.78.22a67,67,0,0,0,9.32-12.15c2.31-4,.42-8.71-3.21-10-15.77-5.63-31.31-11.8-46-20.13-8.49-4.82-16.57-10.18-23.16-17.75-3.84-4.4-6.71-9.18-6-15.55.77-6.61,1.33-13.24,2.18-19.84,1.27-9.71,2.74-19.39,4.07-29.08.25-1.87.19-3.77.28-5.65l-1.14-.22M869.08,511.88c2.43-1.61,4.26-4.24,6.36-6.43l4.17-4.41c.42.24.85.46,1.29.69-.65,6.74-1.18,13.5-2,20.23-.86,7.19-1.74,14.37-3.08,21.46-1.12,6-2.92,11.76-4.4,17.63-.83,3.32-1.65,6.67-2.39,10-.59,2.69-1.06,5.39-1.58,8.1l.94.61c37.72-28.42,76.67-54.56,120.29-72.88-11.69-19.2-22-38.83-28.78-60.82l-23.1,16.31a17,17,0,0,1,0-3.07c1.86-6,4.11-11.93,5.57-18,1.77-7.32,3.77-14.77,4-22.23.61-17.32.89-34.76-4.64-51.52-1.81-5.52-3.67-11-5.68-16.47-.19-.54-2.11-1.07-2.28-.84-3.37,4.62-8.23,7.5-7.89,15.36.63,14.61,2.08,29.41-1.15,44.08-1.68,7.6-1.44,15.63-2.77,23.33-1.88,10.81-4,21.61-6.81,32.18-2.73,10.15-6.44,20-9.81,30-.25.72-1.17,1.17-1.77,1.76-.24-1.35.29-2.05.38-2.83,1-8.29,2.47-16.56,2.75-24.87.6-16.93,2-33.91-1-50.75-.92-5.08-1.17-10.74-7.36-12.45a19.78,19.78,0,0,1-3.5-1.27c-4.67-2.26-9.32-4.58-14.32-7.06a12.11,12.11,0,0,0-.3,3.05c1.42,6.3,2.27,12.87,4.55,18.81,3.87,10.06,1.3,19.72-.84,29.26-1.79,7.92-5,15.51-7.86,23.14-2.3,6.11-4.8,12.46-10.33,16a21.43,21.43,0,0,0-8.84,9.94c-4.4,10-9.44,19.77-14.37,29.53-3.79,7.48-8.21,14.43-16.58,16.87-5.63,1.64-11.3,3.24-17,4.32-6.08,1.13-12.35,2.58-18.43,2.14-8.88-.65-17.7-2.6-26.44-4.48a27.24,27.24,0,0,1-19.19-14.87c-6.23-12.22-12.23-24.56-18.38-36.83a12.17,12.17,0,0,0-4.5-4.88c-3.07-2-6.22-4.51-8.19-7.61-6-9.4-9-20.2-12.15-30.92-.74-2.56-.43-5.51-1.4-7.92-1.92-4.79-3.15-9.64-2.15-14.7,1.38-7,3.3-13.89,4.89-20.85.7-3.06,1.13-6.19,1.69-9.31-.82-.11-1.09-.24-1.27-.15-6.73,3.08-13.48,6.12-20.12,9.39a5.36,5.36,0,0,0-2.63,3.15,120.47,120.47,0,0,0-2.82,16.35c-.57,8-.6,16.15-.59,24.23,0,6.47.14,13,.79,19.41.86,8.77,2.26,17.48,3.58,27.35-1.2-1.67-2-2.38-2.31-3.27-1.52-4.09-2.57-8.41-4.43-12.32-4.94-10.43-6.16-22-9.2-33-1.55-5.62-2.17-11.56-3-17.38-1.49-9.93-3.66-19.84-4.1-29.83-.6-13.53.19-27.15.24-40.73a8,8,0,0,0-1.68-4.35c-1.66-2.2-3.74-4-5.5-6.18-1.39-1.69-2.25-2.59-3.14.4-1,3.27-2.6,6.34-3.47,9.63-2.2,8.41-5.23,16.8-6,25.37-1.33,15.15-2.24,30.47,1,45.56,1.37,6.41,3.17,12.72,4.93,19,.94,3.33,2.22,6.56,3.34,9.84-.34.31-.69.62-1,.91l-22.45-15.79c-6.64,22.28-17.23,41.72-28.61,60.83,1.38.72,2.31,1.24,3.24,1.69,13.5,6.64,27.2,12.86,40.43,20,9.95,5.39,19.39,11.87,28.92,18.07,7.31,4.76,14.53,9.68,21.59,14.83s14.71,8.48,24.11,6.31c-1.07-5.5-2.13-11.08-3.28-16.65-1.3-6.34-2.75-12.65-4-19-.88-4.58-1.72-9.21-2.15-13.85-.52-5.61-.59-11.27-.91-17.94a30,30,0,0,1,2.82,2.19c3,3.08,5.95,6.18,8.87,9.34,1.31,1.41,3.06,2.76,3.64,4.5,3,9,5.56,18.08,8.51,27.06q6.54,19.89,13.4,39.68c3.72,10.69,7.63,21.29,13.93,30.69,4.9,7.3,10.69,13.54,18.53,17.38,12.76,6.24,28.61,3.86,36.64-6.3a318.46,318.46,0,0,0,32.26-50.47c5.22-10,9.37-20.73,13.6-31.29,2.78-7,5-14.22,7.2-21.42,1.16-3.76,1.89-7.46,5.53-9.86M566.84,126c3.16-8.62,5.88-17.41,9.12-26,2.66-7,5.78-13.84,8.73-20.74,1.37-3.19,2.82-6.35,4.24-9.51l1.14.22c-.09,1.88,0,3.78-.28,5.65-1.33,9.69-2.8,19.37-4.07,29.08-.85,6.6-1.41,13.23-2.18,19.84-.74,6.37,2.13,11.15,6,15.55,6.59,7.57,14.67,12.93,23.16,17.75,14.71,8.33,30.25,14.5,46,20.13,3.63,1.29,5.52,6,3.21,10a67,67,0,0,1-9.32,12.15c-1,1-4,.44-5.78-.22-11.27-4.08-22.49-8.28-33.65-12.68-9.86-3.86-19.65-8-29.41-12.1a60,60,0,0,1-9.55-4.79c-5.13-3.38-7.49-9-9.46-14.69-3.51-10.15-1.46-19.95,2.11-29.65M872.69,359.07a20.1,20.1,0,0,1-2.2,1.19c-3.75-15.78-7.44-31.26-11.14-46.85,3.84,0,7.33.32,10.74-.11,3.24-.38,6.39-1.54,9.69-2.39-3.45-2.67-6.51-5-9.45-7.37a7.79,7.79,0,0,1-1.34-2.27,14.63,14.63,0,0,1,2.37-1c10.64-2.65,21-6,28.82-14.67,1.66-1.86,2.82-4.24,4.57-6.93,4.88,8.39,8.85,16.53,10.64,25.59a108.89,108.89,0,0,1,1.37,11.84c.5,5.88-3.22,9.18-7,12.36q-18.5,15.36-37,30.66m49.64-176c0-2.49,1-4.17,3.71-5.2,12.22-4.65,24.61-9,36.37-14.77,12.87-6.31,25.62-13.26,34.79-25.38,3.37-4.43,5.24-9.32,3.38-15.16-.32-1,0-2.19-.15-3.27q-2-17.33-4-34.66c-.54-4.63-1.13-9.24-1.69-13.85l1.34-.4c2.88,6.42,6,12.77,8.6,19.29,3.76,9.24,7.6,18.48,10.67,28,3.37,10.45,7.71,20.67,6.26,32.37-1.26,10-8.93,20.68-17.92,24.09-10.12,3.82-20,8.21-30.13,12.16s-20,7.6-30,11.36a57.86,57.86,0,0,1-8.12,2.82,5,5,0,0,1-4-1.38,72.16,72.16,0,0,1-7.79-9.81c-1-1.62-1.19-4.1-1.2-6.21m-243,311.84c.33.89,1.11,1.6,2.31,3.27-1.32-9.87-2.72-18.58-3.58-27.35-.65-6.44-.77-12.94-.79-19.41,0-8.08,0-16.19.59-24.23a120.47,120.47,0,0,1,2.82-16.35,5.36,5.36,0,0,1,2.63-3.15c6.64-3.27,13.39-6.31,20.12-9.39.18-.09.45,0,1.27.15-.56,3.12-1,6.25-1.69,9.31-1.59,7-3.51,13.85-4.89,20.85-1,5.06.23,9.91,2.15,14.7,1,2.41.66,5.36,1.4,7.92,3.1,10.72,6.18,21.52,12.15,30.92,2,3.1,5.12,5.6,8.19,7.61a12.17,12.17,0,0,1,4.5,4.88c6.15,12.27,12.15,24.61,18.38,36.83a27.24,27.24,0,0,0,19.19,14.87c8.74,1.88,17.56,3.83,26.44,4.48,6.08.44,12.35-1,18.43-2.14,5.74-1.08,11.41-2.68,17-4.32,8.37-2.44,12.79-9.39,16.58-16.87,4.93-9.76,10-19.48,14.37-29.53a21.43,21.43,0,0,1,8.84-9.94c5.53-3.57,8-9.92,10.33-16,2.88-7.63,6.07-15.22,7.86-23.14,2.14-9.54,4.71-19.2.84-29.26-2.28-5.94-3.13-12.51-4.55-18.81a12.11,12.11,0,0,1,.3-3.05c5,2.48,9.65,4.8,14.32,7.06a19.78,19.78,0,0,0,3.5,1.27c6.19,1.71,6.44,7.37,7.36,12.45,3.07,16.84,1.65,33.82,1,50.75-.28,8.31-1.76,16.58-2.75,24.87-.09.78-.62,1.48-.38,2.83.6-.59,1.52-1,1.77-1.76,3.37-10,7.08-19.83,9.81-30C918,454.6,920.14,443.8,922,433c1.33-7.7,1.09-15.73,2.77-23.33,3.23-14.67,1.78-29.47,1.15-44.08-.34-7.86,4.52-10.74,7.89-15.36.17-.23,2.09.3,2.28.84,2,5.45,3.87,10.95,5.68,16.47,5.53,16.76,5.25,34.2,4.64,51.52-.27,7.46-2.27,14.91-4,22.23-1.46,6.11-3.71,12-5.57,18a17,17,0,0,0,0,3.07l23.1-16.31c6.77,22,17.09,41.62,28.78,60.82-43.62,18.32-82.57,44.46-120.29,72.88l-.94-.61c.52-2.71,1-5.41,1.58-8.1.74-3.35,1.56-6.7,2.39-10,1.48-5.87,3.28-11.68,4.4-17.63,1.34-7.09,2.22-14.27,3.08-21.46.81-6.73,1.34-13.49,2-20.23-.44-.23-.87-.45-1.29-.69l-4.17,4.41c-2.1,2.19-3.93,4.82-6.36,6.43-3.64,2.4-4.37,6.1-5.53,9.86-2.23,7.2-4.42,14.44-7.2,21.42-4.23,10.56-8.38,21.26-13.6,31.29a318.46,318.46,0,0,1-32.26,50.47c-8,10.16-23.88,12.54-36.64,6.3-7.84-3.84-13.63-10.08-18.53-17.38-6.3-9.4-10.21-20-13.93-30.69q-6.84-19.78-13.4-39.68c-3-9-5.52-18.1-8.51-27.06-.58-1.74-2.33-3.09-3.64-4.5-2.92-3.16-5.89-6.26-8.87-9.34a30,30,0,0,0-2.82-2.19c.32,6.67.39,12.33.91,17.94.43,4.64,1.27,9.27,2.15,13.85,1.23,6.36,2.68,12.67,4,19,1.15,5.57,2.21,11.15,3.28,16.65-9.4,2.17-16.94-1.05-24.11-6.31s-14.28-10.07-21.59-14.83c-9.53-6.2-19-12.68-28.92-18.07-13.23-7.17-26.93-13.39-40.43-20-.93-.45-1.86-1-3.24-1.69,11.38-19.11,22-38.55,28.61-60.83l22.45,15.79c.34-.29.69-.6,1-.91-1.12-3.28-2.4-6.51-3.34-9.84-1.76-6.31-3.56-12.62-4.93-19-3.24-15.09-2.33-30.41-1-45.56.74-8.57,3.77-17,6-25.37.87-3.29,2.47-6.36,3.47-9.63.89-3,1.75-2.09,3.14-.4,1.76,2.14,3.84,4,5.5,6.18a8,8,0,0,1,1.68,4.35c0,13.58-.84,27.2-.24,40.73.44,10,2.61,19.9,4.1,29.83.88,5.82,1.5,11.76,3,17.38,3,11,4.26,22.52,9.2,33,1.86,3.91,2.91,8.23,4.43,12.32M979.48,42.09c1.12,4.16,2.1,8.38,2.88,12.62,1.48,8,3.25,16.11,4.06,24.23,1.33,13.41,2.35,26.87,2.74,40.34.14,4.67-1,9.48-4.8,13.44a88.29,88.29,0,0,1-30.54,20.56c-2.17.88-4.9,1.79-7,1.16-7.24-2.19-14.21-5.38-21.47-7.54-5.74-1.7-11.72-3.25-17.64-3.39s-11.58,1.61-17.39,2.36c-2.47.33-5.37,1.07-7.41.09-11-5.3-21.72-11.44-32.84-16.56a72.67,72.67,0,0,0-20-6.28A158,158,0,0,0,801,121.87c-6.83.32-13.53-.05-20.3-.4-16.07-.82-31.81.9-46.6,8.17q-15,7.34-29.7,15.11c-3,1.64-6,2.47-9.23,1.36-8.41-2.85-16.76-3.65-25.58-1.54-10.21,2.42-20.45,4.52-30,9.21-1.11.52-2.52,1.2-3.56.92a38.57,38.57,0,0,1-9.1-3.26c-6.14-3.45-12.2-7.13-18.05-11.12-8.67-5.92-14.57-13.62-13.52-25.42.59-6.4.76-12.85,1.26-19.27.43-5.57.74-11.18,1.67-16.66,2.13-12.34,4.5-24.62,7-36.88a7,7,0,0,0-2.44-7.41c-2.49-2.1-4.77-.37-6.87,1a13.53,13.53,0,0,0-2.87,2.63c-5.26,6.54-10.83,12.85-15.61,19.76-9,13-18.07,25.91-26,39.59-7.2,12.41-13.11,25.69-19.22,38.78a37.22,37.22,0,0,0-2.5,26.39,73.37,73.37,0,0,0,16.84,31.26,90.82,90.82,0,0,0,32.53,22.23c2.43,1,4.85,2.1,6.78,2.94-7.59,6.21-14.89,12.13-22.08,18.17-1.29,1.07-2.35,2.25-.48,4.36a111.75,111.75,0,0,0,25.49,21.26,174,174,0,0,0,22.31,11,62.35,62.35,0,0,0,29,5.07,54.32,54.32,0,0,0,6.26-1.18c-.77,1.58-1.12,2.27-1.47,3-3.86,8-8.35,15.75-11.46,24.07a276.93,276.93,0,0,0-10,32.39C620.69,349,618.91,361,617,372.83c-1.37,8.33-1.45,17-3.55,25.08-2.93,11.27-7.25,22.14-10.92,33.2-1.45,4.35-2.57,8.83-4.23,13.08-2.42,6.2-5.22,12.24-7.82,18.36s-5.08,12.37-7.83,18.45c-2.34,5.13-4.95,10.11-7.53,15.11-5.43,10.56-10.93,21.09-16.55,31.9.63.41,1.48,1,2.36,1.53,16.35,9.58,32.82,18.94,49,28.75,38.11,23.05,75.83,46.79,111,74.74,12.06,9.59,24,19.44,33.18,32.3a17.87,17.87,0,0,0,8.71,6.82c24,8.81,46.26,3.65,66.18-11.21,63.2-47.22,124.89-96.86,195.82-131.34a3.23,3.23,0,0,0,1-2.88c-5.75-11.08-11.95-21.92-17.46-33.13-5.09-10.37-9.55-21.09-14.14-31.73-4.21-9.73-8.81-19.23-11.49-29.69-2.2-8.54-5.9-16.63-8.61-25a143.27,143.27,0,0,1-4.83-18.07c-1.23-6.76-1.31-13.75-2.44-20.54-2.11-12.47-4.32-24.95-7.07-37.27a182.07,182.07,0,0,0-14.65-40.34c-2-4.12-4.21-8.11-6.5-12.48,1.22-.1,2.08-.42,2.78-.19,7.12,2.44,14.35,1.15,21.12-.75a149.06,149.06,0,0,0,25.56-10,115.85,115.85,0,0,0,32.65-24.86c1.9-2,2-3.33,0-5.48a91.88,91.88,0,0,0-22.63-17c1.06-.84,1.76-1.75,2.63-2a93.15,93.15,0,0,0,21-10.34c10.41-6.64,19.16-14.94,25.46-25.84,5.36-9.26,9.93-19.14,8.92-30.29a56.75,56.75,0,0,0-4.91-19,444,444,0,0,0-21.36-40.24c-9.32-15.3-19.63-29.91-29.85-44.58-3.11-4.45-7.26-8.12-11.11-11.95-2.27-2.27-5.21-3.07-7.78-.86-1.94,1.71-2.31,4.32-1.57,7.11M632.75,220.84c-6.32,1.32-12.86,1.63-19.07,3.31-8,2.15-15.71,5.18-23.53,7.89-2.56.89-5,2-7.56,3-.19-.25-.4-.49-.6-.74a13.59,13.59,0,0,1,2-2.85A93.63,93.63,0,0,1,613.5,215a87.4,87.4,0,0,1,40.06-4.13c7.22.91,10.45-3.36,13.55-8.33,4.49-7.18,7.42-15,6.4-23.92a52.38,52.38,0,0,0-1.77-7.71c-.45-1.7-1.1-3.36-1.81-5.48,4.63-.59,8.82-1.28,13-1.6,6.61-.48,12.28,2.22,17.25,6.51,5.13,4.42,10,9.06,15.1,13.59.57.51,1.24.92,2.05,1.53-.64-5.15-1.23-9.92-1.82-14.71-1.1-8.76,3.33-14.49,9.9-18.45,9.51-5.76,19.79-9.46,30.47-12.36,17.51-4.73,35.24-5.54,53-3.88,8.27.77,16.38,3.46,24.55,5.28,9,2,17.26,6,25.27,10.65,9.57,5.52,13.2,15.6,9.67,26.39a67.9,67.9,0,0,0-1.55,7.82c3.08-2.89,5.29-5.25,7.77-7.24,5.45-4.39,10.77-9.08,16.64-12.75,5-3.16,10.9-3.25,16.68-1.72,2,.53,4.11.69,6.64,1.1-.74,2.82-1.34,5.57-2.2,8.25-3.32,10.37-.14,19.42,5,28.1.24.4.51.78.73,1.17,3.24,5.94,7.55,8.35,14.53,7.61,18.34-1.92,36.09,1.24,52.54,10.32,6.31,3.48,12.17,7.9,18.25,11.9-.13.51-.24,1-.36,1.54-1.34-.16-2.82,0-4-.54-11.48-5.41-23.3-9.68-35.8-11.4-8.34-1.15-16.74-2.47-25.1-2.38-8.79.08-12.63,1-20.91,5.39-3-5.38-6-10.76-8.95-16.19s-5.69-10.89-8.59-16.29c-.76-1.38-1.27-2.06-3-.2-2.37,2.66-1.81,4.93-.89,7.73,3.5,10.55,6.52,21.19,7,32.53.21,5.3-1.69,8.67-5.35,11.84a454.81,454.81,0,0,1-48.43,36.27c-8.28,5.45-17.16,7.54-26.82,4.79a16.05,16.05,0,0,0-3-.31l-.73,1c2.21,2.37,4.2,5.05,6.69,7,3.28,2.6,7,4.56,10.44,6.95,4.32,3,5.35,8.18,6.93,12.81,2.48,7.3,4.57,14.78,6.63,22.23,1.69,6.11,3.12,12.3,4.65,18.44,1.75,7,3.56,13.88,5.24,20.84.7,2.93,1.12,5.91,1.72,8.86,1.91,9.51,3.85,19,5.75,28.52.17.82,0,1.7.14,2.55.43,4.32.95,8.63,1.33,12.95.51,5.76-1.53,10.09-5.79,13.95A77.3,77.3,0,0,1,840,455.71a4.83,4.83,0,0,1-1.35.27c-.45,0-.9,0-2.22-.12,1.2-3.53,2-6.84,3.4-9.87,2.36-5.26,5-10.46,10.2-13.32.29-.16.56-.51.88-.56,2.59-.28,5.23.09,5.6-4.16.21-2.6,1-4.9-.13-7.56a8.25,8.25,0,0,0-8.17-4.67c-4.42.36-8.39,1.69-11.14,6.42-4.47,7.69-9.9,14.76-14.71,22.27-3.63,5.67-9.32,7-15,8.56-4,1.09-8,1.85-12,2.69a9.24,9.24,0,0,1-3.79.25c-7-1.59-14.09-3.14-21-5.08-5.86-1.65-8.55-7.1-11.66-11.93-4-6.22-7.82-12.59-12.15-18.56-3-4.14-11.48-7.11-16.24-2.26-1.65,1.68-3.11,4.88-2.76,7,.47,2.83.5,6.76,5.51,7.2,2.64.23,5.46,3.54,7.43,6.09a39.14,39.14,0,0,1,7.51,18.38c-4.2-1.73-7.93-2.61-11-4.64a209.83,209.83,0,0,1-16.85-12.8c-3.86-3.17-4-7.87-3.42-12.56.19-1.66.55-3.3.79-5,1.38-9.14,2.64-18.27,4.13-27.37,1-6.09,2.18-12.16,3.54-18.17,1.53-6.73,3.35-13.4,5-20.1,1.54-6,3.06-12.06,4.63-18.08,1.48-5.67,2.93-11.34,4.58-16.95,1.1-3.74,2.94-7.25,3.74-11,1.35-6.45,5.82-9.69,10.61-12.85,4.08-2.71,8.88-4.51,11.1-9.61.23-.52.42-1.06.87-2.2-3.41.58-6.3,1.23-9.23,1.58-9,1.06-16.87-2.58-24-7.64-13.18-9.38-26-19.26-39-29-2.15-1.62-4-3.7-6.2-5.17-7.64-5.07-5.67-12.87-5.17-20.1.23-3.29,1.44-6.52,2.31-9.74,1.39-5.17,2.48-10.48,4.44-15.4,1.49-3.77-.1-6-2.6-8.93-1.47,2.29-3,4.36-4.19,6.63-4.43,8.3-8.76,16.66-13.13,25-1.17,2.22-2.1,2.79-5,1.59-10.09-4.26-20.63-5.76-31.51-3.47m73.62,133.72c-11.73-9.77-23.53-19.45-35-29.53-1.82-1.6-2.93-4.91-3.19-7.55-1.19-12.05,3.57-22.54,8.49-32.92.88-1.86,2-3.59,3.5-6.19a28.21,28.21,0,0,0,15.46,15.47c6.54,2.81,13.28,5.1,20.23,7.73-1.84,4.24-6.33,6.11-10.85,8.62,4.93,3,10.1,3.91,20.43,2.92-3.7,15.71-7.36,31.19-11.17,47.29-3-2.2-5.54-3.89-7.89-5.84M781,265.47c-14.82-4.35-28.16-11.56-41.23-19.7a8.56,8.56,0,0,1-1.13-.85c-.46-.35-.9-.74-1.34-1.12.09-.28.18-.57.28-.85,4,1.23,8,2.56,12.09,3.67,5,1.37,10,2.71,15,3.75A65.55,65.55,0,0,0,776,251.81c7.39.23,11.82-3.63,13.63-11.25a45.4,45.4,0,0,1,3.08-9.27,91.71,91.71,0,0,0,2.49,9,31.28,31.28,0,0,0,4.12,8.06c4.21,5.39,10.2,3.79,15.52,3.12,5.67-.71,11.24-2.46,16.81-4,4.65-1.26,9.2-2.83,13.81-4.24a2.32,2.32,0,0,1,2,.41c-2.1,1.58-4,3.55-6.35,4.7-11.09,5.52-22.06,11.44-33.51,16A39.85,39.85,0,0,1,781,265.47m127.39-56.16c2.93,5.43,6,10.81,8.95,16.19,8.28-4.35,12.12-5.31,20.91-5.39,8.36-.09,16.76,1.23,25.1,2.38,12.5,1.72,24.32,6,35.8,11.4,1.18.55,2.66.38,4,.54.12-.51.23-1,.36-1.54-6.08-4-11.94-8.42-18.25-11.9-16.45-9.08-34.2-12.24-52.54-10.32-7,.74-11.29-1.67-14.53-7.61-.22-.39-.49-.77-.73-1.17-5.14-8.68-8.32-17.73-5-28.1.86-2.68,1.46-5.43,2.2-8.25-2.53-.41-4.63-.57-6.64-1.1-5.78-1.53-11.64-1.44-16.68,1.72-5.87,3.67-11.19,8.36-16.64,12.75-2.48,2-4.69,4.35-7.77,7.24a67.9,67.9,0,0,1,1.55-7.82c3.53-10.79-.1-20.87-9.67-26.39-8-4.63-16.26-8.64-25.27-10.65-8.17-1.82-16.28-4.51-24.55-5.28-17.8-1.66-35.53-.85-53,3.88-10.68,2.9-21,6.6-30.47,12.36-6.57,4-11,9.69-9.9,18.45.59,4.79,1.18,9.56,1.82,14.71-.81-.61-1.48-1-2.05-1.53-5-4.53-10-9.17-15.1-13.59-5-4.29-10.64-7-17.25-6.51-4.2.32-8.39,1-13,1.6.71,2.12,1.36,3.78,1.81,5.48a52.38,52.38,0,0,1,1.77,7.71c1,8.88-1.91,16.74-6.4,23.92-3.1,5-6.33,9.24-13.55,8.33A87.4,87.4,0,0,0,613.5,215,93.63,93.63,0,0,0,584,231.43a13.59,13.59,0,0,0-2,2.85c.2.25.41.49.6.74,2.52-1,5-2.09,7.56-3,7.82-2.71,15.57-5.74,23.53-7.89,6.21-1.68,12.75-2,19.07-3.31,10.88-2.29,21.42-.79,31.51,3.47,2.85,1.2,3.78.63,5-1.59,4.37-8.34,8.7-16.7,13.13-25,1.22-2.27,2.72-4.34,4.19-6.63,2.5,3,4.09,5.16,2.6,8.93-2,4.92-3,10.23-4.44,15.4-.87,3.22-2.08,6.45-2.31,9.74-.5,7.23-2.47,15,5.17,20.1,2.21,1.47,4.05,3.55,6.2,5.17,13,9.72,25.81,19.6,39,29,7.12,5.06,15,8.7,24,7.64,2.93-.35,5.82-1,9.23-1.58-.45,1.14-.64,1.68-.87,2.2-2.22,5.1-7,6.9-11.1,9.61-4.79,3.16-9.26,6.4-10.61,12.85-.8,3.79-2.64,7.3-3.74,11-1.65,5.61-3.1,11.28-4.58,16.95-1.57,6-3.09,12.06-4.63,18.08-1.7,6.7-3.52,13.37-5,20.1-1.36,6-2.53,12.08-3.54,18.17-1.49,9.1-2.75,18.23-4.13,27.37-.24,1.65-.6,3.29-.79,5-.56,4.69-.44,9.39,3.42,12.56a209.83,209.83,0,0,0,16.85,12.8c3,2,6.76,2.91,11,4.64a39.14,39.14,0,0,0-7.51-18.38c-2-2.55-4.79-5.86-7.43-6.09-5-.44-5-4.37-5.51-7.2-.35-2.16,1.11-5.36,2.76-7,4.76-4.85,13.22-1.88,16.24,2.26,4.33,6,8.14,12.34,12.15,18.56,3.11,4.83,5.8,10.28,11.66,11.93,7,1.94,14,3.49,21,5.08a9.24,9.24,0,0,0,3.79-.25c4-.84,8.08-1.6,12-2.69,5.63-1.54,11.32-2.89,15-8.56,4.81-7.51,10.24-14.58,14.71-22.27,2.75-4.73,6.72-6.06,11.14-6.42a8.25,8.25,0,0,1,8.17,4.67c1.09,2.66.34,5,.13,7.56-.37,4.25-3,3.88-5.6,4.16-.32.05-.59.4-.88.56-5.25,2.86-7.84,8.06-10.2,13.32-1.38,3-2.2,6.34-3.4,9.87,1.32.08,1.77.15,2.22.12a4.83,4.83,0,0,0,1.35-.27,77.3,77.3,0,0,0,22.27-13.95c4.26-3.86,6.3-8.19,5.79-13.95-.38-4.32-.9-8.63-1.33-12.95-.09-.85,0-1.73-.14-2.55-1.9-9.51-3.84-19-5.75-28.52-.6-3-1-5.93-1.72-8.86-1.68-7-3.49-13.89-5.24-20.84-1.53-6.14-3-12.33-4.65-18.44-2.06-7.45-4.15-14.93-6.63-22.23-1.58-4.63-2.61-9.81-6.93-12.81-3.43-2.39-7.16-4.35-10.44-6.95-2.49-2-4.48-4.65-6.69-7l.73-1a16.05,16.05,0,0,1,3,.31c9.66,2.75,18.54.66,26.82-4.79a454.81,454.81,0,0,0,48.43-36.27c3.66-3.17,5.56-6.54,5.35-11.84-.45-11.34-3.47-22-7-32.53-.92-2.8-1.48-5.07.89-7.73,1.68-1.86,2.19-1.18,3,.2,2.9,5.4,5.67,10.88,8.59,16.29"/><path class="cls-3" d="M996.38,84.58c-.54-4.63-1.13-9.24-1.69-13.85l1.34-.4c2.88,6.42,6,12.77,8.6,19.29,3.76,9.24,7.6,18.48,10.67,28,3.37,10.45,7.71,20.67,6.26,32.37-1.26,10-8.93,20.68-17.92,24.09-10.12,3.82-20,8.21-30.13,12.16s-20,7.6-30,11.36a57.86,57.86,0,0,1-8.12,2.82,5,5,0,0,1-4-1.38,72.16,72.16,0,0,1-7.79-9.81c-1-1.62-1.19-4.1-1.2-6.21,0-2.49,1-4.17,3.71-5.2,12.22-4.65,24.61-9,36.37-14.77,12.87-6.31,25.62-13.26,34.79-25.38,3.37-4.43,5.24-9.32,3.38-15.16-.32-1,0-2.19-.15-3.27Q998.44,101.92,996.38,84.58Zm-96.2,201c-7.82,8.72-18.18,12-28.82,14.67a14.63,14.63,0,0,0-2.37,1,7.79,7.79,0,0,0,1.34,2.27c2.94,2.4,6,4.7,9.45,7.37-3.3.85-6.45,2-9.69,2.39-3.41.43-6.9.11-10.74.11,3.7,15.59,7.39,31.07,11.14,46.85a20.1,20.1,0,0,0,2.2-1.19q18.52-15.31,37-30.66c3.82-3.18,7.54-6.48,7-12.36a108.89,108.89,0,0,0-1.37-11.84c-1.79-9.06-5.76-17.2-10.64-25.59C903,281.31,901.84,283.69,900.18,285.55Zm-68.55-38c-5.57,1.5-11.14,3.25-16.81,4-5.32.67-11.31,2.27-15.52-3.12a31.28,31.28,0,0,1-4.12-8.06,91.71,91.71,0,0,1-2.49-9,45.4,45.4,0,0,0-3.08,9.27c-1.81,7.62-6.24,11.48-13.63,11.25a65.55,65.55,0,0,1-11.31-1.44c-5.07-1-10.07-2.38-15-3.75-4.06-1.11-8.07-2.44-12.09-3.67-.1.28-.19.57-.28.85.44.38.88.77,1.34,1.12a8.56,8.56,0,0,0,1.13.85c13.07,8.14,26.41,15.35,41.23,19.7a39.85,39.85,0,0,0,26.68-1.07c11.45-4.56,22.42-10.48,33.51-16,2.32-1.15,4.25-3.12,6.35-4.7a2.32,2.32,0,0,0-2-.41C840.83,244.7,836.28,246.27,831.63,247.53Zm-163.46,70c.26,2.64,1.37,5.95,3.19,7.55,11.48,10.08,23.28,19.76,35,29.53,2.35,1.95,4.9,3.64,7.89,5.84,3.81-16.1,7.47-31.58,11.17-47.29-10.33,1-15.5.09-20.43-2.92,4.52-2.51,9-4.38,10.85-8.62-7-2.63-13.69-4.92-20.23-7.73a28.21,28.21,0,0,1-15.46-15.47c-1.48,2.6-2.62,4.33-3.5,6.19C671.74,294.94,667,305.43,668.17,317.48ZM588.93,69.71c-1.42,3.16-2.87,6.32-4.24,9.51-3,6.9-6.07,13.72-8.73,20.74-3.24,8.58-6,17.37-9.12,26-3.57,9.7-5.62,19.5-2.11,29.65,2,5.67,4.33,11.31,9.46,14.69a60,60,0,0,0,9.55,4.79c9.76,4.13,19.55,8.24,29.41,12.1,11.16,4.4,22.38,8.6,33.65,12.68,1.8.66,4.83,1.22,5.78.22a67,67,0,0,0,9.32-12.15c2.31-4,.42-8.71-3.21-10-15.77-5.63-31.31-11.8-46-20.13-8.49-4.82-16.57-10.18-23.16-17.75-3.84-4.4-6.71-9.18-6-15.55.77-6.61,1.33-13.24,2.18-19.84,1.27-9.71,2.74-19.39,4.07-29.08.25-1.87.19-3.77.28-5.65ZM869.08,511.88c2.43-1.61,4.26-4.24,6.36-6.43l4.17-4.41c.42.24.85.46,1.29.69-.65,6.74-1.18,13.5-2,20.23-.86,7.19-1.74,14.37-3.08,21.46-1.12,6-2.92,11.76-4.4,17.63-.83,3.32-1.65,6.67-2.39,10-.59,2.69-1.06,5.39-1.58,8.1l.94.61c37.72-28.42,76.67-54.56,120.29-72.88-11.69-19.2-22-38.83-28.78-60.82l-23.1,16.31a17,17,0,0,1,0-3.07c1.86-6,4.11-11.93,5.57-18,1.77-7.32,3.77-14.77,4-22.23.61-17.32.89-34.76-4.64-51.52-1.81-5.52-3.67-11-5.68-16.47-.19-.54-2.11-1.07-2.28-.84-3.37,4.62-8.23,7.5-7.89,15.36.63,14.61,2.08,29.41-1.15,44.08-1.68,7.6-1.44,15.63-2.77,23.33-1.88,10.81-4,21.61-6.81,32.18-2.73,10.15-6.44,20-9.81,30-.25.72-1.17,1.17-1.77,1.76-.24-1.35.29-2.05.38-2.83,1-8.29,2.47-16.56,2.75-24.87.6-16.93,2-33.91-1-50.75-.92-5.08-1.17-10.74-7.36-12.45a19.78,19.78,0,0,1-3.5-1.27c-4.67-2.26-9.32-4.58-14.32-7.06a12.11,12.11,0,0,0-.3,3.05c1.42,6.3,2.27,12.87,4.55,18.81,3.87,10.06,1.3,19.72-.84,29.26-1.79,7.92-5,15.51-7.86,23.14-2.3,6.11-4.8,12.46-10.33,16a21.43,21.43,0,0,0-8.84,9.94c-4.4,10-9.44,19.77-14.37,29.53-3.79,7.48-8.21,14.43-16.58,16.87-5.63,1.64-11.3,3.24-17,4.32-6.08,1.13-12.35,2.58-18.43,2.14-8.88-.65-17.7-2.6-26.44-4.48a27.24,27.24,0,0,1-19.19-14.87c-6.23-12.22-12.23-24.56-18.38-36.83a12.17,12.17,0,0,0-4.5-4.88c-3.07-2-6.22-4.51-8.19-7.61-6-9.4-9-20.2-12.15-30.92-.74-2.56-.43-5.51-1.4-7.92-1.92-4.79-3.15-9.64-2.15-14.7,1.38-7,3.3-13.89,4.89-20.85.7-3.06,1.13-6.19,1.69-9.31-.82-.11-1.09-.24-1.27-.15-6.73,3.08-13.48,6.12-20.12,9.39a5.36,5.36,0,0,0-2.63,3.15,120.47,120.47,0,0,0-2.82,16.35c-.57,8-.6,16.15-.59,24.23,0,6.47.14,13,.79,19.41.86,8.77,2.26,17.48,3.58,27.35-1.2-1.67-2-2.38-2.31-3.27-1.52-4.09-2.57-8.41-4.43-12.32-4.94-10.43-6.16-22-9.2-33-1.55-5.62-2.17-11.56-3-17.38-1.49-9.93-3.66-19.84-4.1-29.83-.6-13.53.19-27.15.24-40.73a8,8,0,0,0-1.68-4.35c-1.66-2.2-3.74-4-5.5-6.18-1.39-1.69-2.25-2.59-3.14.4-1,3.27-2.6,6.34-3.47,9.63-2.2,8.41-5.23,16.8-6,25.37-1.33,15.15-2.24,30.47,1,45.56,1.37,6.41,3.17,12.72,4.93,19,.94,3.33,2.22,6.56,3.34,9.84-.34.31-.69.62-1,.91l-22.45-15.79c-6.64,22.28-17.23,41.72-28.61,60.83,1.38.72,2.31,1.24,3.24,1.69,13.5,6.64,27.2,12.86,40.43,20,9.95,5.39,19.39,11.87,28.92,18.07,7.31,4.76,14.53,9.68,21.59,14.83s14.71,8.48,24.11,6.31c-1.07-5.5-2.13-11.08-3.28-16.65-1.3-6.34-2.75-12.65-4-19-.88-4.58-1.72-9.21-2.15-13.85-.52-5.61-.59-11.27-.91-17.94a30,30,0,0,1,2.82,2.19c3,3.08,5.95,6.18,8.87,9.34,1.31,1.41,3.06,2.76,3.64,4.5,3,9,5.56,18.08,8.51,27.06q6.54,19.89,13.4,39.68c3.72,10.69,7.63,21.29,13.93,30.69,4.9,7.3,10.69,13.54,18.53,17.38,12.76,6.24,28.61,3.86,36.64-6.3a318.46,318.46,0,0,0,32.26-50.47c5.22-10,9.37-20.73,13.6-31.29,2.78-7,5-14.22,7.2-21.42C864.71,518,865.44,514.28,869.08,511.88ZM566.84,126c3.16-8.62,5.88-17.41,9.12-26,2.66-7,5.78-13.84,8.73-20.74,1.37-3.19,2.82-6.35,4.24-9.51l1.14.22c-.09,1.88,0,3.78-.28,5.65-1.33,9.69-2.8,19.37-4.07,29.08-.85,6.6-1.41,13.23-2.18,19.84-.74,6.37,2.13,11.15,6,15.55,6.59,7.57,14.67,12.93,23.16,17.75,14.71,8.33,30.25,14.5,46,20.13,3.63,1.29,5.52,6,3.21,10a67,67,0,0,1-9.32,12.15c-1,1-4,.44-5.78-.22-11.27-4.08-22.49-8.28-33.65-12.68-9.86-3.86-19.65-8-29.41-12.1a60,60,0,0,1-9.55-4.79c-5.13-3.38-7.49-9-9.46-14.69C561.22,145.45,563.27,135.65,566.84,126ZM872.69,359.07a20.1,20.1,0,0,1-2.2,1.19c-3.75-15.78-7.44-31.26-11.14-46.85,3.84,0,7.33.32,10.74-.11,3.24-.38,6.39-1.54,9.69-2.39-3.45-2.67-6.51-5-9.45-7.37a7.79,7.79,0,0,1-1.34-2.27,14.63,14.63,0,0,1,2.37-1c10.64-2.65,21-6,28.82-14.67,1.66-1.86,2.82-4.24,4.57-6.93,4.88,8.39,8.85,16.53,10.64,25.59a108.89,108.89,0,0,1,1.37,11.84c.5,5.88-3.22,9.18-7,12.36Q891.22,343.77,872.69,359.07Zm49.64-176c0-2.49,1-4.17,3.71-5.2,12.22-4.65,24.61-9,36.37-14.77,12.87-6.31,25.62-13.26,34.79-25.38,3.37-4.43,5.24-9.32,3.38-15.16-.32-1,0-2.19-.15-3.27q-2-17.33-4-34.66c-.54-4.63-1.13-9.24-1.69-13.85l1.34-.4c2.88,6.42,6,12.77,8.6,19.29,3.76,9.24,7.6,18.48,10.67,28,3.37,10.45,7.71,20.67,6.26,32.37-1.26,10-8.93,20.68-17.92,24.09-10.12,3.82-20,8.21-30.13,12.16s-20,7.6-30,11.36a57.86,57.86,0,0,1-8.12,2.82,5,5,0,0,1-4-1.38,72.16,72.16,0,0,1-7.79-9.81C922.48,187.61,922.34,185.13,922.33,183Zm-243,311.84c.33.89,1.11,1.6,2.31,3.27-1.32-9.87-2.72-18.58-3.58-27.35-.65-6.44-.77-12.94-.79-19.41,0-8.08,0-16.19.59-24.23a120.47,120.47,0,0,1,2.82-16.35,5.36,5.36,0,0,1,2.63-3.15c6.64-3.27,13.39-6.31,20.12-9.39.18-.09.45,0,1.27.15-.56,3.12-1,6.25-1.69,9.31-1.59,7-3.51,13.85-4.89,20.85-1,5.06.23,9.91,2.15,14.7,1,2.41.66,5.36,1.4,7.92,3.1,10.72,6.18,21.52,12.15,30.92,2,3.1,5.12,5.6,8.19,7.61a12.17,12.17,0,0,1,4.5,4.88c6.15,12.27,12.15,24.61,18.38,36.83a27.24,27.24,0,0,0,19.19,14.87c8.74,1.88,17.56,3.83,26.44,4.48,6.08.44,12.35-1,18.43-2.14,5.74-1.08,11.41-2.68,17-4.32,8.37-2.44,12.79-9.39,16.58-16.87,4.93-9.76,10-19.48,14.37-29.53a21.43,21.43,0,0,1,8.84-9.94c5.53-3.57,8-9.92,10.33-16,2.88-7.63,6.07-15.22,7.86-23.14,2.14-9.54,4.71-19.2.84-29.26-2.28-5.94-3.13-12.51-4.55-18.81a12.11,12.11,0,0,1,.3-3.05c5,2.48,9.65,4.8,14.32,7.06a19.78,19.78,0,0,0,3.5,1.27c6.19,1.71,6.44,7.37,7.36,12.45,3.07,16.84,1.65,33.82,1,50.75-.28,8.31-1.76,16.58-2.75,24.87-.09.78-.62,1.48-.38,2.83.6-.59,1.52-1,1.77-1.76,3.37-10,7.08-19.83,9.81-30C918,454.6,920.14,443.8,922,433c1.33-7.7,1.09-15.73,2.77-23.33,3.23-14.67,1.78-29.47,1.15-44.08-.34-7.86,4.52-10.74,7.89-15.36.17-.23,2.09.3,2.28.84,2,5.45,3.87,10.95,5.68,16.47,5.53,16.76,5.25,34.2,4.64,51.52-.27,7.46-2.27,14.91-4,22.23-1.46,6.11-3.71,12-5.57,18a17,17,0,0,0,0,3.07l23.1-16.31c6.77,22,17.09,41.62,28.78,60.82-43.62,18.32-82.57,44.46-120.29,72.88l-.94-.61c.52-2.71,1-5.41,1.58-8.1.74-3.35,1.56-6.7,2.39-10,1.48-5.87,3.28-11.68,4.4-17.63,1.34-7.09,2.22-14.27,3.08-21.46.81-6.73,1.34-13.49,2-20.23-.44-.23-.87-.45-1.29-.69l-4.17,4.41c-2.1,2.19-3.93,4.82-6.36,6.43-3.64,2.4-4.37,6.1-5.53,9.86-2.23,7.2-4.42,14.44-7.2,21.42-4.23,10.56-8.38,21.26-13.6,31.29a318.46,318.46,0,0,1-32.26,50.47c-8,10.16-23.88,12.54-36.64,6.3-7.84-3.84-13.63-10.08-18.53-17.38-6.3-9.4-10.21-20-13.93-30.69q-6.84-19.78-13.4-39.68c-3-9-5.52-18.1-8.51-27.06-.58-1.74-2.33-3.09-3.64-4.5-2.92-3.16-5.89-6.26-8.87-9.34a30,30,0,0,0-2.82-2.19c.32,6.67.39,12.33.91,17.94.43,4.64,1.27,9.27,2.15,13.85,1.23,6.36,2.68,12.67,4,19,1.15,5.57,2.21,11.15,3.28,16.65-9.4,2.17-16.94-1.05-24.11-6.31s-14.28-10.07-21.59-14.83c-9.53-6.2-19-12.68-28.92-18.07-13.23-7.17-26.93-13.39-40.43-20-.93-.45-1.86-1-3.24-1.69,11.38-19.11,22-38.55,28.61-60.83l22.45,15.79c.34-.29.69-.6,1-.91-1.12-3.28-2.4-6.51-3.34-9.84-1.76-6.31-3.56-12.62-4.93-19-3.24-15.09-2.33-30.41-1-45.56.74-8.57,3.77-17,6-25.37.87-3.29,2.47-6.36,3.47-9.63.89-3,1.75-2.09,3.14-.4,1.76,2.14,3.84,4,5.5,6.18a8,8,0,0,1,1.68,4.35c0,13.58-.84,27.2-.24,40.73.44,10,2.61,19.9,4.1,29.83.88,5.82,1.5,11.76,3,17.38,3,11,4.26,22.52,9.2,33C676.73,486.45,677.78,490.77,679.3,494.86ZM979.48,42.09c1.12,4.16,2.1,8.38,2.88,12.62,1.48,8,3.25,16.11,4.06,24.23,1.33,13.41,2.35,26.87,2.74,40.34.14,4.67-1,9.48-4.8,13.44a88.29,88.29,0,0,1-30.54,20.56c-2.17.88-4.9,1.79-7,1.16-7.24-2.19-14.21-5.38-21.47-7.54-5.74-1.7-11.72-3.25-17.64-3.39s-11.58,1.61-17.39,2.36c-2.47.33-5.37,1.07-7.41.09-11-5.3-21.72-11.44-32.84-16.56a72.67,72.67,0,0,0-20-6.28A158,158,0,0,0,801,121.87c-6.83.32-13.53-.05-20.3-.4-16.07-.82-31.81.9-46.6,8.17q-15,7.34-29.7,15.11c-3,1.64-6,2.47-9.23,1.36-8.41-2.85-16.76-3.65-25.58-1.54-10.21,2.42-20.45,4.52-30,9.21-1.11.52-2.52,1.2-3.56.92a38.57,38.57,0,0,1-9.1-3.26c-6.14-3.45-12.2-7.13-18.05-11.12-8.67-5.92-14.57-13.62-13.52-25.42.59-6.4.76-12.85,1.26-19.27.43-5.57.74-11.18,1.67-16.66,2.13-12.34,4.5-24.62,7-36.88a7,7,0,0,0-2.44-7.41c-2.49-2.1-4.77-.37-6.87,1a13.53,13.53,0,0,0-2.87,2.63c-5.26,6.54-10.83,12.85-15.61,19.76-9,13-18.07,25.91-26,39.59-7.2,12.41-13.11,25.69-19.22,38.78a37.22,37.22,0,0,0-2.5,26.39,73.37,73.37,0,0,0,16.84,31.26,90.82,90.82,0,0,0,32.53,22.23c2.43,1,4.85,2.1,6.78,2.94-7.59,6.21-14.89,12.13-22.08,18.17-1.29,1.07-2.35,2.25-.48,4.36a111.75,111.75,0,0,0,25.49,21.26,174,174,0,0,0,22.31,11,62.35,62.35,0,0,0,29,5.07,54.32,54.32,0,0,0,6.26-1.18c-.77,1.58-1.12,2.27-1.47,3-3.86,8-8.35,15.75-11.46,24.07a276.93,276.93,0,0,0-10,32.39C620.69,349,618.91,361,617,372.83c-1.37,8.33-1.45,17-3.55,25.08-2.93,11.27-7.25,22.14-10.92,33.2-1.45,4.35-2.57,8.83-4.23,13.08-2.42,6.2-5.22,12.24-7.82,18.36s-5.08,12.37-7.83,18.45c-2.34,5.13-4.95,10.11-7.53,15.11-5.43,10.56-10.93,21.09-16.55,31.9.63.41,1.48,1,2.36,1.53,16.35,9.58,32.82,18.94,49,28.75,38.11,23.05,75.83,46.79,111,74.74,12.06,9.59,24,19.44,33.18,32.3a17.87,17.87,0,0,0,8.71,6.82c24,8.81,46.26,3.65,66.18-11.21,63.2-47.22,124.89-96.86,195.82-131.34a3.23,3.23,0,0,0,1-2.88c-5.75-11.08-11.95-21.92-17.46-33.13-5.09-10.37-9.55-21.09-14.14-31.73-4.21-9.73-8.81-19.23-11.49-29.69-2.2-8.54-5.9-16.63-8.61-25a143.27,143.27,0,0,1-4.83-18.07c-1.23-6.76-1.31-13.75-2.44-20.54-2.11-12.47-4.32-24.95-7.07-37.27a182.07,182.07,0,0,0-14.65-40.34c-2-4.12-4.21-8.11-6.5-12.48,1.22-.1,2.08-.42,2.78-.19,7.12,2.44,14.35,1.15,21.12-.75a149.06,149.06,0,0,0,25.56-10,115.85,115.85,0,0,0,32.65-24.86c1.9-2,2-3.33,0-5.48a91.88,91.88,0,0,0-22.63-17c1.06-.84,1.76-1.75,2.63-2a93.15,93.15,0,0,0,21-10.34c10.41-6.64,19.16-14.94,25.46-25.84,5.36-9.26,9.93-19.14,8.92-30.29a56.75,56.75,0,0,0-4.91-19,444,444,0,0,0-21.36-40.24c-9.32-15.3-19.63-29.91-29.85-44.58-3.11-4.45-7.26-8.12-11.11-11.95-2.27-2.27-5.21-3.07-7.78-.86C979.11,36.69,978.74,39.3,979.48,42.09ZM632.75,220.84c-6.32,1.32-12.86,1.63-19.07,3.31-8,2.15-15.71,5.18-23.53,7.89-2.56.89-5,2-7.56,3-.19-.25-.4-.49-.6-.74a13.59,13.59,0,0,1,2-2.85A93.63,93.63,0,0,1,613.5,215a87.4,87.4,0,0,1,40.06-4.13c7.22.91,10.45-3.36,13.55-8.33,4.49-7.18,7.42-15,6.4-23.92a52.38,52.38,0,0,0-1.77-7.71c-.45-1.7-1.1-3.36-1.81-5.48,4.63-.59,8.82-1.28,13-1.6,6.61-.48,12.28,2.22,17.25,6.51,5.13,4.42,10,9.06,15.1,13.59.57.51,1.24.92,2.05,1.53-.64-5.15-1.23-9.92-1.82-14.71-1.1-8.76,3.33-14.49,9.9-18.45,9.51-5.76,19.79-9.46,30.47-12.36,17.51-4.73,35.24-5.54,53-3.88,8.27.77,16.38,3.46,24.55,5.28,9,2,17.26,6,25.27,10.65,9.57,5.52,13.2,15.6,9.67,26.39a67.9,67.9,0,0,0-1.55,7.82c3.08-2.89,5.29-5.25,7.77-7.24,5.45-4.39,10.77-9.08,16.64-12.75,5-3.16,10.9-3.25,16.68-1.72,2,.53,4.11.69,6.64,1.1-.74,2.82-1.34,5.57-2.2,8.25-3.32,10.37-.14,19.42,5,28.1.24.4.51.78.73,1.17,3.24,5.94,7.55,8.35,14.53,7.61,18.34-1.92,36.09,1.24,52.54,10.32,6.31,3.48,12.17,7.9,18.25,11.9-.13.51-.24,1-.36,1.54-1.34-.16-2.82,0-4-.54-11.48-5.41-23.3-9.68-35.8-11.4-8.34-1.15-16.74-2.47-25.1-2.38-8.79.08-12.63,1-20.91,5.39-3-5.38-6-10.76-8.95-16.19s-5.69-10.89-8.59-16.29c-.76-1.38-1.27-2.06-3-.2-2.37,2.66-1.81,4.93-.89,7.73,3.5,10.55,6.52,21.19,7,32.53.21,5.3-1.69,8.67-5.35,11.84a454.81,454.81,0,0,1-48.43,36.27c-8.28,5.45-17.16,7.54-26.82,4.79a16.05,16.05,0,0,0-3-.31l-.73,1c2.21,2.37,4.2,5.05,6.69,7,3.28,2.6,7,4.56,10.44,6.95,4.32,3,5.35,8.18,6.93,12.81,2.48,7.3,4.57,14.78,6.63,22.23,1.69,6.11,3.12,12.3,4.65,18.44,1.75,7,3.56,13.88,5.24,20.84.7,2.93,1.12,5.91,1.72,8.86,1.91,9.51,3.85,19,5.75,28.52.17.82,0,1.7.14,2.55.43,4.32.95,8.63,1.33,12.95.51,5.76-1.53,10.09-5.79,13.95A77.3,77.3,0,0,1,840,455.71a4.83,4.83,0,0,1-1.35.27c-.45,0-.9,0-2.22-.12,1.2-3.53,2-6.84,3.4-9.87,2.36-5.26,5-10.46,10.2-13.32.29-.16.56-.51.88-.56,2.59-.28,5.23.09,5.6-4.16.21-2.6,1-4.9-.13-7.56a8.25,8.25,0,0,0-8.17-4.67c-4.42.36-8.39,1.69-11.14,6.42-4.47,7.69-9.9,14.76-14.71,22.27-3.63,5.67-9.32,7-15,8.56-4,1.09-8,1.85-12,2.69a9.24,9.24,0,0,1-3.79.25c-7-1.59-14.09-3.14-21-5.08-5.86-1.65-8.55-7.1-11.66-11.93-4-6.22-7.82-12.59-12.15-18.56-3-4.14-11.48-7.11-16.24-2.26-1.65,1.68-3.11,4.88-2.76,7,.47,2.83.5,6.76,5.51,7.2,2.64.23,5.46,3.54,7.43,6.09a39.14,39.14,0,0,1,7.51,18.38c-4.2-1.73-7.93-2.61-11-4.64a209.83,209.83,0,0,1-16.85-12.8c-3.86-3.17-4-7.87-3.42-12.56.19-1.66.55-3.3.79-5,1.38-9.14,2.64-18.27,4.13-27.37,1-6.09,2.18-12.16,3.54-18.17,1.53-6.73,3.35-13.4,5-20.1,1.54-6,3.06-12.06,4.63-18.08,1.48-5.67,2.93-11.34,4.58-16.95,1.1-3.74,2.94-7.25,3.74-11,1.35-6.45,5.82-9.69,10.61-12.85,4.08-2.71,8.88-4.51,11.1-9.61.23-.52.42-1.06.87-2.2-3.41.58-6.3,1.23-9.23,1.58-9,1.06-16.87-2.58-24-7.64-13.18-9.38-26-19.26-39-29-2.15-1.62-4-3.7-6.2-5.17-7.64-5.07-5.67-12.87-5.17-20.1.23-3.29,1.44-6.52,2.31-9.74,1.39-5.17,2.48-10.48,4.44-15.4,1.49-3.77-.1-6-2.6-8.93-1.47,2.29-3,4.36-4.19,6.63-4.43,8.3-8.76,16.66-13.13,25-1.17,2.22-2.1,2.79-5,1.59C654.17,220.05,643.63,218.55,632.75,220.84Zm73.62,133.72c-11.73-9.77-23.53-19.45-35-29.53-1.82-1.6-2.93-4.91-3.19-7.55-1.19-12.05,3.57-22.54,8.49-32.92.88-1.86,2-3.59,3.5-6.19a28.21,28.21,0,0,0,15.46,15.47c6.54,2.81,13.28,5.1,20.23,7.73-1.84,4.24-6.33,6.11-10.85,8.62,4.93,3,10.1,3.91,20.43,2.92-3.7,15.71-7.36,31.19-11.17,47.29C711.27,358.2,708.72,356.51,706.37,354.56ZM781,265.47c-14.82-4.35-28.16-11.56-41.23-19.7a8.56,8.56,0,0,1-1.13-.85c-.46-.35-.9-.74-1.34-1.12.09-.28.18-.57.28-.85,4,1.23,8,2.56,12.09,3.67,5,1.37,10,2.71,15,3.75A65.55,65.55,0,0,0,776,251.81c7.39.23,11.82-3.63,13.63-11.25a45.4,45.4,0,0,1,3.08-9.27,91.71,91.71,0,0,0,2.49,9,31.28,31.28,0,0,0,4.12,8.06c4.21,5.39,10.2,3.79,15.52,3.12,5.67-.71,11.24-2.46,16.81-4,4.65-1.26,9.2-2.83,13.81-4.24a2.32,2.32,0,0,1,2,.41c-2.1,1.58-4,3.55-6.35,4.7-11.09,5.52-22.06,11.44-33.51,16A39.85,39.85,0,0,1,781,265.47Zm127.39-56.16c2.93,5.43,6,10.81,8.95,16.19,8.28-4.35,12.12-5.31,20.91-5.39,8.36-.09,16.76,1.23,25.1,2.38,12.5,1.72,24.32,6,35.8,11.4,1.18.55,2.66.38,4,.54.12-.51.23-1,.36-1.54-6.08-4-11.94-8.42-18.25-11.9-16.45-9.08-34.2-12.24-52.54-10.32-7,.74-11.29-1.67-14.53-7.61-.22-.39-.49-.77-.73-1.17-5.14-8.68-8.32-17.73-5-28.1.86-2.68,1.46-5.43,2.2-8.25-2.53-.41-4.63-.57-6.64-1.1-5.78-1.53-11.64-1.44-16.68,1.72-5.87,3.67-11.19,8.36-16.64,12.75-2.48,2-4.69,4.35-7.77,7.24a67.9,67.9,0,0,1,1.55-7.82c3.53-10.79-.1-20.87-9.67-26.39-8-4.63-16.26-8.64-25.27-10.65-8.17-1.82-16.28-4.51-24.55-5.28-17.8-1.66-35.53-.85-53,3.88-10.68,2.9-21,6.6-30.47,12.36-6.57,4-11,9.69-9.9,18.45.59,4.79,1.18,9.56,1.82,14.71-.81-.61-1.48-1-2.05-1.53-5-4.53-10-9.17-15.1-13.59-5-4.29-10.64-7-17.25-6.51-4.2.32-8.39,1-13,1.6.71,2.12,1.36,3.78,1.81,5.48a52.38,52.38,0,0,1,1.77,7.71c1,8.88-1.91,16.74-6.4,23.92-3.1,5-6.33,9.24-13.55,8.33A87.4,87.4,0,0,0,613.5,215,93.63,93.63,0,0,0,584,231.43a13.59,13.59,0,0,0-2,2.85c.2.25.41.49.6.74,2.52-1,5-2.09,7.56-3,7.82-2.71,15.57-5.74,23.53-7.89,6.21-1.68,12.75-2,19.07-3.31,10.88-2.29,21.42-.79,31.51,3.47,2.85,1.2,3.78.63,5-1.59,4.37-8.34,8.7-16.7,13.13-25,1.22-2.27,2.72-4.34,4.19-6.63,2.5,3,4.09,5.16,2.6,8.93-2,4.92-3,10.23-4.44,15.4-.87,3.22-2.08,6.45-2.31,9.74-.5,7.23-2.47,15,5.17,20.1,2.21,1.47,4.05,3.55,6.2,5.17,13,9.72,25.81,19.6,39,29,7.12,5.06,15,8.7,24,7.64,2.93-.35,5.82-1,9.23-1.58-.45,1.14-.64,1.68-.87,2.2-2.22,5.1-7,6.9-11.1,9.61-4.79,3.16-9.26,6.4-10.61,12.85-.8,3.79-2.64,7.3-3.74,11-1.65,5.61-3.1,11.28-4.58,16.95-1.57,6-3.09,12.06-4.63,18.08-1.7,6.7-3.52,13.37-5,20.1-1.36,6-2.53,12.08-3.54,18.17-1.49,9.1-2.75,18.23-4.13,27.37-.24,1.65-.6,3.29-.79,5-.56,4.69-.44,9.39,3.42,12.56a209.83,209.83,0,0,0,16.85,12.8c3,2,6.76,2.91,11,4.64a39.14,39.14,0,0,0-7.51-18.38c-2-2.55-4.79-5.86-7.43-6.09-5-.44-5-4.37-5.51-7.2-.35-2.16,1.11-5.36,2.76-7,4.76-4.85,13.22-1.88,16.24,2.26,4.33,6,8.14,12.34,12.15,18.56,3.11,4.83,5.8,10.28,11.66,11.93,7,1.94,14,3.49,21,5.08a9.24,9.24,0,0,0,3.79-.25c4-.84,8.08-1.6,12-2.69,5.63-1.54,11.32-2.89,15-8.56,4.81-7.51,10.24-14.58,14.71-22.27,2.75-4.73,6.72-6.06,11.14-6.42a8.25,8.25,0,0,1,8.17,4.67c1.09,2.66.34,5,.13,7.56-.37,4.25-3,3.88-5.6,4.16-.32.05-.59.4-.88.56-5.25,2.86-7.84,8.06-10.2,13.32-1.38,3-2.2,6.34-3.4,9.87,1.32.08,1.77.15,2.22.12a4.83,4.83,0,0,0,1.35-.27,77.3,77.3,0,0,0,22.27-13.95c4.26-3.86,6.3-8.19,5.79-13.95-.38-4.32-.9-8.63-1.33-12.95-.09-.85,0-1.73-.14-2.55-1.9-9.51-3.84-19-5.75-28.52-.6-3-1-5.93-1.72-8.86-1.68-7-3.49-13.89-5.24-20.84-1.53-6.14-3-12.33-4.65-18.44-2.06-7.45-4.15-14.93-6.63-22.23-1.58-4.63-2.61-9.81-6.93-12.81-3.43-2.39-7.16-4.35-10.44-6.95-2.49-2-4.48-4.65-6.69-7l.73-1a16.05,16.05,0,0,1,3,.31c9.66,2.75,18.54.66,26.82-4.79a454.81,454.81,0,0,0,48.43-36.27c3.66-3.17,5.56-6.54,5.35-11.84-.45-11.34-3.47-22-7-32.53-.92-2.8-1.48-5.07.89-7.73,1.68-1.86,2.19-1.18,3,.2C902.65,198.42,905.42,203.9,908.34,209.31Z"/><path class="cls-1" d="M996.38,84.58c-.54-4.63-1.13-9.24-1.69-13.85l1.34-.4c2.88,6.42,6,12.77,8.6,19.29,3.76,9.24,7.6,18.48,10.67,28,3.37,10.45,7.71,20.67,6.26,32.37-1.26,10-8.93,20.68-17.92,24.09-10.12,3.82-20,8.21-30.13,12.16s-20,7.6-30,11.36a57.86,57.86,0,0,1-8.12,2.82,5,5,0,0,1-4-1.38,72.16,72.16,0,0,1-7.79-9.81c-1-1.62-1.19-4.1-1.2-6.21,0-2.49,1-4.17,3.71-5.2,12.22-4.65,24.61-9,36.36-14.77,12.88-6.31,25.63-13.26,34.8-25.38,3.37-4.43,5.24-9.32,3.38-15.16-.32-1,0-2.19-.15-3.27q-2-17.33-4-34.66"/><path class="cls-4" d="M934.79,201.13a5.76,5.76,0,0,1-3.92-1.63,72.93,72.93,0,0,1-7.86-9.91c-1.13-1.73-1.29-4.29-1.31-6.56,0-2.89,1.3-4.74,4.13-5.83l6.6-2.49c9.88-3.71,20.09-7.55,29.71-12.26,12.47-6.11,25.41-13.08,34.57-25.19,3.8-5,4.84-9.62,3.28-14.54a6,6,0,0,1-.17-2.15,8.63,8.63,0,0,0,0-1.25q-2-17.32-4-34.66-.51-4.27-1-8.54L994,70.25l2.37-.7.23.5c.9,2,1.82,4,2.74,6,2,4.32,4,8.79,5.87,13.28l1,2.36c3.39,8.33,6.91,17,9.72,25.69.49,1.5,1,3,1.49,4.48,3,8.85,6.06,18,4.8,28.18-1.32,10.42-9.37,21.23-18.33,24.63-5.7,2.15-11.45,4.53-17,6.83-4.29,1.77-8.73,3.61-13.12,5.33-7.42,2.91-15,5.74-22.35,8.48l-7.69,2.88-2,.77a39.84,39.84,0,0,1-6.25,2.08,3.85,3.85,0,0,1-.69.06M997,84.5q2.06,17.32,4,34.66a8.93,8.93,0,0,1,0,1.46,5,5,0,0,0,.11,1.68c1.71,5.38.6,10.4-3.49,15.78-9.33,12.34-22.42,19.39-35,25.56-9.67,4.74-19.92,8.59-29.82,12.31l-6.59,2.5c-2.33.88-3.32,2.25-3.31,4.57,0,2.07.16,4.39,1.1,5.83a72,72,0,0,0,7.72,9.73,4.42,4.42,0,0,0,3.47,1.19,37.91,37.91,0,0,0,6-2l2-.77L951,194.1c7.33-2.74,14.92-5.57,22.33-8.47,4.38-1.72,8.81-3.56,13.1-5.33,5.56-2.3,11.32-4.68,17-6.84,8.56-3.24,16.25-13.59,17.51-23.56s-1.81-18.86-4.74-27.57c-.5-1.5-1-3-1.49-4.5-2.8-8.68-6.31-17.28-9.69-25.59l-1-2.36c-1.82-4.46-3.86-8.92-5.84-13.23-.85-1.84-1.7-3.68-2.53-5.53l-.31.09L996,76q.52,4.26,1,8.55"/><path class="cls-2" d="M904.75,278.62c4.88,8.39,8.85,16.53,10.64,25.59a108.89,108.89,0,0,1,1.37,11.84c.5,5.88-3.22,9.18-7,12.36q-18.5,15.36-37,30.66a18.71,18.71,0,0,1-2.19,1.19c-3.75-15.78-7.44-31.27-11.14-46.85,3.84,0,7.33.32,10.74-.1,3.24-.39,6.39-1.55,9.69-2.4-3.45-2.67-6.51-5-9.45-7.37a7.79,7.79,0,0,1-1.34-2.27,14.26,14.26,0,0,1,2.37-1c10.64-2.65,21-6,28.82-14.67,1.66-1.86,2.82-4.24,4.57-6.93"/><path d="M845.44,243.29a2.32,2.32,0,0,1,2,.41c-2.1,1.58-4,3.55-6.35,4.7-11.09,5.52-22.06,11.44-33.51,16A39.83,39.83,0,0,1,781,265.47c-14.83-4.35-28.17-11.56-41.24-19.7a8.56,8.56,0,0,1-1.13-.85c-.46-.35-.9-.74-1.34-1.12.1-.28.18-.57.28-.85,4,1.23,8,2.56,12.09,3.67,5,1.37,10,2.71,15,3.75A65.55,65.55,0,0,0,776,251.81c7.39.23,11.82-3.63,13.63-11.25a44.8,44.8,0,0,1,3.08-9.27c.81,3,1.39,6.12,2.49,9a31.28,31.28,0,0,0,4.12,8.06c4.21,5.39,10.2,3.79,15.52,3.12,5.67-.71,11.24-2.46,16.81-4,4.65-1.26,9.2-2.83,13.81-4.24"/><path class="cls-2" d="M676.66,284.56c.88-1.86,2-3.59,3.5-6.19a28.21,28.21,0,0,0,15.46,15.47c6.54,2.81,13.28,5.1,20.23,7.73-1.84,4.24-6.34,6.11-10.84,8.62,4.92,3,10.09,3.91,20.42,2.92-3.7,15.71-7.35,31.19-11.17,47.3-3-2.21-5.54-3.9-7.89-5.85-11.73-9.77-23.53-19.45-35-29.53-1.83-1.6-2.93-4.91-3.19-7.55-1.19-12.05,3.57-22.54,8.49-32.92"/><path class="cls-1" d="M590.07,69.93c-.09,1.89,0,3.78-.28,5.65-1.33,9.69-2.8,19.37-4.07,29.08-.85,6.6-1.41,13.23-2.18,19.84-.74,6.37,2.13,11.15,6,15.55,6.59,7.57,14.67,12.93,23.16,17.75,14.71,8.33,30.25,14.5,46,20.13a6.88,6.88,0,0,1,3.22,10,67,67,0,0,1-9.32,12.15c-1,1-4,.44-5.78-.22-11.27-4.08-22.49-8.28-33.65-12.68-9.86-3.86-19.65-8-29.41-12.1a60,60,0,0,1-9.55-4.79c-5.13-3.38-7.49-9-9.46-14.69-3.51-10.15-1.46-19.95,2.11-29.65,3.16-8.62,5.88-17.41,9.12-26,2.65-7,5.78-13.84,8.73-20.74,1.37-3.19,2.82-6.35,4.24-9.51l1.14.22"/><path class="cls-4" d="M650.68,201.28a13,13,0,0,1-4.09-.8c-12.3-4.46-23.32-8.61-33.66-12.68-9.86-3.86-19.54-7.93-29.42-12.11a60.88,60.88,0,0,1-9.65-4.84c-5.38-3.55-7.84-9.62-9.71-15-3.84-11.07-1.09-21.43,2.11-30.11,1.43-3.91,2.8-7.92,4.12-11.8,1.59-4.67,3.23-9.5,5-14.19,1.91-5.07,4.11-10.11,6.23-15q1.26-2.89,2.51-5.79c1.06-2.48,2.18-5,3.29-7.41L588.58,69l2.14.42,0,.58c0,.58,0,1.16-.05,1.74a37.87,37.87,0,0,1-.23,4c-.55,4-1.13,8-1.7,12.07-.8,5.58-1.62,11.34-2.37,17-.49,3.84-.89,7.76-1.29,11.55-.28,2.76-.56,5.52-.88,8.28-.76,6.51,2.51,11.25,5.8,15,6.92,7.94,15.51,13.36,23,17.61,15.54,8.81,31.93,15.09,45.92,20.08a7,7,0,0,1,4.23,4.43,7.87,7.87,0,0,1-.69,6.55A67,67,0,0,1,653,200.55a3.19,3.19,0,0,1-2.34.73M589.29,70.45l-.74,1.66c-1.12,2.45-2.23,4.91-3.29,7.38q-1.25,2.91-2.51,5.8c-2.11,4.86-4.3,9.88-6.21,14.92-1.76,4.67-3.4,9.49-5,14.14-1.33,3.89-2.7,7.91-4.13,11.84-3.12,8.45-5.8,18.52-2.11,29.18,1.89,5.44,4.16,11,9.2,14.36a60.5,60.5,0,0,0,9.45,4.74c9.88,4.17,19.55,8.24,29.4,12.1,10.33,4.07,21.33,8.21,33.64,12.67,2.16.79,4.56,1,5.13.38a65.89,65.89,0,0,0,9.22-12,6.42,6.42,0,0,0,.58-5.41,5.73,5.73,0,0,0-3.46-3.63c-14-5-30.48-11.32-46.1-20.17-7.59-4.3-16.29-9.79-23.33-17.88-3.49-4-6.94-9-6.13-16.08.32-2.75.61-5.51.89-8.26.39-3.8.79-7.73,1.29-11.58.74-5.69,1.57-11.46,2.37-17,.57-4,1.15-8,1.7-12.07a36.91,36.91,0,0,0,.22-3.8c0-.4,0-.8,0-1.2Z"/><path class="cls-2" d="M863.55,521.74c-2.23,7.2-4.42,14.44-7.2,21.42-4.23,10.56-8.38,21.26-13.6,31.29a318.46,318.46,0,0,1-32.26,50.47c-8,10.16-23.88,12.54-36.64,6.3-7.84-3.84-13.63-10.08-18.53-17.38-6.3-9.4-10.21-20-13.93-30.69q-6.84-19.78-13.4-39.68c-3-9-5.52-18.1-8.51-27.06-.58-1.74-2.33-3.09-3.64-4.5-2.92-3.16-5.89-6.26-8.87-9.34a30,30,0,0,0-2.82-2.19c.32,6.67.39,12.33.91,17.94.43,4.64,1.27,9.27,2.15,13.85,1.23,6.36,2.68,12.67,4,19,1.15,5.57,2.21,11.15,3.28,16.65-9.4,2.17-16.94-1.05-24.11-6.31s-14.27-10.07-21.59-14.83c-9.53-6.2-19-12.68-28.92-18.07-13.23-7.17-26.93-13.39-40.43-20-.93-.45-1.86-1-3.24-1.69,11.38-19.11,22-38.55,28.61-60.83l22.44,15.79c.35-.29.7-.6,1-.91-1.12-3.28-2.4-6.51-3.34-9.84-1.76-6.31-3.56-12.62-4.93-19-3.24-15.09-2.33-30.41-1-45.56.74-8.57,3.77-17,6-25.37.87-3.29,2.47-6.36,3.46-9.63.9-3,1.77-2.09,3.15-.4,1.76,2.14,3.84,4,5.5,6.18a8,8,0,0,1,1.67,4.35c0,13.58-.83,27.2-.23,40.73.44,10,2.61,19.9,4.1,29.83.88,5.82,1.5,11.76,3,17.38,3,11,4.26,22.52,9.2,33,1.86,3.91,2.9,8.23,4.43,12.32.33.89,1.11,1.6,2.31,3.27-1.32-9.87-2.72-18.58-3.59-27.35-.64-6.44-.76-12.94-.78-19.41,0-8.08,0-16.19.59-24.23a120.47,120.47,0,0,1,2.82-16.35,5.32,5.32,0,0,1,2.63-3.15c6.64-3.27,13.39-6.31,20.12-9.39.18-.09.45,0,1.27.15-.56,3.12-1,6.25-1.69,9.31-1.59,7-3.5,13.85-4.89,20.84-1,5.07.22,9.92,2.15,14.71,1,2.41.66,5.36,1.4,7.92,3.1,10.72,6.19,21.52,12.15,30.92,2,3.1,5.12,5.6,8.19,7.61a12.17,12.17,0,0,1,4.5,4.88c6.15,12.27,12.15,24.61,18.38,36.83A27.25,27.25,0,0,0,764,546.29c8.75,1.88,17.57,3.83,26.45,4.48,6.08.44,12.35-1,18.43-2.14,5.75-1.08,11.41-2.68,17-4.32,8.37-2.44,12.79-9.39,16.58-16.87,4.93-9.76,10-19.48,14.37-29.53a21.43,21.43,0,0,1,8.84-9.94c5.53-3.57,8-9.92,10.33-16,2.88-7.63,6.07-15.22,7.86-23.14,2.14-9.53,4.71-19.2.84-29.26-2.28-5.94-3.13-12.51-4.55-18.81a12.11,12.11,0,0,1,.3-3.05c5,2.48,9.65,4.8,14.32,7.06a19.78,19.78,0,0,0,3.5,1.27c6.19,1.71,6.44,7.37,7.36,12.45,3.07,16.84,1.65,33.82,1,50.75-.28,8.31-1.76,16.58-2.75,24.87-.09.78-.62,1.48-.38,2.83.6-.59,1.52-1,1.77-1.76,3.37-10,7.08-19.83,9.81-30C918,454.6,920.14,443.81,922,433c1.33-7.7,1.09-15.73,2.77-23.33C928,395,926.57,380.19,926,365.57c-.35-7.85,4.5-10.73,7.88-15.35.17-.23,2.09.3,2.28.84,2,5.45,3.87,10.95,5.68,16.47,5.53,16.76,5.25,34.2,4.64,51.52-.26,7.46-2.28,14.91-4,22.23-1.46,6.11-3.71,12-5.57,18a17,17,0,0,0,0,3.07c7.94-5.61,15.18-10.73,23.1-16.31,6.77,22,17.09,41.62,28.78,60.82-43.61,18.32-82.57,44.46-120.29,72.88l-.94-.61c.52-2.71,1-5.41,1.58-8.1.74-3.35,1.56-6.7,2.39-10,1.48-5.87,3.28-11.68,4.4-17.63,1.34-7.09,2.22-14.27,3.08-21.46.81-6.73,1.34-13.49,2-20.23-.44-.23-.87-.45-1.29-.69l-4.17,4.41c-2.1,2.19-3.93,4.82-6.36,6.43-3.64,2.4-4.37,6.1-5.53,9.86"/><path class="cls-5" d="M564.73,155.6c2,5.67,4.33,11.31,9.46,14.69a60,60,0,0,0,9.55,4.79c9.76,4.13,19.55,8.24,29.41,12.1,11.16,4.4,22.38,8.6,33.65,12.68,1.8.66,4.83,1.22,5.78.22a67,67,0,0,0,9.32-12.15c2.31-4,.42-8.71-3.21-10-15.77-5.63-31.31-11.8-46-20.13-8.49-4.82-16.57-10.18-23.16-17.75-3.84-4.4-6.71-9.18-6-15.55.77-6.61,1.33-13.24,2.18-19.84,1.27-9.71,2.74-19.39,4.07-29.08.25-1.87.19-3.76.28-5.65l-1.14-.22c-1.42,3.16-2.87,6.32-4.24,9.51-3,6.9-6.08,13.72-8.73,20.74-3.24,8.58-6,17.37-9.12,26-3.57,9.7-5.62,19.5-2.11,29.65m345,172.81c3.82-3.18,7.54-6.48,7-12.36a108.89,108.89,0,0,0-1.37-11.84c-1.79-9.06-5.76-17.2-10.64-25.59-1.75,2.69-2.91,5.07-4.57,6.93-7.82,8.72-18.18,12-28.82,14.67a14.63,14.63,0,0,0-2.37,1,7.79,7.79,0,0,0,1.34,2.27c2.94,2.4,6,4.7,9.45,7.37-3.3.85-6.45,2-9.69,2.4-3.41.42-6.9.1-10.74.1,3.7,15.58,7.39,31.07,11.14,46.85a20.1,20.1,0,0,0,2.2-1.19q18.54-15.31,37-30.66m13.81-139.18a72.16,72.16,0,0,0,7.79,9.81,5,5,0,0,0,4,1.38,57.86,57.86,0,0,0,8.12-2.82c10-3.76,20.07-7.45,30-11.36s20-8.34,30.13-12.16c9-3.41,16.66-14.13,17.92-24.09,1.45-11.7-2.89-21.92-6.26-32.37-3.07-9.52-6.91-18.76-10.67-28-2.65-6.52-5.72-12.87-8.6-19.29l-1.34.4c.56,4.61,1.15,9.22,1.69,13.85q2.05,17.33,4,34.66c.13,1.09-.17,2.29.15,3.27,1.86,5.84,0,10.73-3.38,15.16-9.17,12.12-21.92,19.07-34.79,25.38-11.76,5.75-24.15,10.12-36.37,14.78-2.69,1-3.73,2.7-3.71,5.2,0,2.1.15,4.58,1.2,6.2M674.87,482.54c-4.94-10.43-6.16-22-9.2-33-1.55-5.62-2.17-11.56-3-17.38-1.49-9.93-3.66-19.84-4.1-29.83-.6-13.53.19-27.15.24-40.73a8,8,0,0,0-1.68-4.35c-1.66-2.2-3.74-4-5.5-6.18-1.39-1.69-2.25-2.59-3.14.4-1,3.27-2.6,6.34-3.47,9.63-2.2,8.41-5.23,16.79-6,25.38-1.33,15.14-2.24,30.46,1,45.55,1.37,6.41,3.17,12.72,4.93,19,.94,3.33,2.22,6.56,3.34,9.84-.34.31-.69.62-1,.91l-22.45-15.79c-6.64,22.28-17.23,41.72-28.61,60.83,1.38.72,2.31,1.24,3.24,1.69,13.51,6.64,27.2,12.86,40.43,20,9.95,5.39,19.39,11.87,28.92,18.07,7.31,4.76,14.53,9.68,21.59,14.83s14.71,8.48,24.11,6.3c-1.07-5.49-2.13-11.07-3.28-16.64-1.3-6.35-2.75-12.65-4-19-.88-4.58-1.72-9.21-2.15-13.85-.52-5.61-.59-11.27-.91-17.94a31.91,31.91,0,0,1,2.82,2.19c3,3.08,5.95,6.18,8.87,9.34,1.31,1.41,3.06,2.76,3.65,4.5,3,9,5.55,18.08,8.5,27.06q6.54,19.89,13.4,39.68c3.72,10.69,7.63,21.29,13.93,30.69,4.9,7.3,10.69,13.54,18.53,17.38,12.76,6.24,28.61,3.86,36.64-6.31a317.91,317.91,0,0,0,32.26-50.46c5.22-10,9.37-20.73,13.6-31.29,2.78-7,5-14.22,7.2-21.42,1.16-3.76,1.89-7.46,5.53-9.86,2.43-1.61,4.26-4.24,6.36-6.43,1.39-1.46,2.77-2.94,4.17-4.41l1.29.69c-.65,6.75-1.18,13.5-2,20.23-.86,7.19-1.74,14.37-3.08,21.46-1.12,6-2.92,11.76-4.4,17.63-.83,3.32-1.65,6.67-2.39,10-.59,2.69-1.06,5.39-1.58,8.1l.94.62c37.72-28.43,76.68-54.57,120.29-72.89-11.69-19.2-22-38.83-28.78-60.82-7.92,5.58-15.15,10.7-23.1,16.31a17,17,0,0,1,0-3.07c1.86-6,4.11-11.93,5.57-18,1.76-7.32,3.77-14.77,4-22.23.61-17.32.89-34.76-4.64-51.52-1.81-5.52-3.67-11-5.68-16.47-.19-.54-2.11-1.07-2.27-.84-3.38,4.62-8.24,7.5-7.89,15.36.62,14.61,2.07,29.41-1.16,44.08-1.68,7.6-1.44,15.63-2.77,23.33-1.88,10.82-4,21.61-6.81,32.17-2.73,10.16-6.44,20-9.81,30-.25.72-1.17,1.18-1.77,1.76-.24-1.35.29-2.05.38-2.83,1-8.29,2.47-16.56,2.75-24.88.6-16.92,2-33.9-1-50.74-.92-5.08-1.17-10.74-7.36-12.46a19.25,19.25,0,0,1-3.5-1.26c-4.67-2.26-9.32-4.58-14.32-7.07a12.25,12.25,0,0,0-.3,3.06c1.42,6.3,2.27,12.87,4.55,18.81,3.87,10.06,1.3,19.73-.84,29.26-1.79,7.92-5,15.51-7.86,23.14-2.3,6.11-4.8,12.45-10.33,16a21.43,21.43,0,0,0-8.84,9.94c-4.4,10-9.44,19.78-14.37,29.53-3.79,7.48-8.21,14.43-16.58,16.87-5.63,1.64-11.3,3.24-17,4.31-6.08,1.14-12.35,2.59-18.43,2.15-8.88-.65-17.7-2.6-26.44-4.48a27.24,27.24,0,0,1-19.19-14.87c-6.23-12.22-12.23-24.56-18.38-36.83a12.29,12.29,0,0,0-4.49-4.88c-3.08-2-6.23-4.51-8.2-7.61-6-9.4-9-20.2-12.15-30.92-.74-2.56-.43-5.51-1.4-7.92-1.92-4.79-3.15-9.64-2.15-14.7,1.38-7,3.3-13.89,4.89-20.85.7-3.06,1.13-6.19,1.69-9.32-.82-.1-1.09-.23-1.27-.14-6.73,3.08-13.48,6.12-20.12,9.39a5.33,5.33,0,0,0-2.63,3.15,120.35,120.35,0,0,0-2.82,16.36c-.57,8-.6,16.14-.59,24.22,0,6.47.14,13,.79,19.41.86,8.77,2.26,17.48,3.58,27.35-1.2-1.67-2-2.38-2.31-3.27-1.53-4.09-2.57-8.41-4.43-12.32M981.05,35c2.57-2.22,5.51-1.42,7.77.85,3.86,3.83,8,7.5,11.12,12,10.22,14.66,20.53,29.27,29.86,44.57a447.79,447.79,0,0,1,21.35,40.24,56.75,56.75,0,0,1,4.91,19c1,11.15-3.56,21-8.92,30.29-6.3,10.9-15.05,19.2-25.46,25.84a93.15,93.15,0,0,1-21,10.34c-.87.28-1.56,1.19-2.63,2a91.88,91.88,0,0,1,22.63,17c2,2.15,1.9,3.47,0,5.48a115.85,115.85,0,0,1-32.65,24.86,148.74,148.74,0,0,1-25.56,10c-6.77,1.9-14,3.19-21.12.75-.7-.23-1.55.09-2.78.19,2.29,4.37,4.49,8.36,6.5,12.48a182.07,182.07,0,0,1,14.65,40.34c2.75,12.32,5,24.8,7.07,37.27,1.13,6.79,1.21,13.78,2.44,20.54a143.27,143.27,0,0,0,4.83,18.07c2.71,8.4,6.41,16.49,8.61,25,2.68,10.46,7.28,20,11.49,29.69,4.59,10.64,9,21.36,14.14,31.73,5.51,11.21,11.71,22.05,17.46,33.13a3.23,3.23,0,0,1-1,2.88C953.9,564.08,892.21,613.72,829,660.94c-19.92,14.86-42.2,20-66.18,11.21a17.87,17.87,0,0,1-8.71-6.82C744.94,652.48,733,642.62,720.94,633c-35.15-27.94-72.87-51.68-111-74.73-16.22-9.81-32.69-19.17-49-28.75-.88-.51-1.73-1.11-2.36-1.53,5.62-10.81,11.12-21.34,16.55-31.91,2.58-5,5.19-10,7.53-15.1,2.75-6.08,5.2-12.31,7.83-18.45s5.4-12.16,7.82-18.36c1.66-4.25,2.78-8.73,4.23-13.08,3.67-11.06,8-21.93,10.92-33.2,2.1-8.09,2.18-16.75,3.55-25.08,1.93-11.87,3.7-23.81,6.49-35.46a276.93,276.93,0,0,1,10-32.39c3.11-8.32,7.6-16.08,11.46-24.07.35-.7.7-1.39,1.47-3a54.32,54.32,0,0,1-6.26,1.18,62.35,62.35,0,0,1-29-5.07,174,174,0,0,1-22.31-11,111.75,111.75,0,0,1-25.49-21.26c-1.87-2.11-.81-3.29.48-4.36,7.19-6,14.49-12,22.08-18.17-1.93-.84-4.35-1.93-6.78-2.94a90.9,90.9,0,0,1-32.53-22.23,73.37,73.37,0,0,1-16.84-31.26,37.19,37.19,0,0,1,2.5-26.38c6.11-13.09,12-26.38,19.22-38.79,7.92-13.68,17-26.62,26-39.59,4.78-6.91,10.35-13.22,15.61-19.76A13.53,13.53,0,0,1,596,35.72c2.11-1.41,4.38-3.14,6.87-1a7.05,7.05,0,0,1,2.44,7.42c-2.5,12.25-4.87,24.53-7,36.87-.93,5.48-1.24,11.09-1.67,16.66-.5,6.42-.67,12.87-1.26,19.27-1,11.8,4.85,19.5,13.52,25.42,5.85,4,11.91,7.67,18.06,11.12A38.5,38.5,0,0,0,636,154.7c1,.28,2.45-.39,3.56-.92,9.56-4.69,19.8-6.79,30-9.22a45,45,0,0,1,25.58,1.55c3.25,1.11,6.18.28,9.23-1.35q14.73-7.8,29.7-15.12c14.79-7.27,30.53-9,46.6-8.17,6.77.35,13.47.72,20.3.4a158,158,0,0,1,29.09,1.25,72.67,72.67,0,0,1,20,6.28c11.12,5.12,21.81,11.26,32.84,16.56,2,1,4.94.24,7.41-.09,5.81-.75,11.62-2.52,17.39-2.36s11.9,1.69,17.64,3.39c7.26,2.16,14.23,5.35,21.47,7.54,2.06.63,4.79-.28,7-1.16a88.15,88.15,0,0,0,30.54-20.56c3.84-4,4.94-8.77,4.8-13.44-.39-13.47-1.41-26.93-2.74-40.34-.81-8.12-2.58-16.17-4.06-24.22-.78-4.25-1.76-8.47-2.88-12.62-.74-2.8-.37-5.41,1.57-7.11M664.26,224.31c2.85,1.2,3.78.63,5-1.59,4.37-8.34,8.7-16.7,13.13-25,1.22-2.27,2.72-4.34,4.19-6.63,2.5,3,4.09,5.16,2.6,8.93-2,4.92-3,10.23-4.44,15.4-.87,3.22-2.08,6.45-2.31,9.74-.5,7.23-2.47,15,5.17,20.1,2.21,1.47,4.05,3.55,6.2,5.17,13,9.72,25.81,19.6,39,29,7.12,5.06,15,8.7,24,7.64,2.93-.35,5.82-1,9.23-1.58-.45,1.14-.64,1.68-.87,2.2-2.22,5.1-7,6.9-11.1,9.61-4.79,3.16-9.26,6.4-10.61,12.85-.8,3.79-2.64,7.3-3.74,11-1.65,5.62-3.1,11.29-4.58,17-1.57,6-3.09,12.06-4.63,18.08-1.7,6.7-3.52,13.37-5,20.1-1.36,6-2.53,12.08-3.54,18.17-1.49,9.1-2.75,18.23-4.13,27.37-.24,1.65-.6,3.29-.79,5-.56,4.69-.44,9.39,3.42,12.56a209.83,209.83,0,0,0,16.85,12.8c3,2,6.76,2.91,11,4.64a39.14,39.14,0,0,0-7.51-18.38c-2-2.55-4.79-5.86-7.43-6.09-5-.44-5-4.37-5.51-7.2-.35-2.16,1.11-5.36,2.76-7,4.76-4.85,13.22-1.88,16.24,2.26,4.33,6,8.14,12.34,12.15,18.56,3.11,4.83,5.8,10.28,11.66,11.93,7,1.94,14,3.49,21,5.08a9.24,9.24,0,0,0,3.79-.25c4-.84,8.08-1.6,12-2.69,5.63-1.54,11.33-2.89,15-8.56,4.8-7.51,10.23-14.58,14.7-22.27,2.75-4.74,6.72-6.06,11.14-6.42a8.25,8.25,0,0,1,8.17,4.67c1.09,2.66.34,5,.13,7.56-.37,4.25-3,3.88-5.6,4.16-.32,0-.59.4-.88.56-5.25,2.86-7.84,8.06-10.2,13.32-1.38,3-2.2,6.34-3.4,9.88,1.32.07,1.77.14,2.22.11a4.52,4.52,0,0,0,1.35-.28,77.37,77.37,0,0,0,22.28-13.94c4.25-3.86,6.29-8.19,5.78-13.95-.38-4.32-.9-8.63-1.33-12.95a23.77,23.77,0,0,0-.14-2.55c-1.9-9.51-3.84-19-5.75-28.52-.6-3-1-5.93-1.72-8.86-1.68-7-3.49-13.89-5.24-20.84-1.53-6.14-3-12.33-4.65-18.44-2.06-7.45-4.15-14.93-6.63-22.23-1.58-4.62-2.61-9.81-6.93-12.81-3.43-2.39-7.16-4.35-10.44-6.95-2.49-2-4.48-4.65-6.69-7,.24-.32.49-.64.73-1a16.05,16.05,0,0,1,3,.31c9.66,2.75,18.54.66,26.82-4.79a454.81,454.81,0,0,0,48.43-36.27c3.66-3.18,5.56-6.54,5.35-11.84-.45-11.34-3.47-22-7-32.53-.92-2.8-1.48-5.07.89-7.73,1.68-1.86,2.19-1.19,3,.2,2.9,5.4,5.67,10.88,8.59,16.29s6,10.81,8.95,16.19c8.28-4.35,12.12-5.31,20.92-5.39,8.35-.09,16.75,1.23,25.09,2.38,12.5,1.71,24.32,6,35.8,11.4,1.18.55,2.66.38,4,.54.12-.52.23-1,.36-1.54-6.07-4-11.94-8.42-18.25-11.9-16.45-9.08-34.2-12.24-52.54-10.32-7,.74-11.29-1.67-14.53-7.61-.22-.39-.49-.77-.73-1.17-5.14-8.68-8.32-17.73-5-28.11.86-2.67,1.46-5.42,2.2-8.24-2.53-.41-4.63-.57-6.64-1.1-5.78-1.53-11.64-1.44-16.68,1.72-5.87,3.67-11.19,8.36-16.63,12.75-2.49,2-4.7,4.35-7.78,7.24a68.14,68.14,0,0,1,1.55-7.83c3.53-10.78-.1-20.86-9.67-26.38-8-4.63-16.26-8.64-25.27-10.65-8.17-1.82-16.28-4.51-24.55-5.28-17.8-1.66-35.52-.85-53,3.88-10.68,2.9-21,6.6-30.47,12.36-6.57,4-11,9.69-9.9,18.45.59,4.79,1.18,9.56,1.82,14.7-.81-.6-1.48-1-2.05-1.52-5-4.53-10-9.17-15.1-13.59-5-4.29-10.64-7-17.25-6.51-4.2.32-8.39,1-13,1.6.71,2.12,1.37,3.78,1.81,5.48a52.38,52.38,0,0,1,1.77,7.71c1,8.88-1.91,16.74-6.4,23.92-3.1,5-6.33,9.24-13.55,8.33A87.4,87.4,0,0,0,613.5,215,93.83,93.83,0,0,0,584,231.43a13.59,13.59,0,0,0-2,2.85c.2.25.41.49.6.74,2.52-1,5-2.09,7.56-3,7.82-2.7,15.57-5.73,23.53-7.88,6.21-1.68,12.75-2,19.07-3.31,10.88-2.29,21.42-.79,31.51,3.47m50,136.09c3.81-16.1,7.47-31.58,11.17-47.29-10.33,1-15.5.09-20.43-2.92,4.52-2.51,9-4.38,10.86-8.62-7-2.63-13.7-4.92-20.24-7.73a28.21,28.21,0,0,1-15.46-15.47c-1.48,2.6-2.62,4.33-3.5,6.18-4.92,10.39-9.68,20.88-8.49,32.93.26,2.64,1.37,5.95,3.19,7.55,11.48,10.08,23.28,19.76,35,29.53,2.35,1.95,4.9,3.64,7.89,5.84"/><path class="cls-2" d="M807.63,264.4c11.45-4.56,22.42-10.48,33.51-16,2.32-1.15,4.25-3.12,6.35-4.7a2.32,2.32,0,0,0-2-.41c-4.61,1.41-9.16,3-13.81,4.24-5.57,1.5-11.14,3.25-16.81,4-5.32.67-11.31,2.27-15.52-3.12a31.28,31.28,0,0,1-4.12-8.06c-1.1-2.9-1.69-6-2.5-9a46,46,0,0,0-3.07,9.27c-1.81,7.62-6.24,11.48-13.63,11.25a65.55,65.55,0,0,1-11.31-1.44c-5.07-1-10.07-2.38-15-3.75-4.06-1.11-8.07-2.44-12.09-3.67-.1.28-.18.57-.28.85.44.38.88.77,1.34,1.12a8.56,8.56,0,0,0,1.13.85c13.07,8.14,26.41,15.35,41.24,19.7a39.83,39.83,0,0,0,26.67-1.07M899.75,193c-.76-1.38-1.27-2.06-3-.2-2.37,2.66-1.81,4.93-.89,7.73,3.5,10.55,6.52,21.19,7,32.53.21,5.3-1.69,8.67-5.35,11.84a454.81,454.81,0,0,1-48.43,36.27c-8.28,5.45-17.16,7.54-26.83,4.79a15.86,15.86,0,0,0-3-.31l-.73,1c2.2,2.37,4.2,5.05,6.69,7,3.28,2.6,7,4.56,10.44,6.95,4.32,3,5.35,8.18,6.93,12.81,2.48,7.3,4.56,14.78,6.63,22.23,1.69,6.11,3.12,12.3,4.65,18.44,1.75,7,3.56,13.88,5.24,20.84.7,2.93,1.12,5.91,1.72,8.86,1.91,9.51,3.85,19,5.75,28.52a23.77,23.77,0,0,1,.14,2.55c.43,4.32.95,8.63,1.33,12.95.51,5.76-1.53,10.09-5.79,13.95A77.3,77.3,0,0,1,840,455.71a4.83,4.83,0,0,1-1.35.27c-.45,0-.9,0-2.22-.11,1.2-3.54,2-6.85,3.4-9.88,2.36-5.26,5-10.46,10.2-13.32.29-.16.56-.51.88-.56,2.6-.28,5.24.09,5.6-4.16.21-2.6,1-4.9-.13-7.56a8.25,8.25,0,0,0-8.17-4.67c-4.42.36-8.39,1.69-11.14,6.42-4.47,7.69-9.9,14.76-14.7,22.27-3.63,5.67-9.33,7-15,8.56-4,1.09-8,1.85-12,2.69a9.24,9.24,0,0,1-3.79.25c-7-1.59-14.09-3.14-21-5.08-5.86-1.65-8.55-7.1-11.66-11.93-4-6.22-7.82-12.59-12.15-18.56-3-4.14-11.48-7.11-16.24-2.26-1.65,1.68-3.11,4.88-2.76,7,.47,2.83.5,6.76,5.51,7.2,2.64.23,5.46,3.54,7.43,6.09,3.8,5,6.28,10.73,7.51,18.38-4.2-1.73-7.93-2.61-11-4.64a209.83,209.83,0,0,1-16.85-12.8c-3.86-3.17-4-7.87-3.42-12.56.19-1.66.55-3.3.79-5,1.38-9.14,2.64-18.27,4.13-27.37,1-6.09,2.18-12.16,3.54-18.17,1.53-6.73,3.35-13.4,5-20.1,1.54-6,3.06-12.06,4.63-18.08,1.47-5.67,2.93-11.34,4.57-16.95,1.11-3.74,3-7.25,3.75-11,1.35-6.45,5.82-9.69,10.61-12.85,4.08-2.71,8.88-4.51,11.1-9.61.23-.52.42-1.06.87-2.2-3.41.58-6.3,1.23-9.23,1.58-9,1.06-16.87-2.58-24-7.64-13.18-9.38-26-19.26-39-29-2.15-1.62-4-3.7-6.2-5.17-7.64-5.07-5.67-12.87-5.17-20.1.23-3.29,1.44-6.52,2.31-9.74,1.39-5.17,2.48-10.48,4.44-15.4,1.49-3.77-.1-6-2.6-8.93-1.47,2.29-3,4.36-4.19,6.63-4.43,8.3-8.76,16.66-13.13,25-1.17,2.22-2.1,2.79-5,1.59-10.09-4.26-20.63-5.76-31.51-3.47-6.32,1.32-12.86,1.63-19.07,3.31-8,2.16-15.71,5.18-23.53,7.89-2.56.89-5,2-7.56,3-.19-.25-.4-.49-.6-.74a13.27,13.27,0,0,1,2-2.85A93.48,93.48,0,0,1,613.5,215a87.4,87.4,0,0,1,40.06-4.13c7.22.91,10.45-3.36,13.55-8.33,4.49-7.18,7.42-15,6.4-23.92a52.38,52.38,0,0,0-1.77-7.71c-.44-1.7-1.1-3.36-1.81-5.48,4.63-.59,8.82-1.28,13-1.6,6.61-.48,12.28,2.22,17.25,6.51,5.13,4.42,10.06,9.06,15.09,13.59.58.51,1.25.92,2.06,1.53-.64-5.15-1.23-9.92-1.82-14.71-1.1-8.76,3.33-14.49,9.9-18.45,9.51-5.76,19.79-9.46,30.47-12.36,17.51-4.73,35.24-5.54,53-3.88,8.27.77,16.38,3.46,24.55,5.28,9,2,17.26,6,25.27,10.65,9.57,5.52,13.2,15.6,9.67,26.39a67.9,67.9,0,0,0-1.55,7.82c3.08-2.89,5.29-5.25,7.77-7.24,5.45-4.39,10.77-9.08,16.64-12.75,5-3.16,10.9-3.25,16.68-1.72,2,.53,4.11.69,6.64,1.1-.74,2.82-1.34,5.57-2.2,8.25-3.32,10.37-.14,19.42,5,28.1.24.4.51.78.73,1.17,3.24,5.94,7.55,8.35,14.54,7.61,18.33-1.92,36.08,1.24,52.53,10.32,6.31,3.48,12.18,7.9,18.25,11.9-.13.51-.24,1-.36,1.54-1.34-.16-2.82,0-4-.54-11.47-5.41-23.3-9.68-35.8-11.4-8.34-1.15-16.74-2.47-25.09-2.38-8.8.08-12.64,1-20.92,5.39-3-5.38-6-10.76-8.95-16.19s-5.69-10.89-8.59-16.29"/><path class="cls-1" d="M694.76,276.18c.1-3.07.63-4.11.57-6.46a15.93,15.93,0,0,0-1-5.18l32.29,20.11a4.22,4.22,0,0,1,1.71,5.36l-1.85,4.25a3.85,3.85,0,0,1-5.38,1.94l-6.62-2.41c-11-3.8-19-9-19.51-13.19a34.17,34.17,0,0,1-.19-4.42"/><path class="cls-1" d="M889.88,276.18c-.1-3.07-.63-4.11-.57-6.46a15.93,15.93,0,0,1,1-5.18L858,284.65a4.22,4.22,0,0,0-1.71,5.36l1.85,4.25a3.85,3.85,0,0,0,5.38,1.94l6.62-2.41c11-3.8,19-9,19.51-13.19a34.17,34.17,0,0,0,.19-4.42"/><rect class="cls-6" x="25.68" y="-20.04" width="1533.69" height="1044.04"/><rect class="cls-6" x="25.68" y="-20.04" width="1533.69" height="1044.04"/></svg>